<svg xmlns="http://www.w3.org/2000/svg" xmlns:xlink="http://www.w3.org/1999/xlink" width="1080" zoomAndPan="magnify" viewBox="0 0 810 809.999993" height="1080" preserveAspectRatio="xMidYMid meet" version="1.2"><defs><clipPath id="f6711afa2c"><path d="M 28.78125 40.28125 L 770.003906 40.28125 L 770.003906 781.503906 L 28.78125 781.503906 Z M 28.78125 40.28125 "/></clipPath></defs><g id="ae11ad82ee"><g clip-rule="nonzero" clip-path="url(#f6711afa2c)"><path style=" stroke:none;fill-rule:nonzero;fill:#1aa158;fill-opacity:1;" d="M 399.394531 81.464844 C 393.09375 81.457031 386.796875 81.628906 380.507812 81.984375 C 374.21875 82.335938 367.945312 82.871094 361.6875 83.582031 C 355.429688 84.296875 349.195312 85.1875 342.984375 86.257812 C 336.777344 87.332031 330.605469 88.574219 324.46875 90 C 318.332031 91.425781 312.242188 93.023438 306.195312 94.796875 C 300.152344 96.566406 294.160156 98.511719 288.226562 100.628906 C 282.296875 102.742188 276.425781 105.027344 270.625 107.480469 C 264.820312 109.933594 259.09375 112.550781 253.441406 115.332031 C 247.785156 118.113281 242.222656 121.050781 236.734375 124.148438 C 231.25 127.253906 225.859375 130.503906 220.566406 133.910156 C 215.265625 137.324219 210.070312 140.878906 204.976562 144.585938 C 199.878906 148.292969 194.898438 152.140625 190.023438 156.132812 C 185.152344 160.121094 180.394531 164.25 175.757812 168.515625 C 171.117188 172.78125 166.609375 177.171875 162.222656 181.695312 C 157.839844 186.21875 153.585938 190.863281 149.46875 195.628906 C 145.347656 200.394531 141.367188 205.277344 137.527344 210.269531 C 133.6875 215.261719 130 220.363281 126.449219 225.566406 C 122.902344 230.777344 119.507812 236.082031 116.265625 241.480469 C 113.019531 246.878906 109.933594 252.367188 107.003906 257.945312 C 104.078125 263.519531 101.308594 269.179688 98.703125 274.917969 C 96.101562 280.652344 93.660156 286.457031 91.390625 292.332031 C 89.117188 298.210938 87.015625 304.144531 85.082031 310.140625 C 83.148438 316.132812 81.390625 322.183594 79.804688 328.28125 C 78.21875 334.375 76.808594 340.511719 75.574219 346.691406 C 74.34375 352.867188 73.285156 359.074219 72.40625 365.3125 C 71.527344 371.550781 70.832031 377.808594 70.308594 384.089844 C 69.789062 390.363281 69.449219 396.65625 69.289062 402.949219 C 69.128906 409.25 69.152344 415.542969 69.351562 421.84375 C 69.554688 428.140625 69.933594 434.421875 70.5 440.695312 C 71.058594 446.972656 71.796875 453.226562 72.71875 459.457031 C 73.636719 465.691406 74.734375 471.890625 76.011719 478.058594 C 77.285156 484.226562 78.734375 490.355469 80.363281 496.441406 C 81.988281 502.53125 83.785156 508.5625 85.757812 514.546875 C 87.730469 520.527344 89.871094 526.449219 92.183594 532.3125 C 94.492188 538.171875 96.972656 543.960938 99.613281 549.679688 C 102.253906 555.398438 105.0625 561.039062 108.027344 566.59375 C 110.992188 572.152344 114.113281 577.621094 117.390625 582.996094 C 120.671875 588.378906 124.105469 593.660156 127.683594 598.839844 C 131.265625 604.023438 134.992188 609.097656 138.867188 614.066406 C 142.738281 619.035156 146.75 623.890625 150.902344 628.628906 C 155.050781 633.367188 159.332031 637.984375 163.746094 642.476562 C 168.160156 646.96875 172.703125 651.332031 177.371094 655.570312 C 182.03125 659.804688 186.816406 663.898438 191.714844 667.855469 C 196.617188 671.816406 201.621094 675.632812 206.742188 679.304688 C 211.859375 682.976562 217.082031 686.5 222.398438 689.875 C 227.722656 693.246094 233.132812 696.464844 238.636719 699.527344 C 244.140625 702.59375 249.730469 705.492188 255.402344 708.234375 C 261.074219 710.984375 266.816406 713.558594 272.636719 715.972656 C 278.457031 718.386719 284.339844 720.632812 290.285156 722.710938 C 296.230469 724.789062 302.234375 726.691406 308.292969 728.425781 C 314.347656 730.15625 320.449219 731.714844 326.59375 733.101562 C 332.738281 734.480469 338.921875 735.6875 345.132812 736.71875 C 351.347656 737.746094 357.589844 738.597656 363.855469 739.269531 C 370.117188 739.941406 376.394531 740.433594 382.6875 740.746094 C 388.976562 741.054688 395.273438 741.191406 401.570312 741.140625 C 407.871094 741.09375 414.167969 740.863281 420.453125 740.453125 C 426.738281 740.042969 433.007812 739.457031 439.261719 738.6875 C 445.511719 737.917969 451.738281 736.972656 457.9375 735.847656 C 464.132812 734.722656 470.296875 733.421875 476.421875 731.941406 C 482.542969 730.464844 488.617188 728.8125 494.648438 726.988281 C 500.679688 725.160156 506.648438 723.164062 512.5625 720.992188 C 518.476562 718.824219 524.328125 716.492188 530.109375 713.988281 C 535.890625 711.484375 541.59375 708.816406 547.21875 705.988281 C 552.851562 703.15625 558.390625 700.167969 563.847656 697.019531 C 569.304688 693.871094 574.664062 690.570312 579.933594 687.113281 C 585.199219 683.660156 590.367188 680.058594 595.425781 676.304688 C 600.488281 672.554688 605.4375 668.664062 610.277344 664.628906 C 615.113281 660.59375 619.832031 656.425781 624.429688 652.117188 C 629.03125 647.8125 633.503906 643.378906 637.847656 638.820312 C 642.191406 634.257812 646.40625 629.574219 650.480469 624.773438 C 654.554688 619.96875 658.492188 615.054688 662.289062 610.03125 C 666.085938 605.003906 669.730469 599.871094 673.234375 594.632812 C 676.734375 589.394531 680.085938 584.0625 683.28125 578.628906 C 686.472656 573.203125 689.511719 567.6875 692.390625 562.085938 C 695.273438 556.480469 697.992188 550.800781 700.542969 545.042969 C 703.097656 539.285156 705.484375 533.457031 707.703125 527.5625 C 709.925781 521.667969 711.972656 515.710938 713.855469 509.699219 C 715.734375 503.6875 717.4375 497.625 718.96875 491.515625 C 720.5 485.402344 721.859375 479.253906 723.039062 473.066406 C 724.214844 466.878906 725.222656 460.664062 726.042969 454.417969 C 726.867188 448.171875 727.507812 441.90625 727.976562 435.625 C 728.4375 429.34375 728.726562 423.050781 728.828125 416.75 C 728.929688 410.453125 728.855469 404.15625 728.597656 397.863281 C 728.339844 391.566406 727.902344 385.289062 727.285156 379.015625 C 726.671875 372.746094 725.878906 366.503906 724.902344 360.277344 C 723.925781 354.054688 722.773438 347.867188 721.445312 341.703125 C 720.117188 335.546875 718.609375 329.433594 716.933594 323.363281 C 715.25 317.289062 713.398438 311.273438 711.375 305.304688 C 709.351562 299.339844 707.15625 293.4375 704.796875 287.601562 C 702.433594 281.757812 699.902344 275.988281 697.210938 270.296875 C 694.519531 264.601562 691.664062 258.988281 688.648438 253.457031 C 685.636719 247.925781 682.464844 242.484375 679.136719 237.136719 C 675.8125 231.785156 672.335938 226.535156 668.707031 221.382812 C 665.082031 216.234375 661.308594 211.191406 657.390625 206.257812 C 653.476562 201.324219 649.425781 196.507812 645.230469 191.804688 C 641.039062 187.101562 636.714844 182.523438 632.261719 178.066406 C 628.449219 174.253906 624.546875 170.539062 620.554688 166.917969 C 616.558594 163.300781 612.480469 159.78125 608.3125 156.359375 C 604.148438 152.9375 599.898438 149.621094 595.570312 146.410156 C 591.242188 143.195312 586.835938 140.09375 582.351562 137.097656 C 577.871094 134.101562 573.320312 131.21875 568.695312 128.441406 C 564.074219 125.671875 559.386719 123.015625 554.636719 120.472656 C 549.878906 117.925781 545.066406 115.5 540.199219 113.195312 C 535.324219 110.886719 530.398438 108.703125 525.421875 106.636719 C 520.441406 104.570312 515.414062 102.625 510.34375 100.808594 C 505.269531 98.988281 500.152344 97.296875 494.996094 95.726562 C 489.835938 94.160156 484.644531 92.71875 479.414062 91.40625 C 474.1875 90.09375 468.929688 88.90625 463.644531 87.851562 C 458.359375 86.796875 453.050781 85.867188 447.71875 85.074219 C 442.390625 84.28125 437.039062 83.617188 431.675781 83.082031 C 426.3125 82.546875 420.941406 82.144531 415.554688 81.878906 C 410.171875 81.605469 404.785156 81.46875 399.394531 81.464844 M 399.394531 40.28125 C 405.457031 40.28125 411.519531 40.433594 417.578125 40.726562 C 423.636719 41.027344 429.679688 41.472656 435.71875 42.070312 C 441.753906 42.660156 447.773438 43.40625 453.773438 44.292969 C 459.773438 45.183594 465.746094 46.222656 471.695312 47.40625 C 477.644531 48.585938 483.558594 49.914062 489.445312 51.390625 C 495.328125 52.863281 501.171875 54.480469 506.976562 56.242188 C 512.777344 58 518.539062 59.90625 524.246094 61.945312 C 529.957031 63.992188 535.617188 66.171875 541.21875 68.492188 C 546.820312 70.816406 552.367188 73.273438 557.847656 75.867188 C 563.332031 78.457031 568.75 81.183594 574.097656 84.046875 C 579.449219 86.90625 584.722656 89.894531 589.925781 93.007812 C 595.125 96.128906 600.25 99.375 605.292969 102.742188 C 610.335938 106.113281 615.296875 109.601562 620.164062 113.214844 C 625.039062 116.828125 629.816406 120.558594 634.503906 124.410156 C 639.195312 128.257812 643.785156 132.21875 648.28125 136.289062 C 652.773438 140.363281 657.164062 144.546875 661.457031 148.832031 C 665.742188 153.121094 669.925781 157.511719 673.996094 162.007812 C 678.070312 166.5 682.03125 171.089844 685.878906 175.78125 C 689.726562 180.46875 693.457031 185.25 697.070312 190.121094 C 700.683594 194.992188 704.175781 199.949219 707.542969 204.992188 C 710.914062 210.035156 714.15625 215.160156 717.277344 220.363281 C 720.394531 225.5625 723.382812 230.84375 726.242188 236.191406 C 729.101562 241.535156 731.828125 246.953125 734.421875 252.4375 C 737.011719 257.921875 739.472656 263.464844 741.792969 269.066406 C 744.113281 274.671875 746.296875 280.328125 748.339844 286.039062 C 750.382812 291.753906 752.285156 297.507812 754.046875 303.3125 C 755.804688 309.113281 757.421875 314.960938 758.894531 320.84375 C 760.371094 326.726562 761.699219 332.640625 762.882812 338.59375 C 764.066406 344.539062 765.101562 350.515625 765.992188 356.515625 C 766.878906 362.515625 767.625 368.535156 768.21875 374.570312 C 768.8125 380.605469 769.257812 386.652344 769.558594 392.710938 C 769.855469 398.769531 770.003906 404.828125 770.003906 410.894531 C 770.003906 416.957031 769.855469 423.023438 769.558594 429.078125 C 769.257812 435.140625 768.8125 441.183594 768.21875 447.222656 C 767.625 453.257812 766.878906 459.273438 765.992188 465.273438 C 765.101562 471.273438 764.066406 477.25 762.882812 483.199219 C 761.699219 489.144531 760.371094 495.0625 758.894531 500.945312 C 757.421875 506.828125 755.804688 512.671875 754.046875 518.476562 C 752.285156 524.285156 750.382812 530.039062 748.339844 535.75 C 746.296875 541.460938 744.113281 547.117188 741.792969 552.722656 C 739.472656 558.324219 737.011719 563.867188 734.421875 569.351562 C 731.828125 574.835938 729.101562 580.25 726.242188 585.597656 C 723.382812 590.949219 720.394531 596.222656 717.277344 601.425781 C 714.15625 606.628906 710.914062 611.75 707.542969 616.792969 C 704.175781 621.835938 700.683594 626.796875 697.070312 631.664062 C 693.457031 636.539062 689.726562 641.320312 685.878906 646.007812 C 682.03125 650.695312 678.070312 655.285156 673.996094 659.78125 C 669.925781 664.273438 665.742188 668.667969 661.457031 672.957031 C 657.164062 677.246094 652.773438 681.425781 648.28125 685.5 C 643.785156 689.574219 639.195312 693.53125 634.503906 697.378906 C 629.816406 701.226562 625.039062 704.957031 620.164062 708.570312 C 615.296875 712.1875 610.335938 715.675781 605.292969 719.046875 C 600.25 722.414062 595.125 725.660156 589.925781 728.777344 C 584.722656 731.898438 579.449219 734.886719 574.097656 737.742188 C 568.75 740.601562 563.332031 743.328125 557.847656 745.921875 C 552.367188 748.519531 546.820312 750.972656 541.21875 753.292969 C 535.617188 755.617188 529.957031 757.800781 524.246094 759.839844 C 518.539062 761.886719 512.777344 763.785156 506.976562 765.546875 C 501.171875 767.304688 495.328125 768.925781 489.445312 770.398438 C 483.558594 771.871094 477.644531 773.199219 471.695312 774.382812 C 465.746094 775.566406 459.773438 776.601562 453.773438 777.496094 C 447.773438 778.386719 441.753906 779.128906 435.71875 779.722656 C 429.679688 780.3125 423.636719 780.765625 417.578125 781.058594 C 411.519531 781.355469 405.457031 781.503906 399.394531 781.503906 C 393.328125 781.503906 387.265625 781.355469 381.207031 781.058594 C 375.148438 780.765625 369.105469 780.3125 363.066406 779.722656 C 357.03125 779.128906 351.011719 778.386719 345.011719 777.496094 C 339.015625 776.601562 333.039062 775.566406 327.09375 774.382812 C 321.140625 773.199219 315.226562 771.871094 309.339844 770.398438 C 303.457031 768.925781 297.613281 767.304688 291.808594 765.546875 C 286.007812 763.785156 280.246094 761.886719 274.539062 759.839844 C 268.828125 757.800781 263.167969 755.617188 257.566406 753.292969 C 251.964844 750.972656 246.417969 748.515625 240.9375 745.921875 C 235.453125 743.328125 230.035156 740.601562 224.6875 737.742188 C 219.335938 734.886719 214.0625 731.898438 208.863281 728.777344 C 203.660156 725.660156 198.535156 722.414062 193.492188 719.046875 C 188.449219 715.675781 183.492188 712.1875 178.621094 708.570312 C 173.75 704.957031 168.96875 701.226562 164.28125 697.378906 C 159.589844 693.53125 155 689.574219 150.503906 685.5 C 146.011719 681.425781 141.621094 677.246094 137.332031 672.957031 C 133.039062 668.667969 128.859375 664.273438 124.789062 659.78125 C 120.714844 655.285156 116.753906 650.695312 112.90625 646.007812 C 109.058594 641.320312 105.328125 636.539062 101.714844 631.664062 C 98.101562 626.796875 94.609375 621.835938 91.242188 616.792969 C 87.871094 611.75 84.628906 606.628906 81.507812 601.425781 C 78.390625 596.222656 75.402344 590.949219 72.542969 585.597656 C 69.683594 580.25 66.957031 574.835938 64.363281 569.351562 C 61.773438 563.867188 59.3125 558.324219 56.992188 552.722656 C 54.671875 547.117188 52.488281 541.460938 50.445312 535.75 C 48.40625 530.039062 46.5 524.285156 44.738281 518.476562 C 42.980469 512.671875 41.363281 506.828125 39.890625 500.945312 C 38.414062 495.0625 37.085938 489.144531 35.902344 483.199219 C 34.71875 477.25 33.683594 471.273438 32.792969 465.273438 C 31.90625 459.273438 31.160156 453.257812 30.566406 447.222656 C 29.972656 441.183594 29.527344 435.140625 29.226562 429.078125 C 28.929688 423.023438 28.78125 416.957031 28.78125 410.894531 C 28.789062 404.828125 28.945312 398.769531 29.246094 392.71875 C 29.550781 386.660156 30.003906 380.613281 30.605469 374.582031 C 31.203125 368.546875 31.949219 362.535156 32.84375 356.535156 C 33.738281 350.539062 34.78125 344.566406 35.972656 338.621094 C 37.160156 332.675781 38.492188 326.761719 39.96875 320.882812 C 41.449219 315 43.070312 309.160156 44.832031 303.359375 C 46.597656 297.558594 48.5 291.800781 50.546875 286.09375 C 52.59375 280.386719 54.78125 274.734375 57.101562 269.132812 C 59.425781 263.53125 61.886719 257.992188 64.484375 252.511719 C 67.074219 247.03125 69.804688 241.617188 72.664062 236.269531 C 75.523438 230.921875 78.515625 225.652344 81.632812 220.453125 C 84.753906 215.25 88 210.128906 91.367188 205.089844 C 94.738281 200.050781 98.230469 195.097656 101.839844 190.226562 C 105.453125 185.359375 109.183594 180.578125 113.03125 175.890625 C 116.882812 171.203125 120.839844 166.613281 124.910156 162.121094 C 128.984375 157.628906 133.164062 153.242188 137.453125 148.953125 C 141.738281 144.667969 146.128906 140.488281 150.621094 136.414062 C 155.113281 132.339844 159.703125 128.382812 164.390625 124.535156 C 169.078125 120.6875 173.851562 116.957031 178.722656 113.34375 C 183.59375 109.730469 188.550781 106.238281 193.589844 102.871094 C 198.628906 99.5 203.75 96.253906 208.949219 93.136719 C 214.148438 90.015625 219.421875 87.027344 224.769531 84.167969 C 230.117188 81.304688 235.527344 78.578125 241.007812 75.984375 C 246.492188 73.386719 252.027344 70.929688 257.628906 68.601562 C 263.230469 66.28125 268.882812 64.09375 274.59375 62.046875 C 280.300781 60.003906 286.054688 58.097656 291.855469 56.332031 C 297.65625 54.570312 303.5 52.949219 309.378906 51.472656 C 315.257812 49.992188 321.171875 48.660156 327.121094 47.472656 C 333.0625 46.285156 339.039062 45.246094 345.035156 44.351562 C 351.027344 43.453125 357.042969 42.707031 363.082031 42.105469 C 369.113281 41.507812 375.15625 41.050781 381.210938 40.75 C 387.269531 40.445312 393.328125 40.289062 399.394531 40.28125 Z M 399.394531 40.28125 "/></g><path style=" stroke:none;fill-rule:nonzero;fill:#1aa158;fill-opacity:1;" d="M 317.035156 328.539062 C 317.035156 329.882812 316.96875 331.234375 316.835938 332.574219 C 316.707031 333.914062 316.507812 335.246094 316.242188 336.570312 C 315.980469 337.890625 315.652344 339.199219 315.261719 340.488281 C 314.871094 341.78125 314.417969 343.050781 313.902344 344.296875 C 313.382812 345.539062 312.808594 346.757812 312.171875 347.945312 C 311.535156 349.136719 310.84375 350.292969 310.09375 351.414062 C 309.34375 352.535156 308.542969 353.617188 307.6875 354.660156 C 306.832031 355.703125 305.925781 356.699219 304.972656 357.652344 C 304.023438 358.609375 303.019531 359.511719 301.980469 360.367188 C 300.933594 361.226562 299.851562 362.027344 298.734375 362.777344 C 297.613281 363.527344 296.457031 364.21875 295.269531 364.855469 C 294.078125 365.488281 292.863281 366.066406 291.613281 366.582031 C 290.371094 367.09375 289.097656 367.550781 287.808594 367.941406 C 286.519531 368.335938 285.214844 368.664062 283.890625 368.925781 C 282.566406 369.1875 281.234375 369.382812 279.890625 369.519531 C 278.550781 369.652344 277.203125 369.714844 275.855469 369.714844 C 274.507812 369.714844 273.160156 369.652344 271.820312 369.519531 C 270.476562 369.382812 269.144531 369.1875 267.824219 368.925781 C 266.5 368.664062 265.195312 368.335938 263.902344 367.941406 C 262.613281 367.550781 261.339844 367.09375 260.097656 366.582031 C 258.851562 366.066406 257.632812 365.488281 256.445312 364.855469 C 255.253906 364.21875 254.097656 363.527344 252.976562 362.777344 C 251.859375 362.027344 250.777344 361.226562 249.730469 360.367188 C 248.691406 359.511719 247.691406 358.609375 246.738281 357.652344 C 245.785156 356.699219 244.878906 355.703125 244.023438 354.660156 C 243.167969 353.617188 242.367188 352.535156 241.617188 351.414062 C 240.867188 350.292969 240.175781 349.136719 239.539062 347.945312 C 238.902344 346.757812 238.328125 345.539062 237.808594 344.296875 C 237.296875 343.050781 236.839844 341.78125 236.449219 340.488281 C 236.058594 339.199219 235.730469 337.890625 235.46875 336.570312 C 235.203125 335.246094 235.007812 333.914062 234.875 332.574219 C 234.742188 331.234375 234.679688 329.882812 234.679688 328.539062 C 234.679688 327.191406 234.742188 325.839844 234.875 324.5 C 235.007812 323.160156 235.203125 321.828125 235.46875 320.5 C 235.730469 319.179688 236.058594 317.871094 236.449219 316.585938 C 236.839844 315.292969 237.296875 314.023438 237.808594 312.777344 C 238.328125 311.53125 238.902344 310.3125 239.539062 309.125 C 240.175781 307.9375 240.867188 306.78125 241.617188 305.660156 C 242.367188 304.535156 243.167969 303.457031 244.023438 302.414062 C 244.878906 301.367188 245.785156 300.371094 246.738281 299.421875 C 247.691406 298.464844 248.691406 297.5625 249.730469 296.707031 C 250.777344 295.847656 251.859375 295.046875 252.976562 294.296875 C 254.097656 293.546875 255.253906 292.855469 256.445312 292.21875 C 257.632812 291.585938 258.851562 291.007812 260.097656 290.492188 C 261.339844 289.976562 262.613281 289.523438 263.902344 289.132812 C 265.195312 288.738281 266.5 288.410156 267.824219 288.152344 C 269.144531 287.886719 270.476562 287.6875 271.820312 287.554688 C 273.160156 287.421875 274.507812 287.355469 275.855469 287.355469 C 277.203125 287.355469 278.550781 287.421875 279.890625 287.554688 C 281.234375 287.6875 282.566406 287.886719 283.890625 288.152344 C 285.214844 288.410156 286.519531 288.738281 287.808594 289.132812 C 289.097656 289.523438 290.371094 289.976562 291.613281 290.492188 C 292.863281 291.007812 294.078125 291.585938 295.269531 292.21875 C 296.457031 292.855469 297.613281 293.546875 298.734375 294.296875 C 299.851562 295.046875 300.933594 295.847656 301.980469 296.707031 C 303.019531 297.5625 304.023438 298.464844 304.972656 299.421875 C 305.925781 300.371094 306.832031 301.367188 307.6875 302.414062 C 308.542969 303.457031 309.34375 304.535156 310.09375 305.660156 C 310.84375 306.78125 311.535156 307.9375 312.171875 309.125 C 312.808594 310.3125 313.382812 311.53125 313.902344 312.777344 C 314.417969 314.023438 314.871094 315.292969 315.261719 316.585938 C 315.652344 317.871094 315.980469 319.179688 316.242188 320.5 C 316.507812 321.828125 316.707031 323.160156 316.835938 324.5 C 316.96875 325.839844 317.035156 327.191406 317.035156 328.539062 Z M 317.035156 328.539062 "/><path style=" stroke:none;fill-rule:nonzero;fill:#1aa158;fill-opacity:1;" d="M 564.109375 328.539062 C 564.109375 329.882812 564.042969 331.234375 563.910156 332.574219 C 563.78125 333.914062 563.582031 335.246094 563.316406 336.570312 C 563.054688 337.890625 562.726562 339.199219 562.335938 340.488281 C 561.945312 341.78125 561.492188 343.050781 560.976562 344.296875 C 560.457031 345.539062 559.882812 346.757812 559.246094 347.945312 C 558.609375 349.136719 557.917969 350.292969 557.167969 351.414062 C 556.417969 352.535156 555.617188 353.617188 554.761719 354.660156 C 553.90625 355.703125 553 356.699219 552.046875 357.652344 C 551.097656 358.609375 550.09375 359.511719 549.054688 360.367188 C 548.007812 361.226562 546.925781 362.027344 545.808594 362.777344 C 544.6875 363.527344 543.53125 364.21875 542.34375 364.855469 C 541.152344 365.488281 539.9375 366.066406 538.6875 366.582031 C 537.445312 367.09375 536.171875 367.550781 534.882812 367.941406 C 533.59375 368.335938 532.289062 368.664062 530.960938 368.925781 C 529.640625 369.1875 528.308594 369.382812 526.964844 369.519531 C 525.625 369.652344 524.277344 369.714844 522.929688 369.714844 C 521.582031 369.714844 520.234375 369.652344 518.894531 369.519531 C 517.550781 369.382812 516.21875 369.1875 514.898438 368.925781 C 513.570312 368.664062 512.269531 368.335938 510.976562 367.941406 C 509.6875 367.550781 508.414062 367.09375 507.171875 366.582031 C 505.925781 366.066406 504.707031 365.488281 503.519531 364.855469 C 502.328125 364.21875 501.171875 363.527344 500.050781 362.777344 C 498.933594 362.027344 497.851562 361.226562 496.804688 360.367188 C 495.765625 359.511719 494.765625 358.609375 493.8125 357.652344 C 492.859375 356.699219 491.953125 355.703125 491.097656 354.660156 C 490.242188 353.617188 489.441406 352.535156 488.691406 351.414062 C 487.941406 350.292969 487.25 349.136719 486.613281 347.945312 C 485.976562 346.757812 485.402344 345.539062 484.882812 344.296875 C 484.367188 343.050781 483.914062 341.78125 483.523438 340.488281 C 483.132812 339.199219 482.804688 337.890625 482.542969 336.570312 C 482.277344 335.246094 482.082031 333.914062 481.949219 332.574219 C 481.816406 331.234375 481.753906 329.882812 481.753906 328.539062 C 481.753906 327.191406 481.816406 325.839844 481.949219 324.5 C 482.082031 323.160156 482.277344 321.828125 482.542969 320.5 C 482.804688 319.179688 483.132812 317.871094 483.523438 316.585938 C 483.914062 315.292969 484.367188 314.023438 484.882812 312.777344 C 485.402344 311.53125 485.976562 310.3125 486.613281 309.125 C 487.25 307.9375 487.941406 306.78125 488.691406 305.660156 C 489.441406 304.535156 490.242188 303.457031 491.097656 302.414062 C 491.953125 301.367188 492.859375 300.371094 493.8125 299.421875 C 494.765625 298.464844 495.765625 297.5625 496.804688 296.707031 C 497.851562 295.847656 498.933594 295.046875 500.050781 294.296875 C 501.171875 293.546875 502.328125 292.855469 503.519531 292.21875 C 504.707031 291.585938 505.925781 291.007812 507.171875 290.492188 C 508.414062 289.976562 509.6875 289.523438 510.976562 289.132812 C 512.269531 288.738281 513.570312 288.410156 514.898438 288.152344 C 516.21875 287.886719 517.550781 287.6875 518.894531 287.554688 C 520.234375 287.421875 521.582031 287.355469 522.929688 287.355469 C 524.277344 287.355469 525.625 287.421875 526.964844 287.554688 C 528.308594 287.6875 529.640625 287.886719 530.960938 288.152344 C 532.289062 288.410156 533.59375 288.738281 534.882812 289.132812 C 536.171875 289.523438 537.445312 289.976562 538.6875 290.492188 C 539.9375 291.007812 541.152344 291.585938 542.34375 292.21875 C 543.53125 292.855469 544.6875 293.546875 545.808594 294.296875 C 546.925781 295.046875 548.007812 295.847656 549.054688 296.707031 C 550.09375 297.5625 551.097656 298.464844 552.046875 299.421875 C 553 300.371094 553.90625 301.367188 554.761719 302.414062 C 555.617188 303.457031 556.417969 304.535156 557.167969 305.660156 C 557.917969 306.78125 558.609375 307.9375 559.246094 309.125 C 559.882812 310.3125 560.457031 311.53125 560.976562 312.777344 C 561.492188 314.023438 561.945312 315.292969 562.335938 316.585938 C 562.726562 317.871094 563.054688 319.179688 563.316406 320.5 C 563.582031 321.828125 563.78125 323.160156 563.910156 324.5 C 564.042969 325.839844 564.109375 327.191406 564.109375 328.539062 Z M 564.109375 328.539062 "/><path style=" stroke:none;fill-rule:nonzero;fill:#1aa158;fill-opacity:1;" d="M 210.132812 517.835938 C 209.65625 517.355469 209.207031 516.859375 208.777344 516.335938 C 208.347656 515.8125 207.945312 515.273438 207.574219 514.710938 C 207.195312 514.152344 206.851562 513.574219 206.53125 512.980469 C 206.214844 512.386719 205.929688 511.777344 205.667969 511.15625 C 205.410156 510.53125 205.183594 509.894531 204.988281 509.25 C 204.792969 508.605469 204.628906 507.953125 204.5 507.289062 C 204.363281 506.628906 204.269531 505.964844 204.203125 505.292969 C 204.132812 504.621094 204.101562 503.949219 204.101562 503.273438 C 204.101562 502.597656 204.132812 501.925781 204.203125 501.257812 C 204.269531 500.585938 204.363281 499.917969 204.5 499.257812 C 204.628906 498.597656 204.792969 497.945312 204.988281 497.296875 C 205.183594 496.652344 205.410156 496.015625 205.667969 495.394531 C 205.929688 494.773438 206.214844 494.164062 206.53125 493.570312 C 206.851562 492.972656 207.195312 492.394531 207.574219 491.835938 C 207.945312 491.277344 208.347656 490.734375 208.777344 490.210938 C 209.207031 489.691406 209.65625 489.191406 210.132812 488.714844 C 210.613281 488.238281 211.109375 487.785156 211.632812 487.359375 C 212.152344 486.929688 212.695312 486.527344 213.253906 486.15625 C 213.816406 485.78125 214.390625 485.433594 214.988281 485.113281 C 215.582031 484.800781 216.191406 484.511719 216.8125 484.253906 C 217.4375 483.992188 218.070312 483.765625 218.71875 483.570312 C 219.363281 483.378906 220.015625 483.210938 220.675781 483.082031 C 221.339844 482.949219 222.003906 482.851562 222.675781 482.785156 C 223.34375 482.71875 224.015625 482.683594 224.691406 482.683594 C 225.363281 482.683594 226.039062 482.71875 226.710938 482.785156 C 227.382812 482.851562 228.046875 482.949219 228.710938 483.082031 C 229.371094 483.210938 230.023438 483.378906 230.667969 483.570312 C 231.316406 483.765625 231.949219 483.992188 232.570312 484.253906 C 233.195312 484.511719 233.804688 484.800781 234.398438 485.113281 C 234.992188 485.433594 235.570312 485.78125 236.132812 486.15625 C 236.691406 486.527344 237.234375 486.929688 237.753906 487.359375 C 238.273438 487.785156 238.773438 488.238281 239.25 488.714844 C 241.871094 491.332031 244.558594 493.886719 247.308594 496.367188 C 250.054688 498.855469 252.863281 501.269531 255.730469 503.621094 C 258.59375 505.96875 261.519531 508.246094 264.496094 510.449219 C 267.472656 512.652344 270.503906 514.785156 273.585938 516.84375 C 276.671875 518.894531 279.800781 520.875 282.980469 522.78125 C 286.160156 524.679688 289.386719 526.503906 292.65625 528.25 C 295.925781 529.996094 299.234375 531.65625 302.582031 533.238281 C 305.9375 534.820312 309.324219 536.324219 312.746094 537.738281 C 316.171875 539.15625 319.628906 540.484375 323.117188 541.730469 C 326.605469 542.976562 330.125 544.136719 333.671875 545.214844 C 337.21875 546.289062 340.789062 547.273438 344.386719 548.171875 C 347.976562 549.070312 351.59375 549.882812 355.226562 550.601562 C 358.863281 551.328125 362.511719 551.960938 366.179688 552.503906 C 369.839844 553.046875 373.519531 553.5 377.207031 553.859375 C 380.894531 554.222656 384.589844 554.496094 388.289062 554.675781 C 391.992188 554.859375 395.695312 554.949219 399.402344 554.949219 C 403.109375 554.949219 406.808594 554.859375 410.507812 554.675781 C 414.210938 554.496094 417.90625 554.222656 421.59375 553.859375 C 425.28125 553.5 428.957031 553.046875 432.621094 552.503906 C 436.289062 551.960938 439.9375 551.328125 443.570312 550.605469 C 447.207031 549.882812 450.824219 549.070312 454.417969 548.171875 C 458.007812 547.273438 461.582031 546.289062 465.128906 545.214844 C 468.675781 544.136719 472.191406 542.976562 475.683594 541.730469 C 479.171875 540.484375 482.628906 539.15625 486.054688 537.738281 C 489.476562 536.324219 492.863281 534.820312 496.214844 533.238281 C 499.5625 531.65625 502.875 529.996094 506.144531 528.25 C 509.410156 526.503906 512.636719 524.679688 515.816406 522.78125 C 518.996094 520.875 522.128906 518.894531 525.210938 516.84375 C 528.292969 514.785156 531.324219 512.652344 534.300781 510.449219 C 537.28125 508.246094 540.203125 505.96875 543.070312 503.621094 C 545.933594 501.269531 548.742188 498.855469 551.492188 496.367188 C 554.238281 493.886719 556.925781 491.332031 559.550781 488.714844 C 560.023438 488.238281 560.527344 487.785156 561.046875 487.359375 C 561.566406 486.929688 562.105469 486.527344 562.667969 486.15625 C 563.226562 485.78125 563.808594 485.433594 564.402344 485.113281 C 565 484.800781 565.605469 484.511719 566.230469 484.253906 C 566.851562 483.992188 567.484375 483.765625 568.128906 483.570312 C 568.777344 483.378906 569.429688 483.210938 570.089844 483.082031 C 570.75 482.949219 571.417969 482.851562 572.085938 482.785156 C 572.761719 482.71875 573.433594 482.683594 574.109375 482.683594 C 574.78125 482.683594 575.453125 482.71875 576.125 482.785156 C 576.796875 482.851562 577.464844 482.949219 578.125 483.082031 C 578.785156 483.210938 579.441406 483.378906 580.085938 483.570312 C 580.726562 483.765625 581.363281 483.992188 581.988281 484.253906 C 582.609375 484.511719 583.21875 484.800781 583.816406 485.113281 C 584.40625 485.433594 584.984375 485.78125 585.546875 486.15625 C 586.109375 486.527344 586.648438 486.929688 587.167969 487.359375 C 587.691406 487.785156 588.191406 488.238281 588.667969 488.714844 C 589.140625 489.191406 589.597656 489.691406 590.023438 490.210938 C 590.449219 490.734375 590.851562 491.277344 591.226562 491.835938 C 591.601562 492.394531 591.949219 492.972656 592.265625 493.570312 C 592.585938 494.164062 592.875 494.773438 593.128906 495.394531 C 593.386719 496.015625 593.613281 496.652344 593.808594 497.296875 C 594.007812 497.945312 594.167969 498.597656 594.304688 499.257812 C 594.433594 499.917969 594.535156 500.585938 594.597656 501.257812 C 594.664062 501.925781 594.695312 502.597656 594.695312 503.273438 C 594.695312 503.949219 594.664062 504.621094 594.597656 505.292969 C 594.535156 505.964844 594.433594 506.628906 594.304688 507.289062 C 594.167969 507.953125 594.007812 508.605469 593.808594 509.25 C 593.613281 509.894531 593.386719 510.53125 593.128906 511.15625 C 592.875 511.777344 592.585938 512.386719 592.265625 512.980469 C 591.949219 513.574219 591.601562 514.152344 591.226562 514.710938 C 590.851562 515.273438 590.449219 515.8125 590.023438 516.335938 C 589.597656 516.859375 589.140625 517.355469 588.667969 517.835938 C 585.566406 520.925781 582.394531 523.941406 579.144531 526.878906 C 575.894531 529.816406 572.578125 532.671875 569.191406 535.449219 C 565.804688 538.222656 562.347656 540.914062 558.828125 543.519531 C 555.3125 546.125 551.726562 548.640625 548.085938 551.070312 C 544.445312 553.503906 540.742188 555.84375 536.988281 558.09375 C 533.226562 560.339844 529.414062 562.496094 525.550781 564.558594 C 521.691406 566.621094 517.777344 568.585938 513.820312 570.457031 C 509.859375 572.324219 505.855469 574.097656 501.808594 575.769531 C 497.761719 577.445312 493.675781 579.015625 489.550781 580.488281 C 485.425781 581.964844 481.269531 583.332031 477.078125 584.605469 C 472.890625 585.875 468.667969 587.039062 464.417969 588.101562 C 460.171875 589.167969 455.898438 590.125 451.605469 590.976562 C 447.308594 591.828125 442.996094 592.578125 438.664062 593.21875 C 434.332031 593.863281 429.984375 594.398438 425.625 594.820312 C 421.273438 595.25 416.90625 595.574219 412.53125 595.789062 C 408.15625 596.003906 403.78125 596.109375 399.402344 596.109375 C 395.023438 596.109375 390.644531 596.003906 386.273438 595.789062 C 381.898438 595.574219 377.53125 595.25 373.171875 594.820312 C 368.8125 594.398438 364.46875 593.863281 360.136719 593.21875 C 355.804688 592.578125 351.492188 591.828125 347.195312 590.976562 C 342.898438 590.125 338.628906 589.167969 334.378906 588.101562 C 330.128906 587.039062 325.914062 585.875 321.71875 584.605469 C 317.53125 583.332031 313.371094 581.964844 309.246094 580.488281 C 305.125 579.015625 301.039062 577.445312 296.992188 575.769531 C 292.945312 574.097656 288.945312 572.324219 284.984375 570.457031 C 281.019531 568.585938 277.113281 566.621094 273.246094 564.558594 C 269.382812 562.496094 265.574219 560.339844 261.816406 558.09375 C 258.054688 555.84375 254.359375 553.503906 250.714844 551.070312 C 247.070312 548.640625 243.488281 546.125 239.96875 543.519531 C 236.449219 540.914062 232.996094 538.222656 229.605469 535.449219 C 226.21875 532.671875 222.902344 529.816406 219.652344 526.878906 C 216.410156 523.941406 213.234375 520.925781 210.132812 517.835938 Z M 210.132812 517.835938 "/></g></svg>