<svg xmlns="http://www.w3.org/2000/svg" xmlns:xlink="http://www.w3.org/1999/xlink" width="1958" zoomAndPan="magnify" viewBox="0 0 1468.5 1017.74997" height="1357" preserveAspectRatio="xMidYMid meet" version="1.2"><defs><clipPath id="9775ecb6cc"><path d="M 271 596 L 389 596 L 389 818 L 271 818 Z M 271 596 "/></clipPath><clipPath id="224ef3b5da"><path d="M 348.589844 596.019531 L 388.21875 610.738281 L 311.351562 817.695312 L 271.722656 802.976562 Z M 348.589844 596.019531 "/></clipPath><clipPath id="93260aa173"><path d="M 268 624 L 374 624 L 374 837 L 268 837 Z M 268 624 "/></clipPath><clipPath id="a83f4cb048"><path d="M 340.097656 618.027344 L 379.726562 632.746094 L 301.933594 842.191406 L 262.304688 827.472656 Z M 340.097656 618.027344 "/></clipPath><clipPath id="46b94afb46"><path d="M 359.910156 625.386719 C 370.855469 629.453125 376.429688 641.617188 372.367188 652.5625 L 309.34375 822.238281 C 305.28125 833.179688 293.113281 838.757812 282.171875 834.691406 C 271.226562 830.628906 265.652344 818.460938 269.714844 807.519531 L 332.738281 637.84375 C 336.800781 626.898438 348.96875 621.324219 359.910156 625.386719 Z M 359.910156 625.386719 "/></clipPath><clipPath id="a13ab39110"><path d="M 316 473 L 466 473 L 466 623 L 316 623 Z M 316 473 "/></clipPath><clipPath id="043672a742"><path d="M 347.078125 451.875 L 487.8125 504.148438 L 435.746094 644.335938 L 295.007812 592.066406 Z M 347.078125 451.875 "/></clipPath><clipPath id="3e0c7b7200"><path d="M 417.171875 477.910156 L 417.179688 477.914062 C 455.890625 492.292969 475.617188 535.332031 461.238281 574.042969 C 446.859375 612.753906 403.824219 632.480469 365.109375 618.101562 L 365.101562 618.101562 C 326.390625 603.722656 306.664062 560.683594 321.042969 521.972656 C 335.421875 483.257812 378.460938 463.53125 417.171875 477.910156 Z M 417.171875 477.910156 "/></clipPath><clipPath id="9787eda8a7"><path d="M 324 481 L 458 481 L 458 615 L 324 615 Z M 324 481 "/></clipPath><clipPath id="47d6faf635"><path d="M 351.941406 462.476562 L 476.671875 508.804688 L 430.34375 633.535156 L 305.613281 587.207031 Z M 351.941406 462.476562 "/></clipPath><clipPath id="9cc04ae526"><path d="M 414.304688 485.640625 C 430.847656 491.785156 444.269531 504.246094 451.621094 520.285156 C 458.972656 536.324219 459.652344 554.628906 453.507812 571.171875 C 447.363281 587.710938 434.902344 601.132812 418.863281 608.484375 C 402.824219 615.835938 384.519531 616.515625 367.976562 610.371094 C 351.4375 604.230469 338.015625 591.765625 330.664062 575.726562 C 323.3125 559.6875 322.632812 541.382812 328.777344 524.84375 C 334.917969 508.300781 347.382812 494.878906 363.421875 487.527344 C 379.460938 480.175781 397.765625 479.496094 414.304688 485.640625 Z M 414.304688 485.640625 "/></clipPath><clipPath id="ab38772e2f"><path d="M 324 481 L 458 481 L 458 615 L 324 615 Z M 324 481 "/></clipPath><clipPath id="bcc31526f8"><path d="M 351.941406 462.476562 L 476.671875 508.804688 L 430.34375 633.535156 L 305.613281 587.207031 Z M 351.941406 462.476562 "/></clipPath><clipPath id="9182880d0a"><path d="M 414.304688 485.640625 C 430.847656 491.785156 444.269531 504.246094 451.621094 520.285156 C 458.972656 536.324219 459.652344 554.628906 453.507812 571.171875 C 447.363281 587.710938 434.902344 601.132812 418.863281 608.484375 C 402.824219 615.835938 384.519531 616.515625 367.976562 610.371094 C 351.4375 604.230469 338.015625 591.765625 330.664062 575.726562 C 323.3125 559.6875 322.632812 541.382812 328.777344 524.84375 C 334.917969 508.300781 347.382812 494.878906 363.421875 487.527344 C 379.460938 480.175781 397.765625 479.496094 414.304688 485.640625 Z M 414.304688 485.640625 "/></clipPath><clipPath id="ddb73acc5b"><path d="M 351.941406 462.476562 L 476.671875 508.804688 L 430.34375 633.535156 L 305.613281 587.207031 Z M 351.941406 462.476562 "/></clipPath><clipPath id="2e8d2e4774"><path d="M 351.941406 462.476562 L 476.671875 508.804688 L 430.34375 633.535156 L 305.613281 587.207031 Z M 351.941406 462.476562 "/></clipPath><linearGradient x1="-41.456631" gradientTransform="matrix(0.487234,0.180967,-0.180967,0.487234,351.93998,462.476473)" y1="128" x2="297.456535" gradientUnits="userSpaceOnUse" y2="128" id="019f1a8e1a"><stop style="stop-color:#ccf6ff;stop-opacity:1;" offset="0"/><stop style="stop-color:#ccf6ff;stop-opacity:1;" offset="0.125"/><stop style="stop-color:#cbf5fe;stop-opacity:1;" offset="0.128906"/><stop style="stop-color:#cbf5fe;stop-opacity:1;" offset="0.132812"/><stop style="stop-color:#caf4fd;stop-opacity:1;" offset="0.136719"/><stop style="stop-color:#caf4fd;stop-opacity:1;" offset="0.140625"/><stop style="stop-color:#caf3fc;stop-opacity:1;" offset="0.144531"/><stop style="stop-color:#c9f2fc;stop-opacity:1;" offset="0.148438"/><stop style="stop-color:#c9f2fb;stop-opacity:1;" offset="0.152344"/><stop style="stop-color:#c8f1fb;stop-opacity:1;" offset="0.15625"/><stop style="stop-color:#c8f1fb;stop-opacity:1;" offset="0.160156"/><stop style="stop-color:#c7f0fa;stop-opacity:1;" offset="0.164062"/><stop style="stop-color:#c7f0fa;stop-opacity:1;" offset="0.167969"/><stop style="stop-color:#c7eff9;stop-opacity:1;" offset="0.171875"/><stop style="stop-color:#c6eff9;stop-opacity:1;" offset="0.175781"/><stop style="stop-color:#c6eef8;stop-opacity:1;" offset="0.179688"/><stop style="stop-color:#c5eef8;stop-opacity:1;" offset="0.183594"/><stop style="stop-color:#c5edf7;stop-opacity:1;" offset="0.1875"/><stop style="stop-color:#c4edf7;stop-opacity:1;" offset="0.191406"/><stop style="stop-color:#c4ecf6;stop-opacity:1;" offset="0.195312"/><stop style="stop-color:#c4ebf6;stop-opacity:1;" offset="0.199219"/><stop style="stop-color:#c3ebf5;stop-opacity:1;" offset="0.203125"/><stop style="stop-color:#c3eaf5;stop-opacity:1;" offset="0.207031"/><stop style="stop-color:#c2eaf5;stop-opacity:1;" offset="0.210938"/><stop style="stop-color:#c2e9f4;stop-opacity:1;" offset="0.214844"/><stop style="stop-color:#c1e9f4;stop-opacity:1;" offset="0.21875"/><stop style="stop-color:#c1e8f3;stop-opacity:1;" offset="0.222656"/><stop style="stop-color:#c1e8f3;stop-opacity:1;" offset="0.226562"/><stop style="stop-color:#c0e7f2;stop-opacity:1;" offset="0.230469"/><stop style="stop-color:#c0e7f2;stop-opacity:1;" offset="0.234375"/><stop style="stop-color:#bfe6f1;stop-opacity:1;" offset="0.238281"/><stop style="stop-color:#bfe6f1;stop-opacity:1;" offset="0.242188"/><stop style="stop-color:#bee5f0;stop-opacity:1;" offset="0.246094"/><stop style="stop-color:#bee4f0;stop-opacity:1;" offset="0.25"/><stop style="stop-color:#bee4ef;stop-opacity:1;" offset="0.253906"/><stop style="stop-color:#bde3ef;stop-opacity:1;" offset="0.257812"/><stop style="stop-color:#bde3ef;stop-opacity:1;" offset="0.261719"/><stop style="stop-color:#bce2ee;stop-opacity:1;" offset="0.265625"/><stop style="stop-color:#bce2ee;stop-opacity:1;" offset="0.269531"/><stop style="stop-color:#bbe1ed;stop-opacity:1;" offset="0.273438"/><stop style="stop-color:#bbe1ed;stop-opacity:1;" offset="0.277344"/><stop style="stop-color:#bbe0ec;stop-opacity:1;" offset="0.28125"/><stop style="stop-color:#bae0ec;stop-opacity:1;" offset="0.285156"/><stop style="stop-color:#badfeb;stop-opacity:1;" offset="0.289062"/><stop style="stop-color:#b9dfeb;stop-opacity:1;" offset="0.292969"/><stop style="stop-color:#b9deea;stop-opacity:1;" offset="0.296875"/><stop style="stop-color:#b8ddea;stop-opacity:1;" offset="0.300781"/><stop style="stop-color:#b8ddea;stop-opacity:1;" offset="0.304688"/><stop style="stop-color:#b8dce9;stop-opacity:1;" offset="0.308594"/><stop style="stop-color:#b7dce9;stop-opacity:1;" offset="0.3125"/><stop style="stop-color:#b7dbe8;stop-opacity:1;" offset="0.316406"/><stop style="stop-color:#b6dbe8;stop-opacity:1;" offset="0.320312"/><stop style="stop-color:#b6dae7;stop-opacity:1;" offset="0.324219"/><stop style="stop-color:#b5dae7;stop-opacity:1;" offset="0.328125"/><stop style="stop-color:#b5d9e6;stop-opacity:1;" offset="0.332031"/><stop style="stop-color:#b5d9e6;stop-opacity:1;" offset="0.335938"/><stop style="stop-color:#b4d8e5;stop-opacity:1;" offset="0.339844"/><stop style="stop-color:#b4d8e5;stop-opacity:1;" offset="0.34375"/><stop style="stop-color:#b3d7e4;stop-opacity:1;" offset="0.347656"/><stop style="stop-color:#b3d6e4;stop-opacity:1;" offset="0.351562"/><stop style="stop-color:#b2d6e4;stop-opacity:1;" offset="0.355469"/><stop style="stop-color:#b2d5e3;stop-opacity:1;" offset="0.359375"/><stop style="stop-color:#b2d5e3;stop-opacity:1;" offset="0.363281"/><stop style="stop-color:#b1d4e2;stop-opacity:1;" offset="0.367188"/><stop style="stop-color:#b1d4e2;stop-opacity:1;" offset="0.371094"/><stop style="stop-color:#b0d3e1;stop-opacity:1;" offset="0.375"/><stop style="stop-color:#b0d3e1;stop-opacity:1;" offset="0.378906"/><stop style="stop-color:#afd2e0;stop-opacity:1;" offset="0.382812"/><stop style="stop-color:#afd2e0;stop-opacity:1;" offset="0.386719"/><stop style="stop-color:#afd1df;stop-opacity:1;" offset="0.390625"/><stop style="stop-color:#aed1df;stop-opacity:1;" offset="0.394531"/><stop style="stop-color:#aed0de;stop-opacity:1;" offset="0.398438"/><stop style="stop-color:#add0de;stop-opacity:1;" offset="0.402344"/><stop style="stop-color:#adcfde;stop-opacity:1;" offset="0.40625"/><stop style="stop-color:#accedd;stop-opacity:1;" offset="0.410156"/><stop style="stop-color:#accedd;stop-opacity:1;" offset="0.414062"/><stop style="stop-color:#accddc;stop-opacity:1;" offset="0.417969"/><stop style="stop-color:#abcddc;stop-opacity:1;" offset="0.421875"/><stop style="stop-color:#abccdb;stop-opacity:1;" offset="0.425781"/><stop style="stop-color:#aaccdb;stop-opacity:1;" offset="0.429687"/><stop style="stop-color:#aacbda;stop-opacity:1;" offset="0.433594"/><stop style="stop-color:#a9cbda;stop-opacity:1;" offset="0.4375"/><stop style="stop-color:#a9cad9;stop-opacity:1;" offset="0.441406"/><stop style="stop-color:#a9cad9;stop-opacity:1;" offset="0.445313"/><stop style="stop-color:#a8c9d8;stop-opacity:1;" offset="0.449219"/><stop style="stop-color:#a8c9d8;stop-opacity:1;" offset="0.453125"/><stop style="stop-color:#a7c8d8;stop-opacity:1;" offset="0.457031"/><stop style="stop-color:#a7c7d7;stop-opacity:1;" offset="0.460938"/><stop style="stop-color:#a6c7d7;stop-opacity:1;" offset="0.464844"/><stop style="stop-color:#a6c6d6;stop-opacity:1;" offset="0.46875"/><stop style="stop-color:#a6c6d6;stop-opacity:1;" offset="0.472656"/><stop style="stop-color:#a5c5d5;stop-opacity:1;" offset="0.476562"/><stop style="stop-color:#a5c5d5;stop-opacity:1;" offset="0.480469"/><stop style="stop-color:#a4c4d4;stop-opacity:1;" offset="0.484375"/><stop style="stop-color:#a4c4d4;stop-opacity:1;" offset="0.488281"/><stop style="stop-color:#a3c3d3;stop-opacity:1;" offset="0.492188"/><stop style="stop-color:#a3c3d3;stop-opacity:1;" offset="0.496094"/><stop style="stop-color:#a3c2d2;stop-opacity:1;" offset="0.5"/><stop style="stop-color:#a2c2d2;stop-opacity:1;" offset="0.503906"/><stop style="stop-color:#a2c1d2;stop-opacity:1;" offset="0.507812"/><stop style="stop-color:#a1c0d1;stop-opacity:1;" offset="0.511719"/><stop style="stop-color:#a1c0d1;stop-opacity:1;" offset="0.515625"/><stop style="stop-color:#a0bfd0;stop-opacity:1;" offset="0.519531"/><stop style="stop-color:#a0bfd0;stop-opacity:1;" offset="0.523438"/><stop style="stop-color:#a0becf;stop-opacity:1;" offset="0.527344"/><stop style="stop-color:#9fbecf;stop-opacity:1;" offset="0.53125"/><stop style="stop-color:#9fbdce;stop-opacity:1;" offset="0.535156"/><stop style="stop-color:#9ebdce;stop-opacity:1;" offset="0.539062"/><stop style="stop-color:#9ebccd;stop-opacity:1;" offset="0.542969"/><stop style="stop-color:#9dbccd;stop-opacity:1;" offset="0.546875"/><stop style="stop-color:#9dbbcd;stop-opacity:1;" offset="0.550781"/><stop style="stop-color:#9dbbcc;stop-opacity:1;" offset="0.554688"/><stop style="stop-color:#9cbacc;stop-opacity:1;" offset="0.558594"/><stop style="stop-color:#9cb9cb;stop-opacity:1;" offset="0.5625"/><stop style="stop-color:#9bb9cb;stop-opacity:1;" offset="0.566406"/><stop style="stop-color:#9bb8ca;stop-opacity:1;" offset="0.570312"/><stop style="stop-color:#9ab8ca;stop-opacity:1;" offset="0.574219"/><stop style="stop-color:#9ab7c9;stop-opacity:1;" offset="0.578125"/><stop style="stop-color:#9ab7c9;stop-opacity:1;" offset="0.582031"/><stop style="stop-color:#99b6c8;stop-opacity:1;" offset="0.585938"/><stop style="stop-color:#99b6c8;stop-opacity:1;" offset="0.589844"/><stop style="stop-color:#98b5c7;stop-opacity:1;" offset="0.59375"/><stop style="stop-color:#98b5c7;stop-opacity:1;" offset="0.597656"/><stop style="stop-color:#97b4c7;stop-opacity:1;" offset="0.601562"/><stop style="stop-color:#97b4c6;stop-opacity:1;" offset="0.605469"/><stop style="stop-color:#97b3c6;stop-opacity:1;" offset="0.609375"/><stop style="stop-color:#96b2c5;stop-opacity:1;" offset="0.613281"/><stop style="stop-color:#96b2c5;stop-opacity:1;" offset="0.617188"/><stop style="stop-color:#95b1c4;stop-opacity:1;" offset="0.621094"/><stop style="stop-color:#95b1c4;stop-opacity:1;" offset="0.625"/><stop style="stop-color:#94b0c3;stop-opacity:1;" offset="0.628906"/><stop style="stop-color:#94b0c3;stop-opacity:1;" offset="0.632812"/><stop style="stop-color:#94afc2;stop-opacity:1;" offset="0.636719"/><stop style="stop-color:#93afc2;stop-opacity:1;" offset="0.640625"/><stop style="stop-color:#93aec1;stop-opacity:1;" offset="0.644531"/><stop style="stop-color:#92aec1;stop-opacity:1;" offset="0.648438"/><stop style="stop-color:#92adc1;stop-opacity:1;" offset="0.652344"/><stop style="stop-color:#91adc0;stop-opacity:1;" offset="0.65625"/><stop style="stop-color:#91acc0;stop-opacity:1;" offset="0.660156"/><stop style="stop-color:#91abbf;stop-opacity:1;" offset="0.664062"/><stop style="stop-color:#90abbf;stop-opacity:1;" offset="0.667969"/><stop style="stop-color:#90aabe;stop-opacity:1;" offset="0.671875"/><stop style="stop-color:#8faabe;stop-opacity:1;" offset="0.675781"/><stop style="stop-color:#8fa9bd;stop-opacity:1;" offset="0.679688"/><stop style="stop-color:#8ea9bd;stop-opacity:1;" offset="0.683594"/><stop style="stop-color:#8ea8bc;stop-opacity:1;" offset="0.6875"/><stop style="stop-color:#8ea8bc;stop-opacity:1;" offset="0.691406"/><stop style="stop-color:#8da7bb;stop-opacity:1;" offset="0.695312"/><stop style="stop-color:#8da7bb;stop-opacity:1;" offset="0.699219"/><stop style="stop-color:#8ca6bb;stop-opacity:1;" offset="0.703125"/><stop style="stop-color:#8ca6ba;stop-opacity:1;" offset="0.707031"/><stop style="stop-color:#8ba5ba;stop-opacity:1;" offset="0.710938"/><stop style="stop-color:#8ba4b9;stop-opacity:1;" offset="0.714844"/><stop style="stop-color:#8ba4b9;stop-opacity:1;" offset="0.71875"/><stop style="stop-color:#8aa3b8;stop-opacity:1;" offset="0.722656"/><stop style="stop-color:#8aa3b8;stop-opacity:1;" offset="0.726562"/><stop style="stop-color:#89a2b7;stop-opacity:1;" offset="0.730469"/><stop style="stop-color:#89a2b7;stop-opacity:1;" offset="0.734375"/><stop style="stop-color:#88a1b6;stop-opacity:1;" offset="0.738281"/><stop style="stop-color:#88a1b6;stop-opacity:1;" offset="0.742188"/><stop style="stop-color:#88a0b6;stop-opacity:1;" offset="0.746094"/><stop style="stop-color:#87a0b5;stop-opacity:1;" offset="0.75"/><stop style="stop-color:#879fb5;stop-opacity:1;" offset="0.753906"/><stop style="stop-color:#869fb4;stop-opacity:1;" offset="0.757812"/><stop style="stop-color:#869eb4;stop-opacity:1;" offset="0.761719"/><stop style="stop-color:#859db3;stop-opacity:1;" offset="0.765625"/><stop style="stop-color:#859db3;stop-opacity:1;" offset="0.769531"/><stop style="stop-color:#859cb2;stop-opacity:1;" offset="0.773438"/><stop style="stop-color:#849cb2;stop-opacity:1;" offset="0.777344"/><stop style="stop-color:#849bb1;stop-opacity:1;" offset="0.78125"/><stop style="stop-color:#839bb1;stop-opacity:1;" offset="0.785156"/><stop style="stop-color:#839ab0;stop-opacity:1;" offset="0.789062"/><stop style="stop-color:#829ab0;stop-opacity:1;" offset="0.792969"/><stop style="stop-color:#8299b0;stop-opacity:1;" offset="0.796875"/><stop style="stop-color:#8299af;stop-opacity:1;" offset="0.800781"/><stop style="stop-color:#8198af;stop-opacity:1;" offset="0.804688"/><stop style="stop-color:#8198ae;stop-opacity:1;" offset="0.808594"/><stop style="stop-color:#8097ae;stop-opacity:1;" offset="0.8125"/><stop style="stop-color:#8096ad;stop-opacity:1;" offset="0.816406"/><stop style="stop-color:#7f96ad;stop-opacity:1;" offset="0.820312"/><stop style="stop-color:#7f95ac;stop-opacity:1;" offset="0.824219"/><stop style="stop-color:#7f95ac;stop-opacity:1;" offset="0.828125"/><stop style="stop-color:#7e94ab;stop-opacity:1;" offset="0.832031"/><stop style="stop-color:#7e94ab;stop-opacity:1;" offset="0.835938"/><stop style="stop-color:#7d93aa;stop-opacity:1;" offset="0.839844"/><stop style="stop-color:#7d93aa;stop-opacity:1;" offset="0.84375"/><stop style="stop-color:#7c92aa;stop-opacity:1;" offset="0.847656"/><stop style="stop-color:#7c92a9;stop-opacity:1;" offset="0.851562"/><stop style="stop-color:#7c91a9;stop-opacity:1;" offset="0.855469"/><stop style="stop-color:#7b91a8;stop-opacity:1;" offset="0.859375"/><stop style="stop-color:#7b90a8;stop-opacity:1;" offset="0.863281"/><stop style="stop-color:#7a8fa7;stop-opacity:1;" offset="0.867188"/><stop style="stop-color:#7a8fa7;stop-opacity:1;" offset="0.871094"/><stop style="stop-color:#798ea6;stop-opacity:1;" offset="0.875"/><stop style="stop-color:#798ea6;stop-opacity:1;" offset="1"/></linearGradient></defs><g id="98b181f3b6"><g style="fill:#000000;fill-opacity:1;"><g transform="translate(87.572023, 829.746518)"><path style="stroke:none" d="M 132.859375 -286.34375 C 160.734375 -286.34375 182.210938 -278.226562 197.296875 -262 C 212.378906 -245.78125 219.921875 -222.78125 219.921875 -193 C 219.921875 -165.894531 213.140625 -144.515625 199.578125 -128.859375 C 186.023438 -113.203125 166.648438 -104.039062 141.453125 -101.375 L 92.203125 -101.375 L 92.203125 0 L 16.03125 0 L 16.03125 -286.34375 Z M 126.5625 -169.515625 C 143.75 -169.515625 152.34375 -177.34375 152.34375 -193 C 152.34375 -208.269531 143.75 -216.285156 126.5625 -217.046875 L 92.203125 -217.046875 L 92.203125 -169.515625 Z M 126.5625 -169.515625 "/></g></g><g style="fill:#000000;fill-opacity:1;"><g transform="translate(295.703069, 829.746518)"><path style="stroke:none" d=""/></g></g><g style="fill:#000000;fill-opacity:1;"><g transform="translate(340.59375, 829.746518)"><path style="stroke:none" d=""/></g></g><g style="fill:#000000;fill-opacity:1;"><g transform="translate(385.580236, 829.746518)"><path style="stroke:none" d="M 214.765625 -84.765625 L 143.171875 -97.9375 C 141.648438 -88.382812 138.3125 -80.9375 133.15625 -75.59375 C 128 -70.25 121.601562 -67.578125 113.96875 -67.578125 C 105.1875 -67.578125 98.410156 -71.679688 93.640625 -79.890625 C 88.867188 -88.097656 86.484375 -99.648438 86.484375 -114.546875 C 86.484375 -129.429688 88.867188 -140.976562 93.640625 -149.1875 C 98.410156 -157.394531 105.1875 -161.5 113.96875 -161.5 C 121.601562 -161.5 128 -158.828125 133.15625 -153.484375 C 138.3125 -148.140625 141.648438 -140.695312 143.171875 -131.15625 L 214.765625 -144.328125 C 210.941406 -172.578125 200.25 -194.429688 182.6875 -209.890625 C 165.125 -225.359375 142.21875 -233.09375 113.96875 -233.09375 C 81.507812 -233.09375 56.40625 -222.78125 38.65625 -202.15625 C 20.90625 -181.539062 12.03125 -152.335938 12.03125 -114.546875 C 12.03125 -76.742188 20.90625 -47.53125 38.65625 -26.90625 C 56.40625 -6.289062 81.507812 4.015625 113.96875 4.015625 C 142.21875 4.015625 165.125 -3.710938 182.6875 -19.171875 C 200.25 -34.640625 210.941406 -56.503906 214.765625 -84.765625 Z M 214.765625 -84.765625 "/></g></g><g style="fill:#000000;fill-opacity:1;"><g transform="translate(588.524568, 829.746518)"><path style="stroke:none" d="M 16.03125 0 L 16.03125 -286.34375 L 92.203125 -286.34375 L 92.203125 -159.203125 L 143.75 -229.078125 L 219.921875 -229.078125 L 148.328125 -130 L 221.0625 0 L 142.03125 0 L 103.65625 -68.71875 L 92.203125 -54.40625 L 92.203125 0 Z M 16.03125 0 "/></g></g><g style="fill:#000000;fill-opacity:1;"><g transform="translate(769.706, 829.746518)"><path style="stroke:none" d="M 215.90625 -114.546875 C 215.90625 -110.335938 215.617188 -105.941406 215.046875 -101.359375 C 214.472656 -96.785156 213.804688 -92.398438 213.046875 -88.203125 L 89.90625 -88.203125 C 94.488281 -71.773438 102.890625 -63.5625 115.109375 -63.5625 C 125.421875 -63.5625 132.101562 -69.097656 135.15625 -80.171875 L 209.03125 -65.859375 C 201.78125 -43.710938 190.039062 -26.53125 173.8125 -14.3125 C 157.582031 -2.09375 137.632812 4.015625 113.96875 4.015625 C 81.507812 4.015625 56.40625 -6.289062 38.65625 -26.90625 C 20.90625 -47.53125 12.03125 -76.742188 12.03125 -114.546875 C 12.03125 -152.335938 20.90625 -181.539062 38.65625 -202.15625 C 56.40625 -222.78125 81.507812 -233.09375 113.96875 -233.09375 C 146.800781 -233.09375 172 -222.78125 189.5625 -202.15625 C 207.125 -181.539062 215.90625 -152.335938 215.90625 -114.546875 Z M 138.015625 -136.296875 C 132.296875 -155.773438 124.28125 -165.515625 113.96875 -165.515625 C 100.21875 -165.515625 91.628906 -155.773438 88.203125 -136.296875 Z M 138.015625 -136.296875 "/></g></g><g style="fill:#000000;fill-opacity:1;"><g transform="translate(974.368352, 829.746518)"><path style="stroke:none" d="M 146.03125 -233.09375 C 158.25 -233.09375 169.414062 -229.75 179.53125 -223.0625 C 189.65625 -216.382812 197.769531 -206.171875 203.875 -192.421875 L 152.90625 -139.171875 C 143.75 -152.523438 132.296875 -159.203125 118.546875 -159.203125 C 112.054688 -159.203125 106.519531 -153.664062 101.9375 -142.59375 C 97.351562 -131.53125 94.109375 -115.6875 92.203125 -95.0625 L 92.203125 0 L 16.03125 0 L 16.03125 -229.078125 L 92.203125 -229.078125 L 92.203125 -194.71875 C 103.273438 -219.53125 121.21875 -232.320312 146.03125 -233.09375 Z M 146.03125 -233.09375 "/></g></g><g style="fill:#000000;fill-opacity:1;"><g transform="translate(1158.414896, 829.746518)"><path style="stroke:none" d="M 57.265625 -84.1875 L 16.03125 -38.9375 C 30.539062 -25.582031 46.289062 -15.082031 63.28125 -7.4375 C 80.269531 0.195312 97.359375 3.820312 114.546875 3.4375 C 146.234375 3.820312 170.570312 -2.472656 187.5625 -15.453125 C 204.550781 -28.441406 213.046875 -46.769531 213.046875 -70.4375 C 213.046875 -87.625 209.703125 -101.082031 203.015625 -110.8125 C 196.335938 -120.550781 187.84375 -127.898438 177.53125 -132.859375 C 167.226562 -137.828125 156.15625 -141.171875 144.3125 -142.890625 C 132.476562 -144.609375 121.40625 -145.65625 111.09375 -146.03125 C 100.789062 -146.414062 92.296875 -147.082031 85.609375 -148.03125 C 78.929688 -148.988281 75.59375 -151.378906 75.59375 -155.203125 C 75.59375 -163.597656 87.429688 -167.796875 111.109375 -167.796875 C 129.816406 -167.796875 147.757812 -160.351562 164.9375 -145.46875 L 205.59375 -190.140625 C 193.757812 -203.503906 179.15625 -214.003906 161.78125 -221.640625 C 144.414062 -229.273438 126.1875 -233.09375 107.09375 -233.09375 C 75.789062 -233.09375 51.546875 -226.597656 34.359375 -213.609375 C 17.179688 -200.628906 8.59375 -182.304688 8.59375 -158.640625 C 8.59375 -141.835938 11.929688 -128.566406 18.609375 -118.828125 C 25.296875 -109.097656 33.789062 -101.84375 44.09375 -97.0625 C 54.40625 -92.289062 65.476562 -89.140625 77.3125 -87.609375 C 89.144531 -86.085938 100.21875 -85.132812 110.53125 -84.75 C 120.84375 -84.375 129.335938 -83.515625 136.015625 -82.171875 C 142.691406 -80.835938 146.03125 -78.070312 146.03125 -73.875 C 146.03125 -65.863281 134.390625 -61.859375 111.109375 -61.859375 C 102.328125 -61.859375 93.160156 -63.765625 83.609375 -67.578125 C 74.066406 -71.398438 65.285156 -76.9375 57.265625 -84.1875 Z M 57.265625 -84.1875 "/></g></g><g style="fill:#0e344f;fill-opacity:1;"><g transform="translate(281.958086, 454.831263)"><path style="stroke:none" d="M 70.34375 0 C 63.070312 0 56.113281 -2.253906 49.46875 -6.765625 C 42.820312 -11.285156 37.363281 -18.429688 33.09375 -28.203125 C 28.832031 -37.984375 26.703125 -50.898438 26.703125 -66.953125 C 26.703125 -84.253906 30.523438 -105.503906 38.171875 -130.703125 C 45.828125 -155.910156 58.929688 -185.566406 77.484375 -219.671875 C 66.453125 -222.929688 56.109375 -223.492188 46.453125 -221.359375 C 36.796875 -219.234375 29.082031 -215.285156 23.3125 -209.515625 C 17.550781 -203.753906 14.671875 -196.859375 14.671875 -188.828125 C 14.671875 -183.566406 16.050781 -179.113281 18.8125 -175.46875 C 21.570312 -171.832031 24.957031 -170.015625 28.96875 -170.015625 C 30.71875 -166.003906 30.835938 -161.175781 29.328125 -155.53125 C 27.828125 -149.894531 24.882812 -144.503906 20.5 -139.359375 C 16.113281 -134.222656 10.472656 -129.898438 3.578125 -126.390625 C -3.316406 -122.878906 -11.28125 -121.125 -20.3125 -121.125 C -30.59375 -121.125 -39.242188 -123.691406 -46.265625 -128.828125 C -53.285156 -133.972656 -58.550781 -140.804688 -62.0625 -149.328125 C -65.570312 -157.859375 -67.328125 -166.890625 -67.328125 -176.421875 C -67.328125 -190.460938 -64.003906 -203.6875 -57.359375 -216.09375 C -50.710938 -228.507812 -41.304688 -239.546875 -29.140625 -249.203125 C -16.984375 -258.859375 -2.691406 -266.378906 13.734375 -271.765625 C 30.160156 -277.160156 48.273438 -279.859375 68.078125 -279.859375 C 86.390625 -279.859375 99.554688 -277.410156 107.578125 -272.515625 C 115.609375 -267.628906 120.125 -260.546875 121.125 -251.265625 C 122.125 -241.992188 121.117188 -230.960938 118.109375 -218.171875 C 110.335938 -184.816406 104.507812 -158.609375 100.625 -139.546875 C 96.738281 -120.492188 95.234375 -107.078125 96.109375 -99.296875 C 96.984375 -91.523438 100.679688 -87.640625 107.203125 -87.640625 C 114.222656 -87.640625 120.804688 -94.097656 126.953125 -107.015625 C 133.097656 -119.929688 140.179688 -140.929688 148.203125 -170.015625 C 152.710938 -186.066406 156.410156 -200.425781 159.296875 -213.09375 C 162.179688 -225.757812 165.128906 -236.476562 168.140625 -245.25 C 171.148438 -254.03125 175.035156 -260.738281 179.796875 -265.375 C 184.566406 -270.019531 191.085938 -272.34375 199.359375 -272.34375 C 207.640625 -272.34375 215.101562 -269.957031 221.75 -265.1875 C 228.394531 -260.425781 231.71875 -253.40625 231.71875 -244.125 C 231.71875 -235.34375 229.582031 -226.625 225.3125 -217.96875 C 221.050781 -209.320312 216.410156 -200.296875 211.390625 -190.890625 C 206.378906 -181.492188 202.617188 -171.023438 200.109375 -159.484375 C 195.097656 -134.410156 193.71875 -116.164062 195.96875 -104.75 C 198.226562 -93.34375 201.488281 -87.640625 205.75 -87.640625 C 210.769531 -87.640625 215.035156 -90.585938 218.546875 -96.484375 C 222.054688 -102.378906 225.441406 -110.34375 228.703125 -120.375 C 231.960938 -130.40625 235.472656 -141.3125 239.234375 -153.09375 C 254.023438 -200.738281 271.078125 -235.03125 290.390625 -255.96875 C 309.703125 -276.914062 331.519531 -287.390625 355.84375 -287.390625 C 369.882812 -287.390625 380.976562 -284.566406 389.125 -278.921875 C 397.28125 -273.273438 402.738281 -266.25 405.5 -257.84375 C 408.257812 -249.445312 408.382812 -240.984375 405.875 -232.453125 C 403.363281 -223.929688 398.597656 -216.847656 391.578125 -211.203125 C 384.554688 -205.566406 375.28125 -202.75 363.75 -202.75 C 357.476562 -202.75 352.835938 -203.375 349.828125 -204.625 C 346.816406 -205.882812 344.179688 -207.140625 341.921875 -208.390625 C 339.671875 -209.640625 336.410156 -210.265625 332.140625 -210.265625 C 321.609375 -210.265625 313.082031 -206.441406 306.5625 -198.796875 C 300.039062 -191.148438 294.773438 -181.117188 290.765625 -168.703125 C 286.753906 -156.296875 283.179688 -142.628906 280.046875 -127.703125 C 276.910156 -112.785156 273.585938 -97.800781 270.078125 -82.75 C 266.566406 -67.707031 262.050781 -53.976562 256.53125 -41.5625 C 251.019531 -29.15625 243.75 -19.125 234.71875 -11.46875 C 225.695312 -3.820312 214.160156 0 200.109375 0 C 191.585938 0 183.691406 -2.316406 176.421875 -6.953125 C 169.148438 -11.597656 163.753906 -19.5 160.234375 -30.65625 C 156.722656 -41.8125 156.472656 -56.921875 159.484375 -75.984375 C 160.242188 -80.742188 159.679688 -83.9375 157.796875 -85.5625 C 155.910156 -87.195312 153.585938 -87.257812 150.828125 -85.75 C 148.078125 -84.25 145.945312 -80.992188 144.4375 -75.984375 C 138.675781 -56.421875 131.53125 -41.125 123 -30.09375 C 114.476562 -19.0625 105.640625 -11.285156 96.484375 -6.765625 C 87.328125 -2.253906 78.613281 0 70.34375 0 Z M 70.34375 0 "/></g></g><g style="fill:#0e344f;fill-opacity:1;"><g transform="translate(571.556601, 454.831263)"><path style="stroke:none" d="M 39.875 0 C 27.082031 0 17.425781 -5.265625 10.90625 -15.796875 C 4.382812 -26.328125 1.125 -39.992188 1.125 -56.796875 C 1.125 -67.328125 2.441406 -78.546875 5.078125 -90.453125 C 7.710938 -102.367188 11.597656 -114.09375 16.734375 -125.625 C 21.878906 -137.164062 28.335938 -147.640625 36.109375 -157.046875 C 43.878906 -166.453125 52.90625 -173.972656 63.1875 -179.609375 C 73.46875 -185.253906 85.128906 -188.078125 98.171875 -188.078125 C 105.703125 -188.078125 111.535156 -187.382812 115.671875 -186 C 119.804688 -184.625 122.9375 -182.929688 125.0625 -180.921875 C 127.195312 -178.921875 129.015625 -177.226562 130.515625 -175.84375 C 132.023438 -174.46875 134.035156 -173.78125 136.546875 -173.78125 C 140.804688 -173.78125 144.253906 -174.972656 146.890625 -177.359375 C 149.523438 -179.742188 152.472656 -182.125 155.734375 -184.5 C 158.992188 -186.882812 163.503906 -188.078125 169.265625 -188.078125 C 174.285156 -188.078125 177.734375 -186.820312 179.609375 -184.3125 C 181.492188 -181.8125 182.4375 -178.425781 182.4375 -174.15625 C 182.4375 -167.132812 180.492188 -160.175781 176.609375 -153.28125 C 172.722656 -146.382812 168.644531 -137.421875 164.375 -126.390625 C 158.101562 -112.597656 155.78125 -102.066406 157.40625 -94.796875 C 159.039062 -87.523438 164 -83.890625 172.28125 -83.890625 C 178.800781 -83.890625 184.441406 -85.582031 189.203125 -88.96875 C 193.972656 -92.351562 198.238281 -97.050781 202 -103.0625 C 204 -106.070312 206.566406 -107.140625 209.703125 -106.265625 C 212.835938 -105.390625 215.46875 -103.695312 217.59375 -101.1875 C 219.726562 -98.675781 220.171875 -96.164062 218.921875 -93.65625 C 214.410156 -84.882812 209.582031 -75.171875 204.4375 -64.515625 C 199.300781 -53.859375 193.597656 -43.640625 187.328125 -33.859375 C 181.054688 -24.078125 173.90625 -15.988281 165.875 -9.59375 C 157.851562 -3.195312 148.578125 0 138.046875 0 C 125.003906 0 115.785156 -5.265625 110.390625 -15.796875 C 105.003906 -26.328125 103.441406 -39.367188 105.703125 -54.921875 L 104.1875 -54.921875 C 96.664062 -39.617188 87.390625 -26.640625 76.359375 -15.984375 C 65.328125 -5.328125 53.164062 0 39.875 0 Z M 77.484375 -77.859375 C 84.003906 -77.859375 89.707031 -79.738281 94.59375 -83.5 C 99.488281 -87.269531 103.316406 -91.847656 106.078125 -97.234375 C 108.835938 -102.628906 110.21875 -107.957031 110.21875 -113.21875 C 110.21875 -119.488281 108.460938 -124.378906 104.953125 -127.890625 C 101.441406 -131.398438 96.675781 -133.15625 90.65625 -133.15625 C 84.132812 -133.15625 78.488281 -131.398438 73.71875 -127.890625 C 68.957031 -124.378906 65.257812 -119.925781 62.625 -114.53125 C 60 -109.144531 58.6875 -103.691406 58.6875 -98.171875 C 58.6875 -91.898438 60.378906 -86.945312 63.765625 -83.3125 C 67.148438 -79.675781 71.722656 -77.859375 77.484375 -77.859375 Z M 77.484375 -77.859375 "/></g></g><g style="fill:#0e344f;fill-opacity:1;"><g transform="translate(764.87302, 454.831263)"><path style="stroke:none" d="M 31.96875 0 C 18.675781 0 9.394531 -3.695312 4.125 -11.09375 C -1.132812 -18.488281 -3.765625 -27.707031 -3.765625 -38.75 C -3.765625 -48.269531 -2.570312 -58.671875 -0.1875 -69.953125 C 2.195312 -81.242188 5.269531 -92.28125 9.03125 -103.0625 C 21.820312 -139.675781 32.664062 -170.394531 41.5625 -195.21875 C 50.46875 -220.050781 59.054688 -238.796875 67.328125 -251.453125 C 75.609375 -264.117188 84.765625 -270.453125 94.796875 -270.453125 C 102.566406 -270.453125 107.453125 -267.503906 109.453125 -261.609375 C 111.460938 -255.722656 109.582031 -246.882812 103.8125 -235.09375 C 93.53125 -214.28125 84.691406 -195.035156 77.296875 -177.359375 C 69.898438 -159.679688 64.070312 -142.941406 59.8125 -127.140625 C 57.800781 -119.867188 56.359375 -112.910156 55.484375 -106.265625 C 54.609375 -99.617188 55.421875 -94.226562 57.921875 -90.09375 C 60.429688 -85.957031 65.445312 -83.890625 72.96875 -83.890625 C 79.488281 -83.890625 85.191406 -85.582031 90.078125 -88.96875 C 94.972656 -92.351562 99.425781 -97.050781 103.4375 -103.0625 C 105.445312 -106.070312 108.082031 -107.140625 111.34375 -106.265625 C 114.601562 -105.390625 117.296875 -103.695312 119.421875 -101.1875 C 121.554688 -98.675781 121.875 -96.164062 120.375 -93.65625 C 117.863281 -89.644531 114.851562 -83.816406 111.34375 -76.171875 C 107.832031 -68.523438 103.628906 -60.375 98.734375 -51.71875 C 93.847656 -43.070312 88.144531 -34.796875 81.625 -26.890625 C 75.101562 -18.992188 67.765625 -12.535156 59.609375 -7.515625 C 51.460938 -2.503906 42.25 0 31.96875 0 Z M 31.96875 0 "/></g></g><g style="fill:#0e344f;fill-opacity:1;"><g transform="translate(859.650747, 454.831263)"><path style="stroke:none" d="M 31.96875 0 C 18.675781 0 9.394531 -3.695312 4.125 -11.09375 C -1.132812 -18.488281 -3.765625 -27.707031 -3.765625 -38.75 C -3.765625 -48.269531 -2.570312 -58.671875 -0.1875 -69.953125 C 2.195312 -81.242188 5.269531 -92.28125 9.03125 -103.0625 C 21.820312 -139.675781 32.664062 -170.394531 41.5625 -195.21875 C 50.46875 -220.050781 59.054688 -238.796875 67.328125 -251.453125 C 75.609375 -264.117188 84.765625 -270.453125 94.796875 -270.453125 C 102.566406 -270.453125 107.453125 -267.503906 109.453125 -261.609375 C 111.460938 -255.722656 109.582031 -246.882812 103.8125 -235.09375 C 93.53125 -214.28125 84.691406 -195.035156 77.296875 -177.359375 C 69.898438 -159.679688 64.070312 -142.941406 59.8125 -127.140625 C 57.800781 -119.867188 56.359375 -112.910156 55.484375 -106.265625 C 54.609375 -99.617188 55.421875 -94.226562 57.921875 -90.09375 C 60.429688 -85.957031 65.445312 -83.890625 72.96875 -83.890625 C 79.488281 -83.890625 85.191406 -85.582031 90.078125 -88.96875 C 94.972656 -92.351562 99.425781 -97.050781 103.4375 -103.0625 C 105.445312 -106.070312 108.082031 -107.140625 111.34375 -106.265625 C 114.601562 -105.390625 117.296875 -103.695312 119.421875 -101.1875 C 121.554688 -98.675781 121.875 -96.164062 120.375 -93.65625 C 117.863281 -89.644531 114.851562 -83.816406 111.34375 -76.171875 C 107.832031 -68.523438 103.628906 -60.375 98.734375 -51.71875 C 93.847656 -43.070312 88.144531 -34.796875 81.625 -26.890625 C 75.101562 -18.992188 67.765625 -12.535156 59.609375 -7.515625 C 51.460938 -2.503906 42.25 0 31.96875 0 Z M 31.96875 0 "/></g></g><g style="fill:#0e344f;fill-opacity:1;"><g transform="translate(954.428473, 454.831263)"><path style="stroke:none" d="M 195.59375 -103.0625 C 197.101562 -105.320312 199.488281 -106.140625 202.75 -105.515625 C 206.007812 -104.890625 208.828125 -103.507812 211.203125 -101.375 C 213.585938 -99.238281 214.03125 -96.664062 212.53125 -93.65625 C 207.007812 -82.125 201.675781 -70.84375 196.53125 -59.8125 C 191.394531 -48.78125 185.941406 -38.75 180.171875 -29.71875 C 174.410156 -20.6875 168.019531 -13.472656 161 -8.078125 C 153.976562 -2.691406 145.953125 0 136.921875 0 C 131.398438 0 127.007812 -2.757812 123.75 -8.28125 C 115.726562 17.550781 107.328125 38.238281 98.546875 53.78125 C 89.773438 69.332031 79.992188 80.617188 69.203125 87.640625 C 58.421875 94.660156 46.007812 98.171875 31.96875 98.171875 C 12.15625 98.171875 -3.203125 92.96875 -14.109375 82.5625 C -25.015625 72.15625 -30.46875 57.925781 -30.46875 39.875 C -30.46875 30.34375 -29.085938 22.128906 -26.328125 15.234375 C -23.566406 8.335938 -20.429688 2.882812 -16.921875 -1.125 C -13.410156 -5.132812 -10.273438 -7.703125 -7.515625 -8.828125 C -4.765625 -9.960938 -3.265625 -9.523438 -3.015625 -7.515625 C -2.003906 1.753906 1.882812 9.398438 8.65625 15.421875 C 15.425781 21.441406 24.578125 24.328125 36.109375 24.078125 C 47.140625 23.828125 57.359375 20.628906 66.765625 14.484375 C 76.171875 8.335938 83.945312 0.125 90.09375 -10.15625 C 96.238281 -20.4375 99.9375 -31.597656 101.1875 -43.640625 C 101.6875 -47.898438 100.554688 -50.28125 97.796875 -50.78125 C 95.035156 -51.28125 92.65625 -49.148438 90.65625 -44.390625 C 85.632812 -31.847656 78.609375 -21.941406 69.578125 -14.671875 C 60.554688 -7.398438 49.898438 -3.765625 37.609375 -3.765625 C 27.578125 -3.765625 18.863281 -7.085938 11.46875 -13.734375 C 4.070312 -20.378906 0.375 -30.847656 0.375 -45.140625 C 0.375 -50.910156 0.8125 -58.9375 1.6875 -69.21875 C 2.570312 -79.5 4.894531 -90.78125 8.65625 -103.0625 C 17.425781 -130.644531 26.265625 -151.707031 35.171875 -166.25 C 44.078125 -180.800781 53.796875 -188.078125 64.328125 -188.078125 C 72.097656 -188.078125 75.984375 -183.0625 75.984375 -173.03125 C 75.984375 -165.007812 74.539062 -156.859375 71.65625 -148.578125 C 68.769531 -140.304688 65.945312 -132.21875 63.1875 -124.3125 C 60.4375 -116.414062 59.0625 -108.707031 59.0625 -101.1875 C 59.0625 -95.914062 60.125 -91.773438 62.25 -88.765625 C 64.382812 -85.765625 68.585938 -84.265625 74.859375 -84.265625 C 83.128906 -84.265625 89.769531 -86.707031 94.78125 -91.59375 C 99.800781 -96.476562 103.816406 -103.3125 106.828125 -112.09375 C 114.597656 -136.664062 122.492188 -155.472656 130.515625 -168.515625 C 138.546875 -181.554688 147.328125 -188.078125 156.859375 -188.078125 C 162.367188 -188.078125 166.566406 -186.820312 169.453125 -184.3125 C 172.335938 -181.8125 173.78125 -177.550781 173.78125 -171.53125 C 173.78125 -163.75 171.332031 -154.40625 166.4375 -143.5 C 161.550781 -132.59375 155.847656 -117.609375 149.328125 -98.546875 C 146.316406 -88.015625 146.128906 -80.679688 148.765625 -76.546875 C 151.398438 -72.410156 154.847656 -70.34375 159.109375 -70.34375 C 164.878906 -70.34375 171.023438 -73.851562 177.546875 -80.875 C 184.066406 -87.894531 190.082031 -95.289062 195.59375 -103.0625 Z M 195.59375 -103.0625 "/></g></g><g clip-rule="nonzero" clip-path="url(#9775ecb6cc)"><g clip-rule="nonzero" clip-path="url(#224ef3b5da)"><path style=" stroke:none;fill-rule:nonzero;fill:#000000;fill-opacity:1;" d="M 348.589844 596.019531 L 388.21875 610.738281 L 311.347656 817.707031 L 271.71875 802.988281 Z M 348.589844 596.019531 "/></g></g><g clip-rule="nonzero" clip-path="url(#93260aa173)"><g clip-rule="nonzero" clip-path="url(#a83f4cb048)"><g clip-rule="nonzero" clip-path="url(#46b94afb46)"><path style=" stroke:none;fill-rule:nonzero;fill:#000000;fill-opacity:1;" d="M 340.097656 618.027344 L 379.726562 632.746094 L 301.992188 842.039062 L 262.363281 827.320312 Z M 340.097656 618.027344 "/></g></g></g><g clip-rule="nonzero" clip-path="url(#a13ab39110)"><g clip-rule="nonzero" clip-path="url(#043672a742)"><g clip-rule="nonzero" clip-path="url(#3e0c7b7200)"><path style=" stroke:none;fill-rule:nonzero;fill:#0e344f;fill-opacity:1;" d="M 347.078125 451.875 L 487.265625 503.945312 L 435.199219 644.132812 L 295.007812 592.066406 Z M 347.078125 451.875 "/></g></g></g><g clip-rule="nonzero" clip-path="url(#9787eda8a7)"><g clip-rule="nonzero" clip-path="url(#47d6faf635)"><g clip-rule="nonzero" clip-path="url(#9cc04ae526)"><path style=" stroke:none;fill-rule:nonzero;fill:#ffffff;fill-opacity:1;" d="M 351.941406 462.476562 L 476.671875 508.804688 L 430.34375 633.535156 L 305.613281 587.207031 Z M 351.941406 462.476562 "/></g></g></g><g clip-rule="nonzero" clip-path="url(#ab38772e2f)"><g clip-rule="nonzero" clip-path="url(#bcc31526f8)"><g clip-rule="nonzero" clip-path="url(#9182880d0a)"><g clip-rule="nonzero" clip-path="url(#ddb73acc5b)"><g clip-rule="nonzero" clip-path="url(#2e8d2e4774)"><path style=" stroke:none;fill-rule:nonzero;fill:url(#019f1a8e1a);" d="M 339.242188 434.773438 L 277.910156 599.90625 L 443.042969 661.238281 L 504.375 496.105469 Z M 339.242188 434.773438 "/></g></g></g></g></g></g></svg>