<svg xmlns="http://www.w3.org/2000/svg" xmlns:xlink="http://www.w3.org/1999/xlink" width="500" zoomAndPan="magnify" viewBox="0 0 375 374.999991" height="500" preserveAspectRatio="xMidYMid meet" version="1.2"><defs><clipPath id="1a8a717b75"><path d="M 49.851562 49.851562 L 325.851562 49.851562 L 325.851562 325.851562 L 49.851562 325.851562 Z M 49.851562 49.851562 "/></clipPath><clipPath id="a34efad93f"><path d="M 325.851562 187.851562 C 325.851562 190.109375 325.796875 192.367188 325.6875 194.625 C 325.574219 196.878906 325.410156 199.128906 325.1875 201.378906 C 324.964844 203.625 324.691406 205.867188 324.359375 208.101562 C 324.027344 210.335938 323.640625 212.558594 323.199219 214.773438 C 322.757812 216.988281 322.265625 219.191406 321.714844 221.382812 C 321.167969 223.574219 320.566406 225.75 319.910156 227.910156 C 319.253906 230.074219 318.546875 232.214844 317.785156 234.34375 C 317.023438 236.46875 316.210938 238.574219 315.347656 240.664062 C 314.484375 242.75 313.566406 244.8125 312.601562 246.855469 C 311.636719 248.894531 310.621094 250.914062 309.558594 252.90625 C 308.492188 254.894531 307.378906 256.859375 306.21875 258.796875 C 305.058594 260.734375 303.847656 262.644531 302.59375 264.519531 C 301.339844 266.398438 300.039062 268.246094 298.695312 270.058594 C 297.347656 271.871094 295.960938 273.652344 294.527344 275.398438 C 293.09375 277.144531 291.621094 278.855469 290.101562 280.527344 C 288.585938 282.199219 287.03125 283.835938 285.433594 285.433594 C 283.835938 287.03125 282.199219 288.585938 280.527344 290.101562 C 278.855469 291.621094 277.144531 293.09375 275.398438 294.527344 C 273.652344 295.960938 271.871094 297.347656 270.058594 298.695312 C 268.246094 300.039062 266.398438 301.339844 264.519531 302.59375 C 262.644531 303.847656 260.734375 305.058594 258.796875 306.21875 C 256.859375 307.378906 254.894531 308.492188 252.90625 309.558594 C 250.914062 310.621094 248.894531 311.636719 246.855469 312.601562 C 244.8125 313.566406 242.75 314.484375 240.664062 315.347656 C 238.574219 316.210938 236.46875 317.023438 234.34375 317.785156 C 232.214844 318.546875 230.074219 319.253906 227.910156 319.910156 C 225.75 320.566406 223.574219 321.167969 221.382812 321.714844 C 219.191406 322.265625 216.988281 322.757812 214.773438 323.199219 C 212.558594 323.640625 210.335938 324.027344 208.101562 324.359375 C 205.867188 324.691406 203.625 324.964844 201.378906 325.1875 C 199.128906 325.410156 196.878906 325.574219 194.625 325.6875 C 192.367188 325.796875 190.109375 325.851562 187.851562 325.851562 C 185.59375 325.851562 183.335938 325.796875 181.082031 325.6875 C 178.824219 325.574219 176.574219 325.410156 174.324219 325.1875 C 172.078125 324.964844 169.835938 324.691406 167.601562 324.359375 C 165.367188 324.027344 163.144531 323.640625 160.929688 323.199219 C 158.714844 322.757812 156.511719 322.265625 154.320312 321.714844 C 152.128906 321.167969 149.953125 320.566406 147.792969 319.910156 C 145.632812 319.253906 143.488281 318.546875 141.359375 317.785156 C 139.234375 317.023438 137.128906 316.210938 135.042969 315.347656 C 132.953125 314.484375 130.890625 313.566406 128.847656 312.601562 C 126.808594 311.636719 124.789062 310.621094 122.800781 309.558594 C 120.808594 308.492188 118.84375 307.378906 116.90625 306.21875 C 114.96875 305.058594 113.0625 303.847656 111.183594 302.59375 C 109.304688 301.339844 107.460938 300.039062 105.644531 298.695312 C 103.832031 297.347656 102.050781 295.960938 100.304688 294.527344 C 98.558594 293.09375 96.851562 291.621094 95.175781 290.101562 C 93.503906 288.585938 91.867188 287.03125 90.269531 285.433594 C 88.675781 283.835938 87.117188 282.199219 85.601562 280.527344 C 84.082031 278.855469 82.609375 277.144531 81.175781 275.398438 C 79.742188 273.652344 78.355469 271.871094 77.007812 270.058594 C 75.664062 268.246094 74.363281 266.398438 73.109375 264.519531 C 71.855469 262.644531 70.644531 260.734375 69.484375 258.796875 C 68.324219 256.859375 67.210938 254.894531 66.148438 252.90625 C 65.082031 250.914062 64.066406 248.894531 63.101562 246.855469 C 62.136719 244.8125 61.222656 242.75 60.355469 240.664062 C 59.492188 238.574219 58.679688 236.46875 57.917969 234.34375 C 57.15625 232.214844 56.449219 230.074219 55.792969 227.910156 C 55.136719 225.75 54.535156 223.574219 53.988281 221.382812 C 53.4375 219.191406 52.945312 216.988281 52.503906 214.773438 C 52.0625 212.558594 51.675781 210.335938 51.34375 208.101562 C 51.015625 205.867188 50.738281 203.625 50.515625 201.378906 C 50.296875 199.128906 50.128906 196.878906 50.019531 194.625 C 49.90625 192.367188 49.851562 190.109375 49.851562 187.851562 C 49.851562 185.59375 49.90625 183.335938 50.019531 181.082031 C 50.128906 178.824219 50.296875 176.574219 50.515625 174.324219 C 50.738281 172.078125 51.015625 169.835938 51.34375 167.601562 C 51.675781 165.367188 52.0625 163.144531 52.503906 160.929688 C 52.945312 158.714844 53.4375 156.511719 53.988281 154.320312 C 54.535156 152.128906 55.136719 149.953125 55.792969 147.792969 C 56.449219 145.632812 57.15625 143.488281 57.917969 141.359375 C 58.679688 139.234375 59.492188 137.128906 60.355469 135.042969 C 61.222656 132.953125 62.136719 130.890625 63.101562 128.847656 C 64.066406 126.808594 65.082031 124.789062 66.148438 122.800781 C 67.210938 120.808594 68.324219 118.84375 69.484375 116.90625 C 70.644531 114.96875 71.855469 113.0625 73.109375 111.183594 C 74.363281 109.304688 75.664062 107.460938 77.007812 105.644531 C 78.355469 103.832031 79.742188 102.050781 81.175781 100.304688 C 82.609375 98.558594 84.082031 96.851562 85.601562 95.175781 C 87.117188 93.503906 88.675781 91.867188 90.269531 90.269531 C 91.867188 88.675781 93.503906 87.117188 95.175781 85.601562 C 96.851562 84.082031 98.558594 82.609375 100.304688 81.175781 C 102.050781 79.742188 103.832031 78.355469 105.644531 77.007812 C 107.460938 75.664062 109.304688 74.363281 111.183594 73.109375 C 113.0625 71.855469 114.96875 70.644531 116.90625 69.484375 C 118.84375 68.324219 120.808594 67.210938 122.800781 66.148438 C 124.789062 65.082031 126.808594 64.066406 128.847656 63.101562 C 130.890625 62.136719 132.953125 61.222656 135.042969 60.355469 C 137.128906 59.492188 139.234375 58.679688 141.359375 57.917969 C 143.488281 57.15625 145.632812 56.449219 147.792969 55.792969 C 149.953125 55.136719 152.128906 54.535156 154.320312 53.988281 C 156.511719 53.4375 158.714844 52.945312 160.929688 52.503906 C 163.144531 52.0625 165.367188 51.675781 167.601562 51.34375 C 169.835938 51.015625 172.078125 50.738281 174.324219 50.515625 C 176.574219 50.296875 178.824219 50.128906 181.082031 50.019531 C 183.335938 49.90625 185.59375 49.851562 187.851562 49.851562 C 190.109375 49.851562 192.367188 49.90625 194.625 50.019531 C 196.878906 50.128906 199.128906 50.296875 201.378906 50.515625 C 203.625 50.738281 205.867188 51.015625 208.101562 51.34375 C 210.335938 51.675781 212.558594 52.0625 214.773438 52.503906 C 216.988281 52.945312 219.191406 53.4375 221.382812 53.988281 C 223.574219 54.535156 225.75 55.136719 227.910156 55.792969 C 230.074219 56.449219 232.214844 57.15625 234.34375 57.917969 C 236.46875 58.679688 238.574219 59.492188 240.664062 60.355469 C 242.75 61.222656 244.8125 62.136719 246.855469 63.101562 C 248.894531 64.066406 250.914062 65.082031 252.90625 66.148438 C 254.894531 67.210938 256.859375 68.324219 258.796875 69.484375 C 260.734375 70.644531 262.644531 71.855469 264.519531 73.109375 C 266.398438 74.363281 268.246094 75.664062 270.058594 77.007812 C 271.871094 78.355469 273.652344 79.742188 275.398438 81.175781 C 277.144531 82.609375 278.855469 84.082031 280.527344 85.601562 C 282.199219 87.117188 283.835938 88.675781 285.433594 90.269531 C 287.03125 91.867188 288.585938 93.503906 290.101562 95.175781 C 291.621094 96.851562 293.09375 98.558594 294.527344 100.304688 C 295.960938 102.050781 297.347656 103.832031 298.695312 105.644531 C 300.039062 107.460938 301.339844 109.304688 302.59375 111.183594 C 303.847656 113.0625 305.058594 114.96875 306.21875 116.90625 C 307.378906 118.84375 308.492188 120.808594 309.558594 122.800781 C 310.621094 124.789062 311.636719 126.808594 312.601562 128.847656 C 313.566406 130.890625 314.484375 132.953125 315.347656 135.042969 C 316.210938 137.128906 317.023438 139.234375 317.785156 141.359375 C 318.546875 143.488281 319.253906 145.632812 319.910156 147.792969 C 320.566406 149.953125 321.167969 152.128906 321.714844 154.320312 C 322.265625 156.511719 322.757812 158.714844 323.199219 160.929688 C 323.640625 163.144531 324.027344 165.367188 324.359375 167.601562 C 324.691406 169.835938 324.964844 172.078125 325.1875 174.324219 C 325.410156 176.574219 325.574219 178.824219 325.6875 181.082031 C 325.796875 183.335938 325.851562 185.59375 325.851562 187.851562 Z M 325.851562 187.851562 "/></clipPath><linearGradient x1="0.0499008" gradientTransform="matrix(0.899023,0,0,0.899023,49.851897,49.851899)" y1="307.049893" x2="307.050605" gradientUnits="userSpaceOnUse" y2="0.0506004" id="e3047a4605"><stop style="stop-color:#fec053;stop-opacity:1;" offset="0"/><stop style="stop-color:#fec053;stop-opacity:1;" offset="0.125"/><stop style="stop-color:#fec053;stop-opacity:1;" offset="0.140625"/><stop style="stop-color:#fec053;stop-opacity:1;" offset="0.144531"/><stop style="stop-color:#febf53;stop-opacity:1;" offset="0.148437"/><stop style="stop-color:#febd52;stop-opacity:1;" offset="0.152344"/><stop style="stop-color:#febb52;stop-opacity:1;" offset="0.15625"/><stop style="stop-color:#fdb952;stop-opacity:1;" offset="0.160156"/><stop style="stop-color:#fdb852;stop-opacity:1;" offset="0.164062"/><stop style="stop-color:#fdb652;stop-opacity:1;" offset="0.167969"/><stop style="stop-color:#fdb451;stop-opacity:1;" offset="0.171875"/><stop style="stop-color:#fdb251;stop-opacity:1;" offset="0.175781"/><stop style="stop-color:#fdb051;stop-opacity:1;" offset="0.179687"/><stop style="stop-color:#fdae51;stop-opacity:1;" offset="0.183594"/><stop style="stop-color:#fcac50;stop-opacity:1;" offset="0.1875"/><stop style="stop-color:#fcaa50;stop-opacity:1;" offset="0.191406"/><stop style="stop-color:#fca950;stop-opacity:1;" offset="0.195312"/><stop style="stop-color:#fca750;stop-opacity:1;" offset="0.199219"/><stop style="stop-color:#fca54f;stop-opacity:1;" offset="0.203125"/><stop style="stop-color:#fca34f;stop-opacity:1;" offset="0.207031"/><stop style="stop-color:#fca14f;stop-opacity:1;" offset="0.210937"/><stop style="stop-color:#fc9f4f;stop-opacity:1;" offset="0.214844"/><stop style="stop-color:#fb9d4e;stop-opacity:1;" offset="0.21875"/><stop style="stop-color:#fb9b4e;stop-opacity:1;" offset="0.222656"/><stop style="stop-color:#fb9a4e;stop-opacity:1;" offset="0.226562"/><stop style="stop-color:#fb984e;stop-opacity:1;" offset="0.230469"/><stop style="stop-color:#fb964d;stop-opacity:1;" offset="0.234375"/><stop style="stop-color:#fb944d;stop-opacity:1;" offset="0.238281"/><stop style="stop-color:#fb924d;stop-opacity:1;" offset="0.242187"/><stop style="stop-color:#fa904d;stop-opacity:1;" offset="0.246094"/><stop style="stop-color:#fa8e4c;stop-opacity:1;" offset="0.25"/><stop style="stop-color:#fa8c4c;stop-opacity:1;" offset="0.253906"/><stop style="stop-color:#fa8b4c;stop-opacity:1;" offset="0.257812"/><stop style="stop-color:#fa894c;stop-opacity:1;" offset="0.261719"/><stop style="stop-color:#fa874b;stop-opacity:1;" offset="0.265625"/><stop style="stop-color:#fa854b;stop-opacity:1;" offset="0.269531"/><stop style="stop-color:#f9834b;stop-opacity:1;" offset="0.273437"/><stop style="stop-color:#f9814b;stop-opacity:1;" offset="0.277344"/><stop style="stop-color:#f97f4a;stop-opacity:1;" offset="0.28125"/><stop style="stop-color:#f97d4a;stop-opacity:1;" offset="0.285156"/><stop style="stop-color:#f97c4a;stop-opacity:1;" offset="0.289062"/><stop style="stop-color:#f97a4a;stop-opacity:1;" offset="0.292969"/><stop style="stop-color:#f97849;stop-opacity:1;" offset="0.296875"/><stop style="stop-color:#f87649;stop-opacity:1;" offset="0.300781"/><stop style="stop-color:#f87449;stop-opacity:1;" offset="0.304687"/><stop style="stop-color:#f87249;stop-opacity:1;" offset="0.308594"/><stop style="stop-color:#f87048;stop-opacity:1;" offset="0.3125"/><stop style="stop-color:#f86e48;stop-opacity:1;" offset="0.316406"/><stop style="stop-color:#f86d48;stop-opacity:1;" offset="0.320312"/><stop style="stop-color:#f86b48;stop-opacity:1;" offset="0.324219"/><stop style="stop-color:#f76947;stop-opacity:1;" offset="0.328125"/><stop style="stop-color:#f76747;stop-opacity:1;" offset="0.332031"/><stop style="stop-color:#f76547;stop-opacity:1;" offset="0.335937"/><stop style="stop-color:#f76347;stop-opacity:1;" offset="0.339844"/><stop style="stop-color:#f76147;stop-opacity:1;" offset="0.34375"/><stop style="stop-color:#f75f46;stop-opacity:1;" offset="0.347656"/><stop style="stop-color:#f75e46;stop-opacity:1;" offset="0.351562"/><stop style="stop-color:#f65c46;stop-opacity:1;" offset="0.355469"/><stop style="stop-color:#f65a46;stop-opacity:1;" offset="0.359375"/><stop style="stop-color:#f65845;stop-opacity:1;" offset="0.363281"/><stop style="stop-color:#f65645;stop-opacity:1;" offset="0.367187"/><stop style="stop-color:#f65445;stop-opacity:1;" offset="0.371094"/><stop style="stop-color:#f65245;stop-opacity:1;" offset="0.375"/><stop style="stop-color:#f65044;stop-opacity:1;" offset="0.378906"/><stop style="stop-color:#f54e44;stop-opacity:1;" offset="0.382812"/><stop style="stop-color:#f54d44;stop-opacity:1;" offset="0.386719"/><stop style="stop-color:#f54b44;stop-opacity:1;" offset="0.390625"/><stop style="stop-color:#f54943;stop-opacity:1;" offset="0.394531"/><stop style="stop-color:#f54743;stop-opacity:1;" offset="0.398437"/><stop style="stop-color:#f54543;stop-opacity:1;" offset="0.402344"/><stop style="stop-color:#f54343;stop-opacity:1;" offset="0.40625"/><stop style="stop-color:#f44142;stop-opacity:1;" offset="0.410156"/><stop style="stop-color:#f43f42;stop-opacity:1;" offset="0.414062"/><stop style="stop-color:#f43e42;stop-opacity:1;" offset="0.417969"/><stop style="stop-color:#f43c42;stop-opacity:1;" offset="0.421875"/><stop style="stop-color:#f43a41;stop-opacity:1;" offset="0.425781"/><stop style="stop-color:#f43841;stop-opacity:1;" offset="0.429687"/><stop style="stop-color:#f43641;stop-opacity:1;" offset="0.433594"/><stop style="stop-color:#f43441;stop-opacity:1;" offset="0.4375"/><stop style="stop-color:#f33240;stop-opacity:1;" offset="0.441406"/><stop style="stop-color:#f33040;stop-opacity:1;" offset="0.445312"/><stop style="stop-color:#f32f40;stop-opacity:1;" offset="0.449219"/><stop style="stop-color:#f32d40;stop-opacity:1;" offset="0.453125"/><stop style="stop-color:#f32b3f;stop-opacity:1;" offset="0.457031"/><stop style="stop-color:#f3293f;stop-opacity:1;" offset="0.460937"/><stop style="stop-color:#f3273f;stop-opacity:1;" offset="0.464844"/><stop style="stop-color:#f2253f;stop-opacity:1;" offset="0.46875"/><stop style="stop-color:#f2233e;stop-opacity:1;" offset="0.472656"/><stop style="stop-color:#f2213e;stop-opacity:1;" offset="0.476562"/><stop style="stop-color:#f1213f;stop-opacity:1;" offset="0.480469"/><stop style="stop-color:#f02041;stop-opacity:1;" offset="0.484375"/><stop style="stop-color:#ef2043;stop-opacity:1;" offset="0.488281"/><stop style="stop-color:#ee2046;stop-opacity:1;" offset="0.492187"/><stop style="stop-color:#ec2048;stop-opacity:1;" offset="0.496094"/><stop style="stop-color:#eb204a;stop-opacity:1;" offset="0.5"/><stop style="stop-color:#ea204d;stop-opacity:1;" offset="0.503906"/><stop style="stop-color:#e8204f;stop-opacity:1;" offset="0.507812"/><stop style="stop-color:#e72052;stop-opacity:1;" offset="0.511719"/><stop style="stop-color:#e62054;stop-opacity:1;" offset="0.515625"/><stop style="stop-color:#e42057;stop-opacity:1;" offset="0.519531"/><stop style="stop-color:#e32059;stop-opacity:1;" offset="0.523437"/><stop style="stop-color:#e2205b;stop-opacity:1;" offset="0.527344"/><stop style="stop-color:#e0205e;stop-opacity:1;" offset="0.53125"/><stop style="stop-color:#df2060;stop-opacity:1;" offset="0.535156"/><stop style="stop-color:#de2063;stop-opacity:1;" offset="0.539062"/><stop style="stop-color:#dc2065;stop-opacity:1;" offset="0.542969"/><stop style="stop-color:#db2068;stop-opacity:1;" offset="0.546875"/><stop style="stop-color:#d9206a;stop-opacity:1;" offset="0.550781"/><stop style="stop-color:#d8206d;stop-opacity:1;" offset="0.554688"/><stop style="stop-color:#d7206f;stop-opacity:1;" offset="0.558594"/><stop style="stop-color:#d52071;stop-opacity:1;" offset="0.5625"/><stop style="stop-color:#d41f74;stop-opacity:1;" offset="0.566406"/><stop style="stop-color:#d31f76;stop-opacity:1;" offset="0.570312"/><stop style="stop-color:#d11f79;stop-opacity:1;" offset="0.574219"/><stop style="stop-color:#d01f7b;stop-opacity:1;" offset="0.578125"/><stop style="stop-color:#cf1f7e;stop-opacity:1;" offset="0.582031"/><stop style="stop-color:#cd1f80;stop-opacity:1;" offset="0.585938"/><stop style="stop-color:#cc1f82;stop-opacity:1;" offset="0.589844"/><stop style="stop-color:#cb1f85;stop-opacity:1;" offset="0.59375"/><stop style="stop-color:#c91f87;stop-opacity:1;" offset="0.597656"/><stop style="stop-color:#c81f8a;stop-opacity:1;" offset="0.601562"/><stop style="stop-color:#c71f8c;stop-opacity:1;" offset="0.605469"/><stop style="stop-color:#c51f8f;stop-opacity:1;" offset="0.609375"/><stop style="stop-color:#c41f91;stop-opacity:1;" offset="0.613281"/><stop style="stop-color:#c31f93;stop-opacity:1;" offset="0.617188"/><stop style="stop-color:#c11f96;stop-opacity:1;" offset="0.621094"/><stop style="stop-color:#c01f98;stop-opacity:1;" offset="0.625"/><stop style="stop-color:#be1f9b;stop-opacity:1;" offset="0.628906"/><stop style="stop-color:#bd1f9d;stop-opacity:1;" offset="0.632812"/><stop style="stop-color:#bc1fa0;stop-opacity:1;" offset="0.636719"/><stop style="stop-color:#ba1fa2;stop-opacity:1;" offset="0.640625"/><stop style="stop-color:#b91fa4;stop-opacity:1;" offset="0.644531"/><stop style="stop-color:#b81fa7;stop-opacity:1;" offset="0.648437"/><stop style="stop-color:#b620a8;stop-opacity:1;" offset="0.652344"/><stop style="stop-color:#b421a9;stop-opacity:1;" offset="0.65625"/><stop style="stop-color:#b222aa;stop-opacity:1;" offset="0.660156"/><stop style="stop-color:#b023ab;stop-opacity:1;" offset="0.664062"/><stop style="stop-color:#ae23ac;stop-opacity:1;" offset="0.667969"/><stop style="stop-color:#ac24ad;stop-opacity:1;" offset="0.671875"/><stop style="stop-color:#aa25ae;stop-opacity:1;" offset="0.675781"/><stop style="stop-color:#a926af;stop-opacity:1;" offset="0.679687"/><stop style="stop-color:#a727b0;stop-opacity:1;" offset="0.683594"/><stop style="stop-color:#a528b0;stop-opacity:1;" offset="0.6875"/><stop style="stop-color:#a329b1;stop-opacity:1;" offset="0.691406"/><stop style="stop-color:#a12ab2;stop-opacity:1;" offset="0.695312"/><stop style="stop-color:#9f2bb3;stop-opacity:1;" offset="0.699219"/><stop style="stop-color:#9d2cb4;stop-opacity:1;" offset="0.703125"/><stop style="stop-color:#9b2db5;stop-opacity:1;" offset="0.707031"/><stop style="stop-color:#992eb6;stop-opacity:1;" offset="0.710938"/><stop style="stop-color:#972fb7;stop-opacity:1;" offset="0.714844"/><stop style="stop-color:#9530b8;stop-opacity:1;" offset="0.71875"/><stop style="stop-color:#9331b8;stop-opacity:1;" offset="0.722656"/><stop style="stop-color:#9132b9;stop-opacity:1;" offset="0.726562"/><stop style="stop-color:#8f33ba;stop-opacity:1;" offset="0.730469"/><stop style="stop-color:#8e34bb;stop-opacity:1;" offset="0.734375"/><stop style="stop-color:#8c35bc;stop-opacity:1;" offset="0.738281"/><stop style="stop-color:#8a36bd;stop-opacity:1;" offset="0.742188"/><stop style="stop-color:#8837be;stop-opacity:1;" offset="0.746094"/><stop style="stop-color:#8638bf;stop-opacity:1;" offset="0.75"/><stop style="stop-color:#8439bf;stop-opacity:1;" offset="0.753906"/><stop style="stop-color:#823ac0;stop-opacity:1;" offset="0.757812"/><stop style="stop-color:#803bc1;stop-opacity:1;" offset="0.761719"/><stop style="stop-color:#7e3cc2;stop-opacity:1;" offset="0.765625"/><stop style="stop-color:#7c3cc3;stop-opacity:1;" offset="0.769531"/><stop style="stop-color:#7a3dc4;stop-opacity:1;" offset="0.773438"/><stop style="stop-color:#783ec5;stop-opacity:1;" offset="0.777344"/><stop style="stop-color:#763fc6;stop-opacity:1;" offset="0.78125"/><stop style="stop-color:#7440c7;stop-opacity:1;" offset="0.785156"/><stop style="stop-color:#7341c7;stop-opacity:1;" offset="0.789062"/><stop style="stop-color:#7142c8;stop-opacity:1;" offset="0.792969"/><stop style="stop-color:#6f43c9;stop-opacity:1;" offset="0.796875"/><stop style="stop-color:#6d44ca;stop-opacity:1;" offset="0.800781"/><stop style="stop-color:#6b45cb;stop-opacity:1;" offset="0.804688"/><stop style="stop-color:#6946cc;stop-opacity:1;" offset="0.808594"/><stop style="stop-color:#6747cd;stop-opacity:1;" offset="0.8125"/><stop style="stop-color:#6548ce;stop-opacity:1;" offset="0.816406"/><stop style="stop-color:#6349cf;stop-opacity:1;" offset="0.820312"/><stop style="stop-color:#614acf;stop-opacity:1;" offset="0.824219"/><stop style="stop-color:#5f4bd0;stop-opacity:1;" offset="0.828125"/><stop style="stop-color:#5d4cd1;stop-opacity:1;" offset="0.832031"/><stop style="stop-color:#5b4dd2;stop-opacity:1;" offset="0.835937"/><stop style="stop-color:#594ed3;stop-opacity:1;" offset="0.839844"/><stop style="stop-color:#574fd4;stop-opacity:1;" offset="0.84375"/><stop style="stop-color:#5650d5;stop-opacity:1;" offset="0.847656"/><stop style="stop-color:#5451d6;stop-opacity:1;" offset="0.851562"/><stop style="stop-color:#5351d6;stop-opacity:1;" offset="0.859375"/><stop style="stop-color:#5351d6;stop-opacity:1;" offset="0.875"/><stop style="stop-color:#5351d6;stop-opacity:1;" offset="1"/></linearGradient></defs><g id="c5d25061e0"><g clip-rule="nonzero" clip-path="url(#1a8a717b75)"><g clip-rule="nonzero" clip-path="url(#a34efad93f)"><path style=" stroke:none;fill-rule:nonzero;fill:url(#e3047a4605);" d="M 49.851562 49.851562 L 49.851562 325.851562 L 325.851562 325.851562 L 325.851562 49.851562 Z M 49.851562 49.851562 "/></g></g><path style=" stroke:none;fill-rule:nonzero;fill:#ffffff;fill-opacity:1;" d="M 224.878906 271.136719 L 151.308594 271.136719 C 125.800781 271.136719 105.050781 250.386719 105.050781 224.878906 L 105.050781 151.308594 C 105.050781 125.800781 125.800781 105.050781 151.308594 105.050781 L 224.878906 105.050781 C 250.386719 105.050781 271.136719 125.800781 271.136719 151.308594 L 271.136719 224.878906 C 271.136719 250.386719 250.386719 271.136719 224.878906 271.136719 Z M 151.308594 116.292969 C 132 116.292969 116.292969 132 116.292969 151.308594 L 116.292969 224.878906 C 116.292969 244.183594 132 259.890625 151.308594 259.890625 L 224.878906 259.890625 C 244.183594 259.890625 259.890625 244.183594 259.890625 224.878906 L 259.890625 151.308594 C 259.890625 132 244.183594 116.292969 224.878906 116.292969 Z M 151.308594 116.292969 "/><path style=" stroke:none;fill-rule:nonzero;fill:#ffffff;fill-opacity:1;" d="M 188.09375 229.230469 C 165.414062 229.230469 146.960938 210.777344 146.960938 188.09375 C 146.960938 165.414062 165.414062 146.960938 188.09375 146.960938 C 210.777344 146.960938 229.230469 165.414062 229.230469 188.09375 C 229.230469 210.777344 210.777344 229.230469 188.09375 229.230469 Z M 188.09375 158.203125 C 171.613281 158.203125 158.203125 171.609375 158.203125 188.09375 C 158.203125 204.578125 171.617188 217.984375 188.09375 217.984375 C 204.578125 217.984375 217.988281 204.578125 217.988281 188.09375 C 217.988281 171.609375 204.578125 158.203125 188.09375 158.203125 Z M 188.09375 158.203125 "/><g style="fill:#ffffff;fill-opacity:1;"><g transform="translate(185.356798, 268.069406)"><path style="stroke:none" d="M 1.1875 -0.828125 C 1.1875 -1.179688 1.265625 -1.445312 1.421875 -1.625 C 1.585938 -1.800781 1.816406 -1.890625 2.109375 -1.890625 C 2.410156 -1.890625 2.644531 -1.800781 2.8125 -1.625 C 2.988281 -1.445312 3.078125 -1.179688 3.078125 -0.828125 C 3.078125 -0.492188 2.988281 -0.234375 2.8125 -0.046875 C 2.644531 0.140625 2.410156 0.234375 2.109375 0.234375 C 1.847656 0.234375 1.628906 0.148438 1.453125 -0.015625 C 1.273438 -0.179688 1.1875 -0.453125 1.1875 -0.828125 Z M 1.1875 -0.828125 "/></g></g></g></svg>