<svg xmlns="http://www.w3.org/2000/svg" xmlns:xlink="http://www.w3.org/1999/xlink" width="500" zoomAndPan="magnify" viewBox="0 0 375 374.999991" height="500" preserveAspectRatio="xMidYMid meet" version="1.2"><defs><clipPath id="78eedec3ef"><path d="M 83.664062 80.835938 L 296.664062 80.835938 L 296.664062 293.835938 L 83.664062 293.835938 Z M 83.664062 80.835938 "/></clipPath></defs><g id="7ef07889b6"><g clip-rule="nonzero" clip-path="url(#78eedec3ef)"><path style=" stroke:none;fill-rule:nonzero;fill:#ffffff;fill-opacity:1;" d="M 277.945312 175.398438 C 276.984375 168.261719 275.171875 161.394531 272.617188 154.902344 L 286.859375 141.820312 L 282.6875 134.589844 L 278.515625 127.363281 L 260.210938 133.109375 C 255.875 127.515625 250.882812 122.453125 245.347656 118.042969 L 251.148438 99.566406 L 243.921875 95.394531 L 236.691406 91.222656 L 223.726562 105.335938 C 217.265625 102.6875 210.425781 100.78125 203.308594 99.722656 L 199.09375 80.832031 L 182.402344 80.832031 L 178.226562 99.550781 C 171.089844 100.511719 164.226562 102.324219 157.734375 104.878906 L 144.648438 90.636719 L 137.421875 94.808594 L 130.191406 98.980469 L 135.9375 117.285156 C 130.34375 121.621094 125.285156 126.613281 120.871094 132.148438 L 102.398438 126.347656 L 98.222656 133.574219 L 94.050781 140.804688 L 108.164062 153.769531 C 105.519531 160.226562 103.613281 167.070312 102.554688 174.1875 L 83.664062 178.402344 L 83.664062 195.09375 L 102.382812 199.269531 C 103.34375 206.402344 105.152344 213.269531 107.710938 219.761719 L 93.464844 232.847656 L 97.636719 240.074219 L 101.8125 247.304688 L 120.117188 241.558594 C 124.453125 247.152344 129.445312 252.210938 134.976562 256.625 L 129.175781 275.097656 L 136.40625 279.273438 L 143.632812 283.445312 L 156.601562 269.332031 C 163.058594 271.976562 169.902344 273.882812 177.019531 274.941406 L 181.230469 293.832031 L 197.925781 293.832031 L 202.097656 275.113281 C 209.234375 274.152344 216.101562 272.34375 222.59375 269.785156 L 235.679688 284.03125 L 242.90625 279.859375 L 250.132812 275.683594 L 244.386719 257.378906 C 249.980469 253.042969 255.042969 248.050781 259.453125 242.519531 L 277.929688 248.320312 L 282.101562 241.089844 L 286.273438 233.863281 L 272.160156 220.894531 C 274.808594 214.4375 276.714844 207.59375 277.773438 200.476562 L 296.664062 196.265625 L 296.664062 179.574219 Z M 190.164062 257.035156 C 151.671875 257.035156 120.464844 225.828125 120.464844 187.335938 C 120.464844 148.839844 151.667969 117.632812 190.164062 117.632812 C 228.65625 117.632812 259.863281 148.839844 259.863281 187.335938 C 259.863281 225.828125 228.65625 257.035156 190.164062 257.035156 Z M 190.164062 257.035156 "/></g><g style="fill:#ffffff;fill-opacity:1;"><g transform="translate(91.963614, 183.849994)"><path style="stroke:none" d="M 1.1875 -0.828125 C 1.1875 -1.179688 1.265625 -1.445312 1.421875 -1.625 C 1.585938 -1.800781 1.816406 -1.890625 2.109375 -1.890625 C 2.410156 -1.890625 2.644531 -1.800781 2.8125 -1.625 C 2.988281 -1.445312 3.078125 -1.179688 3.078125 -0.828125 C 3.078125 -0.492188 2.988281 -0.234375 2.8125 -0.046875 C 2.644531 0.140625 2.410156 0.234375 2.109375 0.234375 C 1.847656 0.234375 1.628906 0.148438 1.453125 -0.015625 C 1.273438 -0.179688 1.1875 -0.453125 1.1875 -0.828125 Z M 1.1875 -0.828125 "/></g></g></g></svg>