<svg xmlns="http://www.w3.org/2000/svg" xmlns:xlink="http://www.w3.org/1999/xlink" width="1080" zoomAndPan="magnify" viewBox="0 0 810 809.999993" height="1080" preserveAspectRatio="xMidYMid meet" version="1.2"><defs><clipPath id="2294f4f546"><path d="M 65 55.707031 L 763 55.707031 L 763 753.207031 L 65 753.207031 Z M 65 55.707031 "/></clipPath></defs><g id="1f455f5b91"><path style=" stroke:none;fill-rule:nonzero;fill:#000000;fill-opacity:1;" d="M 467.71875 162.472656 C 428.324219 123.070312 375.878906 101.367188 320.03125 101.367188 C 264.179688 101.367188 211.734375 123.070312 172.335938 162.472656 C 90.90625 243.933594 90.90625 376.492188 172.335938 457.960938 C 211.71875 497.363281 264.164062 519.066406 320.023438 519.066406 C 375.871094 519.066406 428.324219 497.371094 467.71875 457.960938 C 507.109375 418.550781 528.804688 366.085938 528.804688 310.222656 C 528.804688 254.355469 507.101562 201.878906 467.71875 162.472656 Z M 456.035156 446.273438 C 419.757812 482.554688 371.460938 502.539062 320.023438 502.539062 C 268.574219 502.539062 220.285156 482.5625 184.015625 446.273438 C 109.023438 371.253906 109.023438 249.183594 184.015625 174.160156 C 220.292969 137.878906 268.59375 117.898438 320.03125 117.898438 C 371.46875 117.898438 419.757812 137.878906 456.035156 174.160156 C 531.035156 249.183594 531.035156 371.246094 456.035156 446.273438 Z M 456.035156 446.273438 "/><g clip-rule="nonzero" clip-path="url(#2294f4f546)"><path style=" stroke:none;fill-rule:nonzero;fill:#000000;fill-opacity:1;" d="M 747.023438 661.1875 L 607.988281 522.109375 L 579.21875 493.332031 C 576.121094 490.234375 570.636719 490.234375 567.539062 493.332031 L 563.160156 497.710938 C 562.753906 496.753906 562.183594 495.84375 561.398438 495.058594 L 525.996094 459.628906 C 557.375 416.5 574.351562 364.699219 574.351562 310.214844 C 574.351562 242.15625 547.933594 178.234375 499.9375 130.242188 C 451.953125 82.253906 388.066406 55.824219 320.039062 55.824219 C 252.003906 55.824219 188.097656 82.261719 140.113281 130.261719 C 40.914062 229.488281 40.914062 390.953125 140.113281 490.199219 C 188.105469 538.191406 252.003906 564.617188 320.03125 564.617188 C 374.5 564.617188 426.285156 547.636719 469.402344 516.25 L 504.8125 551.683594 C 505.597656 552.46875 506.5 553.039062 507.457031 553.445312 L 503.121094 557.792969 C 499.890625 561.023438 499.890625 566.246094 503.121094 569.476562 L 532.996094 599.371094 L 670.902344 737.339844 C 681.0625 747.515625 694.585938 753.117188 708.960938 753.117188 C 723.339844 753.117188 736.863281 747.515625 747.023438 737.339844 C 768.007812 716.324219 768.007812 682.167969 747.023438 661.1875 Z M 151.777344 478.496094 C 59.023438 385.699219 59.023438 234.71875 151.777344 141.929688 C 196.648438 97.054688 256.398438 72.335938 320.023438 72.335938 C 383.636719 72.335938 443.386719 97.046875 488.242188 141.914062 C 533.109375 186.789062 557.8125 246.554688 557.8125 310.195312 C 557.8125 373.839844 533.109375 433.605469 488.242188 478.472656 C 443.378906 523.347656 383.636719 548.058594 320.015625 548.058594 C 256.40625 548.074219 196.648438 523.363281 151.777344 478.496094 Z M 516.488281 539.984375 L 482.539062 506.007812 C 488.539062 501.019531 494.355469 495.761719 499.929688 490.175781 C 505.507812 484.589844 510.777344 478.769531 515.769531 472.777344 L 549.707031 506.746094 C 550.492188 507.53125 551.394531 508.109375 552.359375 508.503906 L 518.238281 542.636719 C 517.84375 541.675781 517.273438 540.769531 516.488281 539.984375 Z M 573.378906 510.859375 L 590.636719 528.125 L 538.652344 581.652344 L 520.636719 563.617188 Z M 735.34375 725.648438 C 728.285156 732.695312 718.925781 736.582031 708.960938 736.582031 C 699 736.582031 689.628906 732.695312 682.582031 725.648438 L 550.34375 593.335938 L 602.328125 539.800781 L 735.351562 672.871094 C 749.882812 687.417969 749.882812 711.085938 735.34375 725.648438 Z M 735.34375 725.648438 "/></g><g style="fill:#000000;fill-opacity:1;"><g transform="translate(452.830877, 521.818698)"><path style="stroke:none" d="M 2.234375 -1.546875 C 2.234375 -2.203125 2.378906 -2.695312 2.671875 -3.03125 C 2.972656 -3.375 3.398438 -3.546875 3.953125 -3.546875 C 4.523438 -3.546875 4.96875 -3.375 5.28125 -3.03125 C 5.59375 -2.695312 5.75 -2.203125 5.75 -1.546875 C 5.75 -0.910156 5.585938 -0.421875 5.265625 -0.078125 C 4.953125 0.253906 4.515625 0.421875 3.953125 0.421875 C 3.453125 0.421875 3.039062 0.269531 2.71875 -0.03125 C 2.394531 -0.34375 2.234375 -0.847656 2.234375 -1.546875 Z M 2.234375 -1.546875 "/></g></g></g></svg>