<svg xmlns="http://www.w3.org/2000/svg" xmlns:xlink="http://www.w3.org/1999/xlink" width="500" zoomAndPan="magnify" viewBox="0 0 375 374.999991" height="500" preserveAspectRatio="xMidYMid meet" version="1.2"><defs><clipPath id="e1a76334b2"><path d="M 83.664062 83.664062 L 238 83.664062 L 238 239 L 83.664062 239 Z M 83.664062 83.664062 "/></clipPath></defs><g id="2d23e6812b"><path style=" stroke:none;fill-rule:nonzero;fill:#ffffff;fill-opacity:1;" d="M 283.777344 256.546875 L 238.722656 206.265625 C 231.6875 217.199219 217.300781 230.945312 206.367188 237.976562 L 256.527344 283.757812 C 264.082031 291.3125 276.300781 291.3125 283.816406 283.757812 C 291.332031 276.28125 291.332031 264.0625 283.777344 256.546875 Z M 283.777344 256.546875 "/><g clip-rule="nonzero" clip-path="url(#e1a76334b2)"><path style=" stroke:none;fill-rule:nonzero;fill:#ffffff;fill-opacity:1;" d="M 238 160.851562 C 238 118.25 203.433594 83.683594 160.832031 83.683594 C 118.230469 83.683594 83.664062 118.25 83.664062 160.851562 C 83.664062 203.453125 118.230469 238.019531 160.832031 238.019531 C 203.433594 238.019531 238 203.453125 238 160.851562 Z M 160.832031 218.726562 C 128.917969 218.726562 102.957031 192.761719 102.957031 160.851562 C 102.957031 128.941406 128.917969 102.976562 160.832031 102.976562 C 192.742188 102.976562 218.707031 128.941406 218.707031 160.851562 C 218.707031 192.761719 192.742188 218.726562 160.832031 218.726562 Z M 160.832031 218.726562 "/></g></g></svg>