<svg xmlns="http://www.w3.org/2000/svg" xmlns:xlink="http://www.w3.org/1999/xlink" width="500" zoomAndPan="magnify" viewBox="0 0 375 374.999991" height="500" preserveAspectRatio="xMidYMid meet" version="1.2"><defs><clipPath id="8a1d250176"><path d="M 83.257812 56.65625 L 291.757812 56.65625 L 291.757812 299.65625 L 83.257812 299.65625 Z M 83.257812 56.65625 "/></clipPath></defs><g id="dc9ad211b5"><g clip-rule="nonzero" clip-path="url(#8a1d250176)"><path style=" stroke:none;fill-rule:nonzero;fill:#ffffff;fill-opacity:1;" d="M 290.949219 200.03125 L 272.394531 167.894531 C 271.964844 167.144531 271.289062 166.5625 270.480469 166.25 L 231.304688 151.019531 C 232.523438 146.902344 233.183594 142.546875 233.183594 138.042969 C 233.183594 112.820312 212.664062 92.300781 187.4375 92.300781 C 162.214844 92.300781 141.695312 112.820312 141.695312 138.042969 C 141.695312 142.546875 142.355469 146.902344 143.574219 151.019531 L 104.398438 166.25 C 103.589844 166.5625 102.914062 167.144531 102.480469 167.894531 L 83.925781 200.03125 C 83.371094 200.992188 83.265625 202.148438 83.632812 203.195312 C 84 204.242188 84.808594 205.074219 85.84375 205.476562 L 101.972656 211.75 L 101.972656 264.09375 C 101.972656 265.660156 102.933594 267.070312 104.398438 267.636719 L 186.058594 299.390625 C 186.503906 299.5625 186.96875 299.648438 187.4375 299.648438 C 187.90625 299.648438 188.375 299.5625 188.816406 299.390625 L 270.480469 267.636719 C 271.941406 267.070312 272.90625 265.660156 272.90625 264.09375 L 272.90625 211.75 L 289.035156 205.476562 C 290.070312 205.074219 290.875 204.242188 291.242188 203.195312 C 291.613281 202.148438 291.503906 200.992188 290.949219 200.03125 Z M 187.4375 99.90625 C 208.46875 99.90625 225.574219 117.015625 225.574219 138.042969 C 225.574219 159.070312 208.464844 176.179688 187.4375 176.179688 C 166.410156 176.179688 149.304688 159.070312 149.304688 138.042969 C 149.304688 117.015625 166.410156 99.90625 187.4375 99.90625 Z M 187.4375 183.785156 C 205.5625 183.785156 221.261719 173.191406 228.660156 157.867188 L 258.679688 169.765625 L 187.4375 197.46875 L 116.195312 169.765625 L 146.21875 157.867188 C 153.617188 173.191406 169.3125 183.785156 187.4375 183.785156 Z M 92.734375 199.992188 L 107.4375 174.523438 L 181.925781 203.488281 L 167.222656 228.957031 Z M 109.578125 214.707031 L 167.507812 237.230469 C 169.253906 237.910156 171.238281 237.214844 172.179688 235.585938 L 183.636719 215.746094 L 183.636719 290.285156 L 109.578125 261.488281 Z M 265.296875 261.488281 L 191.242188 290.285156 L 191.242188 215.746094 L 202.699219 235.585938 C 203.636719 237.214844 205.621094 237.910156 207.371094 237.230469 L 265.296875 214.707031 Z M 207.65625 228.957031 L 192.949219 203.488281 L 267.4375 174.523438 L 282.144531 199.992188 Z M 177.972656 162.753906 C 180.609375 162.753906 183.085938 161.726562 184.953125 159.859375 L 214.605469 130.203125 C 218.460938 126.351562 218.460938 120.082031 214.605469 116.226562 C 212.738281 114.359375 210.257812 113.332031 207.617188 113.332031 C 204.976562 113.332031 202.496094 114.359375 200.628906 116.226562 L 178.800781 138.054688 L 172.976562 130.726562 C 171.089844 128.355469 168.273438 126.996094 165.242188 126.996094 C 163.023438 126.996094 160.84375 127.757812 159.105469 129.140625 C 154.84375 132.527344 154.132812 138.75 157.519531 143.011719 L 169.929688 158.628906 C 171.785156 161.214844 174.785156 162.753906 177.972656 162.753906 Z M 163.835938 135.09375 C 164.347656 134.6875 164.882812 134.601562 165.242188 134.601562 C 165.941406 134.601562 166.585938 134.914062 167.019531 135.457031 L 175.496094 146.128906 C 176.171875 146.976562 177.175781 147.496094 178.257812 147.558594 C 179.339844 147.621094 180.398438 147.21875 181.164062 146.449219 L 206.007812 121.605469 C 206.4375 121.175781 207.007812 120.941406 207.617188 120.941406 C 208.226562 120.941406 208.796875 121.179688 209.226562 121.605469 C 210.113281 122.496094 210.113281 123.9375 209.226562 124.824219 L 179.570312 154.480469 C 179.023438 155.03125 178.398438 155.144531 177.972656 155.144531 C 177.210938 155.144531 176.527344 154.789062 176.09375 154.167969 C 176.046875 154.101562 176 154.039062 175.953125 153.976562 L 163.476562 138.277344 C 162.699219 137.300781 162.859375 135.871094 163.835938 135.09375 Z M 183.636719 78.285156 L 183.636719 60.46875 C 183.636719 58.371094 185.335938 56.667969 187.4375 56.667969 C 189.539062 56.667969 191.242188 58.371094 191.242188 60.46875 L 191.242188 78.285156 C 191.242188 80.386719 189.539062 82.089844 187.4375 82.089844 C 185.335938 82.089844 183.636719 80.386719 183.636719 78.285156 Z M 145.222656 72.265625 C 144.171875 70.445312 144.796875 68.117188 146.617188 67.066406 C 148.4375 66.019531 150.761719 66.640625 151.8125 68.460938 L 160.722656 83.890625 C 161.773438 85.710938 161.148438 88.035156 159.328125 89.085938 C 158.730469 89.433594 158.074219 89.597656 157.429688 89.597656 C 156.117188 89.597656 154.835938 88.914062 154.132812 87.695312 Z M 116.464844 96.488281 C 117.515625 94.667969 119.839844 94.042969 121.660156 95.09375 L 137.089844 104.003906 C 138.910156 105.054688 139.53125 107.378906 138.484375 109.199219 C 137.777344 110.417969 136.5 111.101562 135.183594 111.101562 C 134.539062 111.101562 133.886719 110.9375 133.285156 110.59375 L 117.855469 101.683594 C 116.039062 100.632812 115.414062 98.308594 116.464844 96.488281 Z M 105.0625 137.042969 C 105.0625 134.941406 106.765625 133.238281 108.867188 133.238281 L 126.683594 133.238281 C 128.78125 133.238281 130.484375 134.941406 130.484375 137.042969 C 130.484375 139.140625 128.78125 140.84375 126.683594 140.84375 L 108.867188 140.84375 C 106.765625 140.84375 105.0625 139.140625 105.0625 137.042969 Z M 213.886719 84.890625 L 222.796875 69.460938 C 223.847656 67.640625 226.171875 67.015625 227.992188 68.070312 C 229.8125 69.121094 230.4375 71.445312 229.386719 73.265625 L 220.476562 88.695312 C 219.773438 89.914062 218.492188 90.597656 217.179688 90.597656 C 216.535156 90.597656 215.878906 90.433594 215.28125 90.085938 C 213.460938 89.039062 212.839844 86.710938 213.886719 84.890625 Z M 235.394531 110.933594 C 234.34375 109.113281 234.96875 106.789062 236.785156 105.738281 L 252.214844 96.828125 C 254.035156 95.78125 256.363281 96.402344 257.414062 98.222656 C 258.464844 100.039062 257.839844 102.367188 256.019531 103.417969 L 240.589844 112.324219 C 239.992188 112.671875 239.339844 112.835938 238.691406 112.835938 C 237.378906 112.835938 236.097656 112.152344 235.394531 110.933594 Z M 246.195312 135.238281 L 264.011719 135.238281 C 266.109375 135.238281 267.8125 136.941406 267.8125 139.042969 C 267.8125 141.144531 266.109375 142.847656 264.011719 142.847656 L 246.195312 142.847656 C 244.09375 142.847656 242.390625 141.144531 242.390625 139.042969 C 242.390625 136.941406 244.09375 135.238281 246.195312 135.238281 Z M 246.195312 135.238281 "/></g><g style="fill:#ffffff;fill-opacity:1;"><g transform="translate(89.19711, 193.124987)"><path style="stroke:none" d="M 1.1875 -0.828125 C 1.1875 -1.179688 1.265625 -1.445312 1.421875 -1.625 C 1.585938 -1.800781 1.816406 -1.890625 2.109375 -1.890625 C 2.410156 -1.890625 2.644531 -1.800781 2.8125 -1.625 C 2.988281 -1.445312 3.078125 -1.179688 3.078125 -0.828125 C 3.078125 -0.492188 2.988281 -0.234375 2.8125 -0.046875 C 2.644531 0.140625 2.410156 0.234375 2.109375 0.234375 C 1.847656 0.234375 1.628906 0.148438 1.453125 -0.015625 C 1.273438 -0.179688 1.1875 -0.453125 1.1875 -0.828125 Z M 1.1875 -0.828125 "/></g></g></g></svg>