<svg xmlns="http://www.w3.org/2000/svg" xmlns:xlink="http://www.w3.org/1999/xlink" width="500" zoomAndPan="magnify" viewBox="0 0 375 374.999991" height="500" preserveAspectRatio="xMidYMid meet" version="1.2"><defs><clipPath id="6e2ac20e59"><path d="M 56.300781 34.496094 L 318.800781 34.496094 L 318.800781 340.496094 L 56.300781 340.496094 Z M 56.300781 34.496094 "/></clipPath></defs><g id="b6972d5ec6"><g clip-rule="nonzero" clip-path="url(#6e2ac20e59)"><path style=" stroke:none;fill-rule:nonzero;fill:#ffffff;fill-opacity:1;" d="M 317.847656 215.042969 L 294.484375 174.570312 C 293.9375 173.628906 293.085938 172.898438 292.070312 172.503906 L 242.738281 153.320312 C 244.273438 148.136719 245.101562 142.65625 245.101562 136.980469 C 245.101562 105.21875 219.261719 79.375 187.496094 79.375 C 155.734375 79.375 129.894531 105.21875 129.894531 136.980469 C 129.894531 142.65625 130.722656 148.136719 132.257812 153.320312 L 82.921875 172.503906 C 81.90625 172.898438 81.054688 173.628906 80.511719 174.570312 L 57.144531 215.042969 C 56.445312 216.25 56.3125 217.707031 56.773438 219.027344 C 57.238281 220.34375 58.253906 221.394531 59.558594 221.902344 L 79.867188 229.796875 L 79.867188 295.714844 C 79.867188 297.691406 81.082031 299.464844 82.921875 300.179688 L 185.761719 340.164062 C 186.320312 340.382812 186.90625 340.492188 187.496094 340.492188 C 188.085938 340.492188 188.675781 340.382812 189.230469 340.164062 L 292.070312 300.179688 C 293.910156 299.464844 295.125 297.691406 295.125 295.714844 L 295.125 229.796875 L 315.433594 221.902344 C 316.738281 221.394531 317.753906 220.34375 318.21875 219.027344 C 318.683594 217.707031 318.546875 216.25 317.847656 215.042969 Z M 187.496094 88.957031 C 213.976562 88.957031 235.519531 110.5 235.519531 136.980469 C 235.519531 163.460938 213.976562 185.003906 187.496094 185.003906 C 161.015625 185.003906 139.472656 163.460938 139.472656 136.980469 C 139.472656 110.5 161.015625 88.957031 187.496094 88.957031 Z M 187.496094 194.585938 C 210.324219 194.585938 230.089844 181.242188 239.40625 161.945312 L 277.210938 176.929688 L 187.496094 211.8125 L 97.78125 176.929688 L 135.585938 161.945312 C 144.90625 181.242188 164.671875 194.585938 187.496094 194.585938 Z M 68.234375 214.996094 L 86.753906 182.921875 L 180.554688 219.394531 L 162.039062 251.46875 Z M 89.449219 233.523438 L 162.394531 261.886719 C 164.597656 262.742188 167.097656 261.867188 168.28125 259.816406 L 182.707031 234.832031 L 182.707031 328.699219 L 89.449219 292.4375 Z M 285.546875 292.4375 L 192.289062 328.699219 L 192.289062 234.832031 L 206.714844 259.816406 C 207.898438 261.867188 210.394531 262.742188 212.597656 261.886719 L 285.546875 233.523438 Z M 212.957031 251.46875 L 194.4375 219.394531 L 288.242188 182.921875 L 306.761719 214.996094 Z M 175.578125 168.097656 C 178.894531 168.097656 182.015625 166.804688 184.367188 164.453125 L 221.710938 127.109375 C 226.5625 122.257812 226.5625 114.363281 221.707031 109.507812 C 219.359375 107.15625 216.234375 105.863281 212.910156 105.863281 C 209.585938 105.863281 206.460938 107.15625 204.109375 109.507812 L 176.621094 136.996094 L 169.285156 127.765625 C 166.910156 124.78125 163.363281 123.070312 159.546875 123.070312 C 156.753906 123.070312 154.007812 124.027344 151.816406 125.769531 C 146.449219 130.035156 145.554688 137.871094 149.820312 143.238281 L 165.449219 162.90625 C 167.785156 166.160156 171.558594 168.097656 175.578125 168.097656 Z M 157.777344 133.269531 C 158.421875 132.757812 159.09375 132.648438 159.546875 132.648438 C 160.421875 132.648438 161.238281 133.042969 161.78125 133.726562 L 172.457031 147.164062 C 173.308594 148.230469 174.574219 148.886719 175.9375 148.964844 C 177.296875 149.039062 178.632812 148.535156 179.597656 147.570312 L 210.882812 116.285156 C 211.421875 115.742188 212.140625 115.445312 212.910156 115.445312 C 213.675781 115.445312 214.394531 115.742188 214.933594 116.285156 C 216.050781 117.402344 216.050781 119.21875 214.933594 120.335938 L 177.589844 157.679688 C 176.898438 158.371094 176.113281 158.519531 175.578125 158.519531 C 174.617188 158.519531 173.753906 158.070312 173.207031 157.285156 C 173.152344 157.207031 173.09375 157.125 173.03125 157.046875 L 157.320312 137.277344 C 156.339844 136.042969 156.546875 134.246094 157.777344 133.269531 Z M 182.707031 61.730469 L 182.707031 39.292969 C 182.707031 36.648438 184.851562 34.503906 187.496094 34.503906 C 190.144531 34.503906 192.289062 36.648438 192.289062 39.292969 L 192.289062 61.730469 C 192.289062 64.375 190.144531 66.519531 187.496094 66.519531 C 184.851562 66.519531 182.707031 64.375 182.707031 61.730469 Z M 134.335938 54.144531 C 133.015625 51.855469 133.800781 48.925781 136.089844 47.601562 C 138.382812 46.28125 141.3125 47.066406 142.632812 49.355469 L 153.851562 68.785156 C 155.175781 71.078125 154.390625 74.007812 152.097656 75.328125 C 151.34375 75.765625 150.519531 75.972656 149.707031 75.972656 C 148.050781 75.972656 146.441406 75.113281 145.554688 73.578125 Z M 98.121094 84.652344 C 99.441406 82.359375 102.371094 81.574219 104.664062 82.898438 L 124.09375 94.113281 C 126.382812 95.4375 127.167969 98.367188 125.847656 100.660156 C 124.960938 102.195312 123.347656 103.054688 121.695312 103.054688 C 120.882812 103.054688 120.058594 102.847656 119.304688 102.414062 L 99.871094 91.195312 C 97.582031 89.871094 96.796875 86.941406 98.121094 84.652344 Z M 83.761719 135.71875 C 83.761719 133.074219 85.90625 130.929688 88.550781 130.929688 L 110.988281 130.929688 C 113.632812 130.929688 115.777344 133.074219 115.777344 135.71875 C 115.777344 138.363281 113.632812 140.511719 110.988281 140.511719 L 88.550781 140.511719 C 85.90625 140.511719 83.761719 138.367188 83.761719 135.71875 Z M 220.804688 70.046875 L 232.023438 50.617188 C 233.347656 48.324219 236.277344 47.539062 238.566406 48.863281 C 240.859375 50.1875 241.644531 53.117188 240.320312 55.40625 L 229.101562 74.835938 C 228.214844 76.375 226.605469 77.234375 224.949219 77.234375 C 224.136719 77.234375 223.3125 77.027344 222.558594 76.589844 C 220.265625 75.269531 219.484375 72.339844 220.804688 70.046875 Z M 247.886719 102.84375 C 246.566406 100.550781 247.351562 97.621094 249.640625 96.300781 L 269.070312 85.082031 C 271.363281 83.757812 274.292969 84.542969 275.617188 86.835938 C 276.9375 89.125 276.152344 92.054688 273.863281 93.378906 L 254.429688 104.597656 C 253.675781 105.03125 252.855469 105.238281 252.042969 105.238281 C 250.386719 105.238281 248.773438 104.378906 247.886719 102.84375 Z M 261.488281 133.449219 L 283.921875 133.449219 C 286.570312 133.449219 288.714844 135.59375 288.714844 138.242188 C 288.714844 140.886719 286.570312 143.03125 283.921875 143.03125 L 261.488281 143.03125 C 258.839844 143.03125 256.695312 140.886719 256.695312 138.242188 C 256.695312 135.597656 258.839844 133.449219 261.488281 133.449219 Z M 261.488281 133.449219 "/></g><g style="fill:#ffffff;fill-opacity:1;"><g transform="translate(89.19711, 193.124987)"><path style="stroke:none" d="M 1.1875 -0.828125 C 1.1875 -1.179688 1.265625 -1.445312 1.421875 -1.625 C 1.585938 -1.800781 1.816406 -1.890625 2.109375 -1.890625 C 2.410156 -1.890625 2.644531 -1.800781 2.8125 -1.625 C 2.988281 -1.445312 3.078125 -1.179688 3.078125 -0.828125 C 3.078125 -0.492188 2.988281 -0.234375 2.8125 -0.046875 C 2.644531 0.140625 2.410156 0.234375 2.109375 0.234375 C 1.847656 0.234375 1.628906 0.148438 1.453125 -0.015625 C 1.273438 -0.179688 1.1875 -0.453125 1.1875 -0.828125 Z M 1.1875 -0.828125 "/></g></g></g></svg>