<svg xmlns="http://www.w3.org/2000/svg" xmlns:xlink="http://www.w3.org/1999/xlink" width="1080" zoomAndPan="magnify" viewBox="0 0 810 809.999993" height="1080" preserveAspectRatio="xMidYMid meet" version="1.2"><defs><clipPath id="b82aca6cfb"><path d="M 131.355469 85.878906 L 678.855469 85.878906 L 678.855469 724.128906 L 131.355469 724.128906 Z M 131.355469 85.878906 "/></clipPath></defs><g id="42711df2e9"><g clip-rule="nonzero" clip-path="url(#b82aca6cfb)"><path style=" stroke:none;fill-rule:nonzero;fill:#000000;fill-opacity:1;" d="M 677.089844 462.453125 L 628.335938 378.042969 C 627.199219 376.074219 625.421875 374.550781 623.304688 373.726562 L 520.367188 333.71875 C 523.570312 322.90625 525.300781 311.472656 525.300781 299.636719 C 525.300781 233.386719 471.378906 179.484375 405.105469 179.484375 C 338.828125 179.484375 284.910156 233.386719 284.910156 299.636719 C 284.910156 311.472656 286.636719 322.90625 289.839844 333.71875 L 186.90625 373.726562 C 184.785156 374.550781 183.007812 376.074219 181.871094 378.042969 L 133.117188 462.453125 C 131.660156 464.980469 131.375 468.015625 132.34375 470.765625 C 133.3125 473.515625 135.433594 475.707031 138.152344 476.761719 L 180.53125 493.234375 L 180.53125 630.722656 C 180.53125 634.84375 183.0625 638.539062 186.902344 640.035156 L 401.480469 723.4375 C 402.644531 723.890625 403.875 724.117188 405.101562 724.117188 C 406.328125 724.117188 407.558594 723.890625 408.722656 723.4375 L 623.300781 640.035156 C 627.140625 638.539062 629.671875 634.84375 629.671875 630.722656 L 629.671875 493.234375 L 672.054688 476.761719 C 674.773438 475.707031 676.890625 473.515625 677.859375 470.765625 C 678.828125 468.015625 678.546875 464.980469 677.089844 462.453125 Z M 405.105469 199.46875 C 460.355469 199.46875 505.308594 244.40625 505.308594 299.636719 C 505.308594 354.871094 460.355469 399.804688 405.105469 399.804688 C 349.851562 399.804688 304.898438 354.871094 304.898438 299.636719 C 304.898438 244.402344 349.851562 199.46875 405.105469 199.46875 Z M 405.105469 419.789062 C 452.730469 419.789062 493.972656 391.953125 513.414062 351.707031 L 592.296875 382.960938 L 405.105469 455.722656 L 217.90625 382.960938 L 296.789062 351.707031 C 316.230469 391.953125 357.476562 419.789062 405.105469 419.789062 Z M 156.257812 462.359375 L 194.894531 395.457031 L 390.621094 471.535156 L 351.980469 538.433594 Z M 200.523438 501.003906 L 352.730469 560.167969 C 357.324219 561.949219 362.539062 560.121094 365.007812 555.851562 L 395.109375 503.734375 L 395.109375 699.519531 L 200.523438 623.886719 Z M 609.683594 623.886719 L 415.097656 699.519531 L 415.097656 503.734375 L 445.199219 555.851562 C 447.667969 560.121094 452.882812 561.953125 457.480469 560.167969 L 609.683594 501.003906 Z M 458.226562 538.433594 L 419.585938 471.535156 L 615.3125 395.457031 L 653.953125 462.359375 Z M 380.234375 364.542969 C 387.152344 364.539062 393.664062 361.839844 398.570312 356.9375 L 476.488281 279.050781 C 486.613281 268.925781 486.613281 252.457031 476.488281 242.335938 C 471.582031 237.433594 465.0625 234.730469 458.125 234.730469 C 451.1875 234.730469 444.667969 237.433594 439.761719 242.335938 L 382.40625 299.671875 L 367.097656 280.414062 C 362.148438 274.191406 354.742188 270.621094 346.78125 270.621094 C 340.953125 270.621094 335.222656 272.621094 330.648438 276.253906 C 319.457031 285.152344 317.589844 301.496094 326.488281 312.683594 L 359.101562 353.710938 C 363.976562 360.5 371.851562 364.542969 380.234375 364.542969 Z M 343.089844 291.894531 C 344.433594 290.828125 345.839844 290.601562 346.78125 290.601562 C 348.613281 290.601562 350.3125 291.421875 351.445312 292.847656 L 373.722656 320.875 C 375.496094 323.101562 378.136719 324.46875 380.980469 324.632812 C 383.820312 324.792969 386.601562 323.734375 388.617188 321.722656 L 453.898438 256.46875 C 455.023438 255.339844 456.527344 254.71875 458.125 254.71875 C 459.722656 254.71875 461.222656 255.339844 462.351562 256.464844 C 464.679688 258.796875 464.683594 262.589844 462.351562 264.921875 L 384.433594 342.8125 C 382.988281 344.257812 381.351562 344.558594 380.230469 344.558594 C 378.230469 344.558594 376.429688 343.625 375.289062 341.992188 C 375.171875 341.820312 375.046875 341.65625 374.921875 341.492188 L 342.136719 300.253906 C 340.09375 297.683594 340.523438 293.9375 343.089844 291.894531 Z M 395.109375 142.679688 L 395.109375 95.882812 C 395.109375 90.367188 399.582031 85.890625 405.105469 85.890625 C 410.625 85.890625 415.097656 90.367188 415.097656 95.882812 L 415.097656 142.679688 C 415.097656 148.199219 410.625 152.671875 405.105469 152.671875 C 399.582031 152.671875 395.109375 148.199219 395.109375 142.679688 Z M 294.179688 126.863281 C 291.421875 122.082031 293.058594 115.972656 297.839844 113.214844 C 302.621094 110.457031 308.734375 112.089844 311.492188 116.871094 L 334.902344 157.398438 C 337.660156 162.175781 336.023438 168.289062 331.242188 171.046875 C 329.667969 171.953125 327.949219 172.386719 326.253906 172.386719 C 322.800781 172.386719 319.441406 170.59375 317.585938 167.390625 Z M 218.613281 190.488281 C 221.371094 185.707031 227.484375 184.070312 232.265625 186.832031 L 272.808594 210.226562 C 277.589844 212.988281 279.226562 219.097656 276.464844 223.878906 C 274.613281 227.082031 271.253906 228.875 267.800781 228.875 C 266.105469 228.875 264.386719 228.441406 262.8125 227.535156 L 222.269531 204.136719 C 217.488281 201.375 215.851562 195.265625 218.613281 190.488281 Z M 188.648438 297.007812 C 188.648438 291.488281 193.125 287.015625 198.644531 287.015625 L 245.460938 287.015625 C 250.980469 287.015625 255.453125 291.488281 255.453125 297.007812 C 255.453125 302.523438 250.980469 307 245.460938 307 L 198.644531 307 C 193.125 307 188.648438 302.527344 188.648438 297.007812 Z M 474.601562 160.027344 L 498.007812 119.5 C 500.769531 114.71875 506.882812 113.082031 511.664062 115.84375 C 516.441406 118.601562 518.082031 124.710938 515.320312 129.492188 L 491.914062 170.019531 C 490.0625 173.222656 486.703125 175.015625 483.25 175.015625 C 481.550781 175.015625 479.832031 174.585938 478.257812 173.675781 C 473.480469 170.917969 471.84375 164.808594 474.601562 160.027344 Z M 531.109375 228.433594 C 528.351562 223.652344 529.988281 217.542969 534.769531 214.785156 L 575.3125 191.386719 C 580.09375 188.628906 586.207031 190.265625 588.964844 195.042969 C 591.726562 199.820312 590.089844 205.933594 585.308594 208.691406 L 544.765625 232.089844 C 543.191406 232.996094 541.472656 233.429688 539.777344 233.429688 C 536.320312 233.429688 532.960938 231.636719 531.109375 228.433594 Z M 559.488281 292.273438 L 606.300781 292.273438 C 611.820312 292.273438 616.296875 296.746094 616.296875 302.265625 C 616.296875 307.785156 611.820312 312.257812 606.300781 312.257812 L 559.488281 312.257812 C 553.964844 312.257812 549.492188 307.785156 549.492188 302.265625 C 549.492188 296.75 553.96875 292.273438 559.488281 292.273438 Z M 559.488281 292.273438 "/></g><g style="fill:#000000;fill-opacity:1;"><g transform="translate(452.830877, 521.818698)"><path style="stroke:none" d="M 2.234375 -1.546875 C 2.234375 -2.203125 2.378906 -2.695312 2.671875 -3.03125 C 2.972656 -3.375 3.398438 -3.546875 3.953125 -3.546875 C 4.523438 -3.546875 4.96875 -3.375 5.28125 -3.03125 C 5.59375 -2.695312 5.75 -2.203125 5.75 -1.546875 C 5.75 -0.910156 5.585938 -0.421875 5.265625 -0.078125 C 4.953125 0.253906 4.515625 0.421875 3.953125 0.421875 C 3.453125 0.421875 3.039062 0.269531 2.71875 -0.03125 C 2.394531 -0.34375 2.234375 -0.847656 2.234375 -1.546875 Z M 2.234375 -1.546875 "/></g></g></g></svg>