<svg xmlns="http://www.w3.org/2000/svg" xmlns:xlink="http://www.w3.org/1999/xlink" width="500" zoomAndPan="magnify" viewBox="0 0 375 374.999991" height="500" preserveAspectRatio="xMidYMid meet" version="1.2"><defs><clipPath id="972cb5f6d7"><path d="M 143 137 L 232 137 L 232 291.414062 L 143 291.414062 Z M 143 137 "/></clipPath><clipPath id="5318d9a89d"><path d="M 164 83.664062 L 211 83.664062 L 211 131 L 164 131 Z M 164 83.664062 "/></clipPath><clipPath id="f04d155a00"><path d="M 83.664062 157 L 131 157 L 131 218 L 83.664062 218 Z M 83.664062 157 "/></clipPath><clipPath id="d59232d599"><path d="M 237 160 L 291.414062 160 L 291.414062 215 L 237 215 Z M 237 160 "/></clipPath></defs><g id="461f1f8330"><path style=" stroke:none;fill-rule:nonzero;fill:#ffffff;fill-opacity:1;" d="M 187.5 197.546875 C 178.261719 197.546875 170.75 190.035156 170.75 180.800781 C 170.75 171.5625 178.261719 164.050781 187.5 164.050781 C 196.734375 164.050781 204.246094 171.5625 204.246094 180.800781 C 204.246094 190.035156 196.734375 197.546875 187.5 197.546875 Z M 187.5 157.351562 C 174.570312 157.351562 164.050781 167.871094 164.050781 180.800781 C 164.050781 193.726562 174.570312 204.246094 187.5 204.246094 C 200.425781 204.246094 210.945312 193.726562 210.945312 180.800781 C 210.945312 167.871094 200.425781 157.351562 187.5 157.351562 "/><path style=" stroke:none;fill-rule:nonzero;fill:#ffffff;fill-opacity:1;" d="M 187.5 184.148438 C 185.652344 184.148438 184.148438 182.644531 184.148438 180.800781 C 184.148438 178.953125 185.652344 177.449219 187.5 177.449219 C 189.34375 177.449219 190.847656 178.953125 190.847656 180.800781 C 190.847656 182.644531 189.34375 184.148438 187.5 184.148438 Z M 187.5 170.75 C 181.949219 170.75 177.449219 175.25 177.449219 180.800781 C 177.449219 186.347656 181.949219 190.847656 187.5 190.847656 C 193.046875 190.847656 197.546875 186.347656 197.546875 180.800781 C 197.546875 175.25 193.046875 170.75 187.5 170.75 "/><g clip-rule="nonzero" clip-path="url(#972cb5f6d7)"><path style=" stroke:none;fill-rule:nonzero;fill:#ffffff;fill-opacity:1;" d="M 224.34375 182.460938 C 224.34375 184.03125 223.347656 185.40625 221.871094 185.890625 C 218.9375 186.84375 216.636719 189.003906 215.550781 191.800781 C 215.40625 192.167969 215.261719 192.535156 215.105469 192.886719 C 213.914062 195.636719 214.019531 198.777344 215.394531 201.496094 C 216.097656 202.898438 215.835938 204.574219 214.738281 205.671875 L 212.371094 208.027344 C 211.273438 209.140625 209.597656 209.402344 208.195312 208.695312 C 205.476562 207.320312 202.335938 207.214844 199.585938 208.40625 C 199.234375 208.5625 198.882812 208.707031 198.515625 208.851562 C 195.714844 209.9375 193.542969 212.238281 192.585938 215.171875 C 192.105469 216.648438 190.730469 217.644531 189.160156 217.644531 L 185.835938 217.644531 C 184.265625 217.644531 182.90625 216.648438 182.410156 215.15625 C 181.453125 212.238281 179.28125 209.9375 176.46875 208.839844 C 176.113281 208.707031 175.761719 208.5625 175.410156 208.40625 C 174.140625 207.855469 172.792969 207.582031 171.429688 207.582031 C 169.847656 207.582031 168.265625 207.960938 166.800781 208.695312 C 165.398438 209.402344 163.722656 209.140625 162.625 208.027344 L 160.257812 205.671875 C 159.160156 204.574219 158.898438 202.898438 159.601562 201.496094 C 160.976562 198.777344 161.082031 195.636719 159.890625 192.886719 C 159.734375 192.535156 159.589844 192.167969 159.445312 191.816406 C 158.359375 189.003906 156.042969 186.84375 153.125 185.890625 C 151.648438 185.40625 150.652344 184.03125 150.652344 182.460938 L 150.652344 179.136719 C 150.652344 177.566406 151.648438 176.195312 153.125 175.710938 C 156.058594 174.753906 158.359375 172.59375 159.445312 169.78125 C 159.589844 169.429688 159.734375 169.0625 159.890625 168.710938 C 161.082031 165.960938 160.976562 162.820312 159.601562 160.101562 C 158.898438 158.699219 159.160156 157.027344 160.257812 155.925781 L 162.625 153.570312 C 163.722656 152.472656 165.398438 152.199219 166.800781 152.902344 C 169.519531 154.277344 172.660156 154.382812 175.410156 153.191406 C 175.761719 153.035156 176.113281 152.890625 176.480469 152.746094 C 179.28125 151.660156 181.453125 149.359375 182.410156 146.425781 C 182.890625 144.949219 184.265625 143.953125 185.835938 143.953125 L 189.160156 143.953125 C 190.730469 143.953125 192.105469 144.949219 192.585938 146.425781 C 193.542969 149.359375 195.714844 151.660156 198.527344 152.761719 C 198.882812 152.890625 199.234375 153.035156 199.585938 153.191406 C 202.320312 154.382812 205.476562 154.277344 208.195312 152.902344 C 209.597656 152.199219 211.273438 152.472656 212.371094 153.570312 L 214.738281 155.925781 C 215.835938 157.027344 216.097656 158.699219 215.394531 160.101562 C 214.019531 162.820312 213.914062 165.960938 215.105469 168.710938 C 215.261719 169.0625 215.40625 169.429688 215.550781 169.78125 C 216.636719 172.582031 218.9375 174.753906 221.871094 175.710938 C 223.347656 176.195312 224.34375 177.566406 224.34375 179.136719 Z M 189.789062 283.363281 C 188.792969 284.945312 186.203125 284.945312 185.207031 283.363281 L 173.445312 264.535156 L 201.550781 264.535156 Z M 177.449219 257.835938 L 170.75 257.835938 L 170.75 214.425781 C 171.429688 214.292969 172.113281 214.28125 172.738281 214.554688 C 173.171875 214.738281 173.617188 214.921875 174.046875 215.09375 C 174.988281 215.457031 175.710938 216.242188 176.050781 217.265625 C 176.375 218.257812 176.859375 219.1875 177.449219 220.011719 Z M 190.847656 257.835938 L 184.148438 257.835938 L 184.148438 224.199219 C 184.699219 224.289062 185.261719 224.34375 185.835938 224.34375 L 189.160156 224.34375 C 189.734375 224.34375 190.296875 224.289062 190.847656 224.199219 Z M 204.246094 257.835938 L 197.546875 257.835938 L 197.546875 220.011719 C 198.136719 219.1875 198.621094 218.257812 198.945312 217.265625 C 199.285156 216.242188 200.007812 215.457031 200.933594 215.09375 C 201.378906 214.921875 201.824219 214.738281 202.257812 214.554688 C 202.882812 214.28125 203.566406 214.292969 204.246094 214.425781 Z M 231.042969 182.460938 L 231.042969 179.136719 C 231.042969 174.675781 228.1875 170.738281 223.949219 169.351562 C 222.941406 169.011719 222.15625 168.289062 221.777344 167.335938 C 221.609375 166.902344 221.4375 166.472656 221.253906 166.039062 C 220.847656 165.125 220.902344 164.066406 221.371094 163.109375 C 223.386719 159.132812 222.617188 154.34375 219.460938 151.191406 L 217.105469 148.835938 C 213.953125 145.683594 209.164062 144.910156 205.1875 146.925781 C 204.230469 147.410156 203.171875 147.449219 202.257812 147.042969 C 201.824219 146.859375 201.378906 146.675781 200.949219 146.507812 C 200.007812 146.140625 199.285156 145.355469 198.945312 144.335938 C 197.558594 140.109375 193.632812 137.253906 189.160156 137.253906 L 185.835938 137.253906 C 181.363281 137.253906 177.4375 140.109375 176.050781 144.347656 C 175.710938 145.355469 174.988281 146.140625 174.0625 146.507812 C 173.617188 146.675781 173.171875 146.859375 172.738281 147.042969 C 171.824219 147.433594 170.765625 147.394531 169.808594 146.925781 C 165.832031 144.910156 161.042969 145.683594 157.890625 148.835938 L 155.535156 151.191406 C 152.378906 154.34375 151.609375 159.132812 153.625 163.109375 C 154.09375 164.066406 154.148438 165.125 153.742188 166.039062 C 153.558594 166.472656 153.386719 166.902344 153.207031 167.347656 C 152.839844 168.289062 152.054688 169.011719 151.03125 169.351562 C 146.792969 170.738281 143.953125 174.675781 143.953125 179.136719 L 143.953125 182.460938 C 143.953125 186.921875 146.808594 190.859375 151.046875 192.246094 C 152.054688 192.585938 152.839844 193.308594 153.21875 194.25 C 153.386719 194.695312 153.558594 195.125 153.742188 195.558594 C 154.148438 196.472656 154.09375 197.535156 153.625 198.488281 C 151.609375 202.464844 152.378906 207.253906 155.535156 210.40625 L 157.890625 212.761719 C 159.589844 214.464844 161.773438 215.445312 164.050781 215.695312 L 164.050781 262.140625 L 179.53125 286.921875 C 181.257812 289.683594 184.238281 291.332031 187.5 291.332031 C 190.757812 291.332031 193.738281 289.683594 195.464844 286.910156 L 210.945312 262.140625 L 210.945312 215.707031 C 213.222656 215.445312 215.40625 214.476562 217.105469 212.761719 L 219.460938 210.40625 C 222.617188 207.253906 223.386719 202.464844 221.371094 198.488281 C 220.902344 197.535156 220.847656 196.472656 221.253906 195.558594 C 221.4375 195.125 221.609375 194.695312 221.792969 194.25 C 222.15625 193.308594 222.941406 192.585938 223.964844 192.246094 C 228.203125 190.859375 231.042969 186.921875 231.042969 182.460938 "/></g><g clip-rule="nonzero" clip-path="url(#5318d9a89d)"><path style=" stroke:none;fill-rule:nonzero;fill:#ffffff;fill-opacity:1;" d="M 204.246094 123.859375 L 170.75 123.859375 L 170.75 90.363281 L 204.246094 90.363281 Z M 210.945312 83.664062 L 164.050781 83.664062 L 164.050781 130.558594 L 210.945312 130.558594 L 210.945312 83.664062 "/></g><path style=" stroke:none;fill-rule:nonzero;fill:#ffffff;fill-opacity:1;" d="M 197.546875 97.0625 L 177.449219 97.0625 L 177.449219 103.761719 L 197.546875 103.761719 L 197.546875 97.0625 "/><path style=" stroke:none;fill-rule:nonzero;fill:#ffffff;fill-opacity:1;" d="M 197.546875 110.460938 L 177.449219 110.460938 L 177.449219 117.160156 L 197.546875 117.160156 L 197.546875 110.460938 "/><g clip-rule="nonzero" clip-path="url(#f04d155a00)"><path style=" stroke:none;fill-rule:nonzero;fill:#ffffff;fill-opacity:1;" d="M 100.410156 207.59375 L 100.410156 204.246094 L 113.808594 204.246094 L 113.808594 207.59375 C 113.808594 209.441406 112.304688 210.945312 110.460938 210.945312 L 103.761719 210.945312 C 101.917969 210.945312 100.410156 209.441406 100.410156 207.59375 Z M 103.761719 180.800781 C 103.761719 178.953125 105.265625 177.449219 107.109375 177.449219 C 108.957031 177.449219 110.460938 178.953125 110.460938 180.800781 C 110.460938 182.644531 108.957031 184.148438 107.109375 184.148438 C 105.265625 184.148438 103.761719 182.644531 103.761719 180.800781 Z M 93.710938 190.847656 C 91.554688 187.96875 90.363281 184.398438 90.363281 180.800781 C 90.363281 171.5625 97.875 164.050781 107.109375 164.050781 C 116.347656 164.050781 123.859375 171.5625 123.859375 180.800781 C 123.859375 184.398438 122.667969 187.96875 120.507812 190.847656 L 115.484375 197.546875 L 110.460938 197.546875 L 110.460938 190.234375 C 114.347656 188.847656 117.160156 185.15625 117.160156 180.800781 C 117.160156 175.25 112.65625 170.75 107.109375 170.75 C 101.5625 170.75 97.0625 175.25 97.0625 180.800781 C 97.0625 185.15625 99.875 188.847656 103.761719 190.234375 L 103.761719 197.546875 L 98.738281 197.546875 Z M 110.460938 217.644531 C 116.007812 217.644531 120.507812 213.140625 120.507812 207.59375 L 120.507812 202.007812 L 125.859375 194.863281 C 128.894531 190.835938 130.558594 185.835938 130.558594 180.800781 C 130.558594 167.871094 120.039062 157.351562 107.109375 157.351562 C 94.183594 157.351562 83.664062 167.871094 83.664062 180.800781 C 83.664062 185.835938 85.324219 190.835938 88.347656 194.863281 L 93.710938 202.007812 L 93.710938 207.59375 C 93.710938 213.140625 98.214844 217.644531 103.761719 217.644531 L 110.460938 217.644531 "/></g><g clip-rule="nonzero" clip-path="url(#d59232d599)"><path style=" stroke:none;fill-rule:nonzero;fill:#ffffff;fill-opacity:1;" d="M 267.886719 207.292969 L 267.886719 200.894531 L 261.1875 200.894531 L 261.1875 207.292969 C 252.785156 205.867188 246.167969 199.246094 244.738281 190.847656 L 251.136719 190.847656 L 251.136719 184.148438 L 244.738281 184.148438 C 246.167969 175.75 252.785156 169.128906 261.1875 167.703125 L 261.1875 174.101562 L 267.886719 174.101562 L 267.886719 167.703125 C 276.285156 169.128906 282.90625 175.75 284.332031 184.148438 L 277.933594 184.148438 L 277.933594 190.847656 L 284.332031 190.847656 C 282.90625 199.246094 276.285156 205.867188 267.886719 207.292969 Z M 264.535156 160.703125 C 249.765625 160.703125 237.742188 172.726562 237.742188 187.5 C 237.742188 202.269531 249.765625 214.292969 264.535156 214.292969 C 279.308594 214.292969 291.332031 202.269531 291.332031 187.5 C 291.332031 172.726562 279.308594 160.703125 264.535156 160.703125 "/></g><path style=" stroke:none;fill-rule:nonzero;fill:#ffffff;fill-opacity:1;" d="M 263.148438 184.148438 L 257.835938 184.148438 L 257.835938 190.847656 L 265.921875 190.847656 L 276.953125 179.816406 L 272.214844 175.082031 L 263.148438 184.148438 "/><path style=" stroke:none;fill-rule:nonzero;fill:#ffffff;fill-opacity:1;" d="M 261.984375 142.34375 L 265.804688 148.640625 L 274.425781 121.527344 L 268.042969 119.488281 L 263.777344 132.910156 C 254.070312 119.34375 241.023438 108.667969 225.703125 101.824219 L 222.980469 107.933594 C 239.230469 115.195312 252.707031 127.101562 261.984375 142.34375 "/><path style=" stroke:none;fill-rule:nonzero;fill:#ffffff;fill-opacity:1;" d="M 101.824219 149.292969 L 107.949219 152.015625 C 115.195312 135.765625 127.101562 122.289062 142.34375 113.011719 L 148.640625 109.191406 L 121.515625 100.570312 L 119.5 106.953125 L 132.910156 111.21875 C 119.34375 120.925781 108.667969 133.972656 101.824219 149.292969 "/><path style=" stroke:none;fill-rule:nonzero;fill:#ffffff;fill-opacity:1;" d="M 113.011719 232.652344 L 109.191406 226.355469 L 100.570312 253.46875 L 106.953125 255.507812 L 111.21875 242.085938 C 120.925781 255.652344 133.972656 266.328125 149.292969 273.171875 L 152.015625 267.046875 C 135.765625 259.800781 122.289062 247.894531 113.011719 232.652344 "/><path style=" stroke:none;fill-rule:nonzero;fill:#ffffff;fill-opacity:1;" d="M 273.171875 225.703125 L 267.0625 222.980469 C 259.800781 239.230469 247.894531 252.707031 232.652344 261.984375 L 226.355469 265.804688 L 253.480469 274.425781 L 255.496094 268.042969 L 242.085938 263.777344 C 255.652344 254.070312 266.328125 241.023438 273.171875 225.703125 "/><g style="fill:#ffffff;fill-opacity:1;"><g transform="translate(83.664095, 176.241096)"><path style="stroke:none" d="M 1.1875 -0.828125 C 1.1875 -1.179688 1.265625 -1.445312 1.421875 -1.625 C 1.585938 -1.800781 1.816406 -1.890625 2.109375 -1.890625 C 2.410156 -1.890625 2.644531 -1.800781 2.8125 -1.625 C 2.988281 -1.445312 3.078125 -1.179688 3.078125 -0.828125 C 3.078125 -0.492188 2.988281 -0.234375 2.8125 -0.046875 C 2.644531 0.140625 2.410156 0.234375 2.109375 0.234375 C 1.847656 0.234375 1.628906 0.148438 1.453125 -0.015625 C 1.273438 -0.179688 1.1875 -0.453125 1.1875 -0.828125 Z M 1.1875 -0.828125 "/></g></g></g></svg>