<svg xmlns="http://www.w3.org/2000/svg" xmlns:xlink="http://www.w3.org/1999/xlink" width="1080" zoomAndPan="magnify" viewBox="0 0 810 809.999993" height="1080" preserveAspectRatio="xMidYMid meet" version="1.2"><defs><clipPath id="1f013e6075"><path d="M 134 50.503906 L 674 50.503906 L 674 759.253906 L 134 759.253906 Z M 134 50.503906 "/></clipPath></defs><g id="3343513c36"><g clip-rule="nonzero" clip-path="url(#1f013e6075)"><path style=" stroke:none;fill-rule:nonzero;fill:#000000;fill-opacity:1;" d="M 617.523438 50.503906 L 190.667969 50.503906 C 159.578125 50.503906 134.289062 75.792969 134.289062 106.882812 L 134.289062 702.875 C 134.289062 733.980469 159.578125 759.253906 190.667969 759.253906 L 617.523438 759.253906 C 648.613281 759.253906 673.902344 733.980469 673.902344 702.875 L 673.902344 106.882812 C 673.902344 75.808594 648.613281 50.503906 617.523438 50.503906 Z M 657.792969 702.890625 C 657.792969 725.105469 639.734375 743.160156 617.523438 743.160156 L 190.667969 743.160156 C 168.457031 743.160156 150.398438 725.105469 150.398438 702.890625 L 150.398438 106.898438 C 150.398438 84.699219 168.457031 66.628906 190.667969 66.628906 L 617.523438 66.628906 C 639.734375 66.628906 657.792969 84.699219 657.792969 106.898438 Z M 657.792969 702.890625 "/></g><path style=" stroke:none;fill-rule:nonzero;fill:#000000;fill-opacity:1;" d="M 588.609375 396.824219 L 321.207031 396.824219 C 316.757812 396.824219 313.152344 400.433594 313.152344 404.878906 C 313.152344 409.324219 316.757812 412.933594 321.207031 412.933594 L 588.609375 412.933594 C 593.070312 412.933594 596.664062 409.324219 596.664062 404.878906 C 596.664062 400.433594 593.070312 396.824219 588.609375 396.824219 Z M 588.609375 396.824219 "/><path style=" stroke:none;fill-rule:nonzero;fill:#000000;fill-opacity:1;" d="M 588.609375 288.628906 L 321.207031 288.628906 C 316.757812 288.628906 313.152344 292.234375 313.152344 296.679688 C 313.152344 301.125 316.757812 304.734375 321.207031 304.734375 L 588.609375 304.734375 C 593.070312 304.734375 596.664062 301.125 596.664062 296.679688 C 596.664062 292.234375 593.070312 288.628906 588.609375 288.628906 Z M 588.609375 288.628906 "/><path style=" stroke:none;fill-rule:nonzero;fill:#000000;fill-opacity:1;" d="M 588.609375 505.039062 L 321.207031 505.039062 C 316.757812 505.039062 313.152344 508.660156 313.152344 513.089844 C 313.152344 517.535156 316.757812 521.144531 321.207031 521.144531 L 588.609375 521.144531 C 593.070312 521.144531 596.664062 517.535156 596.664062 513.089844 C 596.664062 508.644531 593.070312 505.039062 588.609375 505.039062 Z M 588.609375 505.039062 "/><path style=" stroke:none;fill-rule:nonzero;fill:#000000;fill-opacity:1;" d="M 588.609375 180.429688 L 321.207031 180.429688 C 316.757812 180.429688 313.152344 184.039062 313.152344 188.484375 C 313.152344 192.929688 316.757812 196.539062 321.207031 196.539062 L 588.609375 196.539062 C 593.070312 196.539062 596.664062 192.929688 596.664062 188.484375 C 596.664062 184.039062 593.070312 180.429688 588.609375 180.429688 Z M 588.609375 180.429688 "/><path style=" stroke:none;fill-rule:nonzero;fill:#000000;fill-opacity:1;" d="M 588.609375 613.234375 L 321.207031 613.234375 C 316.757812 613.234375 313.152344 616.859375 313.152344 621.289062 C 313.152344 625.734375 316.757812 629.34375 321.207031 629.34375 L 588.609375 629.34375 C 593.070312 629.34375 596.664062 625.734375 596.664062 621.289062 C 596.664062 616.84375 593.070312 613.234375 588.609375 613.234375 Z M 588.609375 613.234375 "/><path style=" stroke:none;fill-rule:nonzero;fill:#000000;fill-opacity:1;" d="M 238.589844 231.296875 C 262.203125 231.296875 281.417969 212.097656 281.417969 188.484375 C 281.417969 181.332031 279.484375 174.679688 276.378906 168.734375 C 289.101562 156.140625 302.972656 144.71875 318.082031 134.765625 C 321.785156 132.316406 322.816406 127.320312 320.367188 123.601562 C 317.917969 119.878906 312.925781 118.882812 309.222656 121.3125 C 293.726562 131.542969 279.503906 143.285156 266.359375 156.140625 C 258.867188 149.710938 249.234375 145.667969 238.605469 145.667969 C 228.503906 145.667969 219.339844 149.339844 211.996094 155.203125 C 209.128906 152.515625 204.714844 152.160156 201.539062 154.6875 C 198.078125 157.476562 197.53125 162.535156 200.316406 166.011719 L 201.523438 167.511719 C 197.980469 173.746094 195.804688 180.832031 195.804688 188.5 C 195.773438 212.097656 214.992188 231.296875 238.589844 231.296875 Z M 265.328125 188.484375 C 265.328125 203.222656 253.34375 215.191406 238.605469 215.191406 C 223.882812 215.191406 211.898438 203.207031 211.898438 188.484375 C 211.898438 186.117188 212.300781 183.84375 212.898438 181.671875 L 232.339844 205.863281 C 233.867188 207.78125 236.171875 208.875 238.621094 208.875 C 238.703125 208.875 238.796875 208.875 238.878906 208.875 C 241.40625 208.796875 243.757812 207.539062 245.207031 205.476562 C 251.121094 197.085938 257.613281 189.226562 264.34375 181.621094 C 264.890625 183.8125 265.328125 186.082031 265.328125 188.484375 Z M 255.066406 167.609375 C 249.21875 174.019531 243.582031 180.65625 238.296875 187.597656 L 222.191406 167.542969 C 226.734375 163.96875 232.386719 161.761719 238.605469 161.761719 C 244.839844 161.777344 250.523438 164.015625 255.066406 167.609375 Z M 255.066406 167.609375 "/><path style=" stroke:none;fill-rule:nonzero;fill:#000000;fill-opacity:1;" d="M 238.589844 362.0625 C 214.972656 362.0625 195.773438 381.28125 195.773438 404.894531 C 195.773438 428.523438 214.972656 447.726562 238.589844 447.726562 C 262.203125 447.726562 281.417969 428.523438 281.417969 404.894531 C 281.417969 381.28125 262.203125 362.0625 238.589844 362.0625 Z M 238.589844 431.601562 C 223.867188 431.601562 211.882812 419.617188 211.882812 404.878906 C 211.882812 390.140625 223.867188 378.15625 238.589844 378.15625 C 253.328125 378.15625 265.3125 390.140625 265.3125 404.878906 C 265.3125 419.617188 253.328125 431.601562 238.589844 431.601562 Z M 238.589844 431.601562 "/><path style=" stroke:none;fill-rule:nonzero;fill:#000000;fill-opacity:1;" d="M 238.589844 470.277344 C 214.972656 470.277344 195.773438 489.476562 195.773438 513.089844 C 195.773438 536.722656 214.972656 555.921875 238.589844 555.921875 C 262.203125 555.921875 281.417969 536.722656 281.417969 513.089844 C 281.417969 489.476562 262.203125 470.277344 238.589844 470.277344 Z M 238.589844 539.796875 C 223.867188 539.796875 211.882812 527.8125 211.882812 513.089844 C 211.882812 498.335938 223.867188 486.351562 238.589844 486.351562 C 253.328125 486.351562 265.3125 498.335938 265.3125 513.089844 C 265.3125 527.8125 253.328125 539.796875 238.589844 539.796875 Z M 238.589844 539.796875 "/><path style=" stroke:none;fill-rule:nonzero;fill:#000000;fill-opacity:1;" d="M 238.589844 578.457031 C 214.972656 578.457031 195.773438 597.675781 195.773438 621.273438 C 195.773438 644.902344 214.992188 664.121094 238.589844 664.121094 C 262.1875 664.121094 281.417969 644.902344 281.417969 621.273438 C 281.417969 597.691406 262.203125 578.457031 238.589844 578.457031 Z M 238.589844 648.027344 C 223.867188 648.027344 211.882812 636.042969 211.882812 621.289062 C 211.882812 606.566406 223.867188 594.582031 238.589844 594.582031 C 253.328125 594.582031 265.3125 606.566406 265.3125 621.289062 C 265.3125 636.042969 253.328125 648.027344 238.589844 648.027344 Z M 238.589844 648.027344 "/><path style=" stroke:none;fill-rule:nonzero;fill:#000000;fill-opacity:1;" d="M 318.082031 242.960938 C 321.785156 240.511719 322.816406 235.519531 320.367188 231.8125 C 317.917969 228.078125 312.925781 227.0625 309.222656 229.527344 C 293.726562 239.773438 279.503906 251.5 266.359375 264.351562 C 258.867188 257.910156 249.234375 253.867188 238.605469 253.867188 C 228.503906 253.867188 219.324219 257.539062 211.996094 263.417969 C 209.109375 260.726562 204.714844 260.375 201.539062 262.902344 C 198.078125 265.6875 197.53125 270.746094 200.316406 274.226562 L 201.523438 275.722656 C 197.980469 281.957031 195.804688 289.046875 195.804688 296.695312 C 195.804688 320.3125 215.007812 339.527344 238.621094 339.527344 C 262.234375 339.527344 281.453125 320.3125 281.453125 296.695312 C 281.453125 289.546875 279.519531 282.890625 276.410156 276.964844 C 289.101562 264.351562 302.972656 252.933594 318.082031 242.960938 Z M 255.097656 275.804688 C 249.234375 282.214844 243.597656 288.851562 238.316406 295.8125 L 222.207031 275.757812 C 226.75 272.179688 232.402344 269.957031 238.621094 269.957031 C 244.839844 269.957031 250.523438 272.195312 255.097656 275.804688 Z M 265.328125 296.679688 C 265.328125 311.417969 253.34375 323.402344 238.605469 323.402344 C 223.882812 323.402344 211.898438 311.417969 211.898438 296.679688 C 211.898438 294.3125 212.300781 292.058594 212.898438 289.867188 L 232.339844 314.0625 C 233.867188 315.976562 236.171875 317.074219 238.621094 317.074219 C 238.703125 317.074219 238.796875 317.074219 238.878906 317.074219 C 241.40625 316.992188 243.757812 315.738281 245.207031 313.675781 C 251.121094 305.28125 257.613281 297.421875 264.34375 289.804688 C 264.890625 292.007812 265.328125 294.296875 265.328125 296.679688 Z M 265.328125 296.679688 "/><g style="fill:#000000;fill-opacity:1;"><g transform="translate(452.830877, 521.818698)"><path style="stroke:none" d="M 2.234375 -1.546875 C 2.234375 -2.203125 2.378906 -2.695312 2.671875 -3.03125 C 2.972656 -3.375 3.398438 -3.546875 3.953125 -3.546875 C 4.523438 -3.546875 4.96875 -3.375 5.28125 -3.03125 C 5.59375 -2.695312 5.75 -2.203125 5.75 -1.546875 C 5.75 -0.910156 5.585938 -0.421875 5.265625 -0.078125 C 4.953125 0.253906 4.515625 0.421875 3.953125 0.421875 C 3.453125 0.421875 3.039062 0.269531 2.71875 -0.03125 C 2.394531 -0.34375 2.234375 -0.847656 2.234375 -1.546875 Z M 2.234375 -1.546875 "/></g></g></g></svg>