<svg xmlns="http://www.w3.org/2000/svg" xmlns:xlink="http://www.w3.org/1999/xlink" width="500" zoomAndPan="magnify" viewBox="0 0 375 374.999991" height="500" preserveAspectRatio="xMidYMid meet" version="1.2"><defs><clipPath id="5b5b75ccd7"><path d="M 57.34375 58.648438 L 317.59375 58.648438 L 317.59375 316.648438 L 57.34375 316.648438 Z M 57.34375 58.648438 "/></clipPath></defs><g id="c0c0fe8e28"><g clip-rule="nonzero" clip-path="url(#5b5b75ccd7)"><path style=" stroke:none;fill-rule:nonzero;fill:#ffffff;fill-opacity:1;" d="M 316.515625 178.910156 C 315.40625 176.648438 313.15625 175.246094 310.644531 175.246094 L 305.101562 175.246094 C 303.285156 144.351562 290.152344 115.578125 267.863281 93.855469 C 244.582031 71.164062 213.851562 58.664062 181.335938 58.664062 C 148.21875 58.664062 117.082031 71.5625 93.664062 94.980469 C 70.242188 118.398438 57.347656 149.535156 57.347656 182.652344 C 57.347656 215.769531 70.242188 246.90625 93.660156 270.324219 C 117.082031 293.746094 148.214844 306.640625 181.335938 306.640625 C 183.585938 306.640625 185.410156 304.816406 185.410156 302.566406 L 185.410156 284.78125 C 185.410156 282.527344 183.585938 280.703125 181.335938 280.703125 C 127.269531 280.703125 83.285156 236.71875 83.285156 182.652344 C 83.285156 128.585938 127.269531 84.601562 181.335938 84.601562 C 233.167969 84.601562 275.332031 124.082031 279.105469 175.246094 L 274.066406 175.246094 C 274.066406 175.246094 274.066406 175.246094 274.0625 175.246094 C 271.550781 175.246094 269.300781 176.648438 268.191406 178.90625 C 267.089844 181.152344 267.359375 183.78125 268.894531 185.773438 L 287.183594 209.441406 C 288.429688 211.054688 290.316406 211.980469 292.355469 211.980469 C 294.390625 211.976562 296.277344 211.050781 297.523438 209.4375 L 315.8125 185.769531 C 317.347656 183.78125 317.617188 181.152344 316.515625 178.910156 Z M 292.355469 202.796875 L 277.363281 183.398438 L 283.402344 183.398438 C 284.503906 183.398438 285.5625 182.949219 286.328125 182.15625 C 287.097656 181.363281 287.511719 180.292969 287.476562 179.191406 C 286.589844 151.554688 275.15625 125.710938 255.28125 106.425781 C 235.359375 87.09375 209.097656 76.449219 181.335938 76.449219 C 122.773438 76.449219 75.132812 124.09375 75.132812 182.652344 C 75.132812 239.847656 120.582031 286.628906 177.257812 288.777344 L 177.257812 298.417969 C 115.265625 296.265625 65.496094 245.160156 65.496094 182.652344 C 65.496094 118.78125 117.460938 66.816406 181.335938 66.816406 C 244.539062 66.816406 295.402344 116.28125 297.125 179.433594 C 297.183594 181.640625 298.992188 183.398438 301.199219 183.398438 L 307.34375 183.398438 Z M 249.46875 211.152344 C 220.503906 211.152344 196.9375 234.714844 196.9375 263.683594 C 196.9375 292.648438 220.503906 316.214844 249.46875 316.214844 C 278.4375 316.214844 302 292.648438 302 263.683594 C 302 234.714844 278.4375 211.152344 249.46875 211.152344 Z M 249.46875 308.0625 C 225 308.0625 205.089844 288.152344 205.089844 263.683594 C 205.089844 239.210938 225 219.304688 249.46875 219.304688 C 273.941406 219.304688 293.847656 239.210938 293.847656 263.683594 C 293.847656 288.152344 273.941406 308.0625 249.46875 308.0625 Z M 260.765625 241.832031 C 260.761719 241.835938 260.761719 241.835938 260.757812 241.839844 L 242.625 260.140625 L 238.035156 255.664062 C 235.734375 253.425781 232.691406 252.210938 229.492188 252.265625 C 226.28125 252.308594 223.285156 253.601562 221.046875 255.902344 C 218.808594 258.199219 217.601562 261.234375 217.644531 264.441406 C 217.691406 267.652344 218.980469 270.652344 221.277344 272.886719 L 234.398438 285.671875 C 236.71875 287.929688 239.746094 289.058594 242.769531 289.054688 C 245.863281 289.054688 248.957031 287.878906 251.296875 285.527344 L 277.796875 258.773438 C 282.46875 254.078125 282.449219 246.457031 277.75 241.785156 C 273.054688 237.117188 265.433594 237.136719 260.765625 241.832031 Z M 272.011719 253.03125 L 245.507812 279.785156 C 244.023438 281.277344 241.589844 281.296875 240.085938 279.832031 L 226.964844 267.042969 C 226.226562 266.324219 225.8125 265.363281 225.796875 264.332031 C 225.785156 263.300781 226.171875 262.324219 226.890625 261.585938 C 227.609375 260.84375 228.574219 260.429688 229.605469 260.417969 C 229.625 260.417969 229.640625 260.414062 229.660156 260.414062 C 230.671875 260.414062 231.625 260.804688 232.347656 261.507812 L 239.832031 268.800781 C 241.433594 270.363281 243.996094 270.339844 245.570312 268.75 L 266.546875 247.578125 C 267.273438 246.847656 268.242188 246.445312 269.269531 246.445312 C 269.273438 246.445312 269.277344 246.445312 269.28125 246.445312 C 270.308594 246.445312 271.273438 246.84375 272.003906 247.566406 C 272.734375 248.292969 273.140625 249.261719 273.140625 250.292969 C 273.144531 251.324219 272.746094 252.292969 272.011719 253.03125 Z M 192.621094 123.550781 C 193.472656 114.367188 189.113281 105.804688 182.480469 103.628906 C 177.625 102.035156 172.863281 104.183594 169.742188 109.375 L 139.796875 159.179688 C 138.609375 158.28125 137.136719 157.742188 135.535156 157.742188 L 123.109375 157.742188 C 119.207031 157.742188 116.027344 160.917969 116.027344 164.824219 L 116.027344 226.296875 C 116.027344 230.203125 119.207031 233.378906 123.109375 233.378906 L 135.535156 233.378906 C 138.222656 233.378906 140.5625 231.875 141.761719 229.667969 L 147.945312 232.910156 C 148.527344 233.21875 149.179688 233.378906 149.839844 233.378906 L 197.449219 233.378906 C 204.546875 233.378906 210.316406 227.605469 210.316406 220.507812 C 210.316406 218.109375 209.65625 215.859375 208.507812 213.933594 C 212.234375 211.671875 214.726562 207.570312 214.726562 202.894531 C 214.726562 200.484375 214.0625 198.226562 212.910156 196.296875 C 216.640625 194.035156 219.136719 189.929688 219.136719 185.253906 C 219.136719 182.84375 218.472656 180.589844 217.320312 178.65625 C 221.046875 176.394531 223.546875 172.292969 223.546875 167.617188 C 223.546875 160.503906 217.773438 154.71875 210.65625 154.71875 L 184.582031 154.851562 C 185.441406 151.699219 186.363281 148.421875 187.261719 145.21875 C 189.945312 135.6875 192.257812 127.453125 192.621094 123.550781 Z M 124.179688 225.226562 L 124.179688 165.894531 L 134.464844 165.894531 L 134.464844 223.417969 C 134.464844 223.421875 134.464844 223.425781 134.464844 223.429688 L 134.464844 225.226562 Z M 210.675781 162.871094 C 213.277344 162.871094 215.394531 165 215.394531 167.617188 C 215.394531 170.230469 213.277344 172.359375 210.675781 172.359375 L 189.742188 172.359375 C 187.492188 172.359375 185.664062 174.183594 185.664062 176.4375 C 185.664062 178.6875 187.492188 180.511719 189.742188 180.511719 L 206.265625 180.511719 C 208.867188 180.511719 210.984375 182.640625 210.984375 185.257812 C 210.984375 187.871094 208.867188 190 206.265625 190 L 185.332031 190 C 183.082031 190 181.257812 191.824219 181.257812 194.074219 C 181.257812 196.328125 183.082031 198.152344 185.332031 198.152344 L 201.859375 198.152344 C 204.460938 198.152344 206.574219 200.28125 206.574219 202.894531 C 206.574219 205.511719 204.460938 207.640625 201.859375 207.640625 L 180.925781 207.640625 C 178.671875 207.640625 176.847656 209.464844 176.847656 211.714844 C 176.847656 213.96875 178.671875 215.792969 180.925781 215.792969 L 197.449219 215.792969 C 200.050781 215.792969 202.167969 217.910156 202.167969 220.511719 C 202.167969 223.109375 200.050781 225.226562 197.449219 225.226562 L 150.84375 225.226562 L 142.617188 220.910156 L 142.617188 170.3125 L 176.726562 113.574219 C 177.8125 111.773438 178.894531 111.03125 179.941406 111.375 C 182.171875 112.105469 185.078125 116.59375 184.503906 122.796875 C 184.210938 125.964844 181.773438 134.628906 179.414062 143.011719 C 178 148.042969 176.539062 153.242188 175.332031 157.941406 C 175.019531 159.164062 175.289062 160.464844 176.066406 161.460938 C 176.839844 162.453125 178.023438 163.03125 179.28125 163.03125 C 179.285156 163.03125 179.292969 163.03125 179.300781 163.03125 Z M 133.398438 212.171875 L 133.398438 218.394531 C 133.398438 220.648438 131.574219 222.472656 129.324219 222.472656 C 127.070312 222.472656 125.246094 220.648438 125.246094 218.394531 L 125.246094 212.171875 C 125.246094 209.921875 127.070312 208.09375 129.324219 208.09375 C 131.574219 208.09375 133.398438 209.917969 133.398438 212.171875 Z M 133.398438 212.171875 "/></g><g style="fill:#ffffff;fill-opacity:1;"><g transform="translate(119.628681, 215.257032)"><path style="stroke:none" d="M 1.1875 -0.828125 C 1.1875 -1.179688 1.265625 -1.445312 1.421875 -1.625 C 1.585938 -1.800781 1.816406 -1.890625 2.109375 -1.890625 C 2.410156 -1.890625 2.644531 -1.800781 2.8125 -1.625 C 2.988281 -1.445312 3.078125 -1.179688 3.078125 -0.828125 C 3.078125 -0.492188 2.988281 -0.234375 2.8125 -0.046875 C 2.644531 0.140625 2.410156 0.234375 2.109375 0.234375 C 1.847656 0.234375 1.628906 0.148438 1.453125 -0.015625 C 1.273438 -0.179688 1.1875 -0.453125 1.1875 -0.828125 Z M 1.1875 -0.828125 "/></g></g></g></svg>