<svg xmlns="http://www.w3.org/2000/svg" xmlns:xlink="http://www.w3.org/1999/xlink" width="1080" zoomAndPan="magnify" viewBox="0 0 810 809.999993" height="1080" preserveAspectRatio="xMidYMid meet" version="1.2"><defs><clipPath id="acbc7441a6"><path d="M 121.894531 124.726562 L 698 124.726562 L 698 695.476562 L 121.894531 695.476562 Z M 121.894531 124.726562 "/></clipPath></defs><g id="87c89ba74f"><g clip-rule="nonzero" clip-path="url(#acbc7441a6)"><path style=" stroke:none;fill-rule:nonzero;fill:#000000;fill-opacity:1;" d="M 696.25 391.148438 C 693.792969 386.140625 688.804688 383.03125 683.238281 383.03125 L 670.957031 383.03125 C 666.933594 314.59375 637.828125 250.859375 588.4375 202.734375 C 536.839844 152.46875 468.734375 124.78125 396.671875 124.78125 C 323.277344 124.78125 254.277344 153.351562 202.378906 205.230469 C 150.476562 257.105469 121.894531 326.078125 121.894531 399.441406 C 121.894531 472.800781 150.476562 541.773438 202.375 593.652344 C 254.277344 645.527344 323.277344 674.097656 396.671875 674.097656 C 401.660156 674.097656 405.703125 670.054688 405.703125 665.070312 L 405.703125 625.671875 C 405.703125 620.683594 401.660156 616.644531 396.671875 616.644531 C 276.855469 616.644531 179.378906 519.207031 179.378906 399.441406 C 179.378906 279.675781 276.855469 182.238281 396.671875 182.238281 C 511.539062 182.238281 604.988281 269.695312 613.34375 383.03125 L 602.179688 383.03125 C 602.175781 383.03125 602.175781 383.03125 602.171875 383.03125 C 596.605469 383.03125 591.617188 386.140625 589.160156 391.144531 C 586.714844 396.117188 587.3125 401.941406 590.71875 406.347656 L 631.25 458.777344 C 634.011719 462.351562 638.191406 464.402344 642.707031 464.402344 C 647.222656 464.402344 651.398438 462.351562 654.160156 458.777344 L 694.691406 406.347656 C 698.097656 401.941406 698.695312 396.117188 696.25 391.148438 Z M 642.707031 444.0625 L 609.480469 401.089844 L 622.867188 401.089844 C 625.3125 401.089844 627.652344 400.097656 629.355469 398.339844 C 631.058594 396.585938 631.972656 394.214844 631.894531 391.769531 C 629.929688 330.546875 604.589844 273.304688 560.546875 230.582031 C 516.402344 187.761719 458.203125 164.179688 396.671875 164.179688 C 266.894531 164.179688 161.3125 269.71875 161.3125 399.441406 C 161.3125 526.140625 262.035156 629.765625 387.640625 634.527344 L 387.640625 655.882812 C 250.253906 651.109375 139.960938 537.90625 139.960938 399.441406 C 139.960938 257.949219 255.121094 142.839844 396.671875 142.839844 C 536.742188 142.839844 649.457031 252.417969 653.277344 392.304688 C 653.410156 397.195312 657.414062 401.089844 662.308594 401.089844 L 675.925781 401.089844 Z M 547.667969 462.570312 C 483.472656 462.570312 431.25 514.769531 431.25 578.9375 C 431.25 643.101562 483.472656 695.304688 547.667969 695.304688 C 611.863281 695.304688 664.085938 643.101562 664.085938 578.9375 C 664.085938 514.769531 611.863281 462.570312 547.667969 462.570312 Z M 547.667969 677.246094 C 493.4375 677.246094 449.316406 633.144531 449.316406 578.9375 C 449.316406 524.726562 493.4375 480.625 547.667969 480.625 C 601.898438 480.625 646.019531 524.726562 646.019531 578.9375 C 646.019531 633.144531 601.898438 677.246094 547.667969 677.246094 Z M 572.699219 530.535156 C 572.695312 530.539062 572.6875 530.546875 572.683594 530.546875 L 532.5 571.089844 L 522.328125 561.175781 C 517.226562 556.21875 510.488281 553.527344 503.394531 553.644531 C 496.285156 553.742188 489.636719 556.601562 484.679688 561.699219 C 479.722656 566.792969 477.046875 573.511719 477.144531 580.621094 C 477.242188 587.730469 480.101562 594.371094 485.195312 599.320312 L 514.265625 627.644531 C 519.410156 632.648438 526.117188 635.144531 532.820312 635.144531 C 539.675781 635.144531 546.535156 632.535156 551.714844 627.324219 L 610.449219 568.0625 C 620.800781 557.660156 620.753906 540.78125 610.34375 530.433594 C 599.9375 520.085938 583.046875 520.132812 572.699219 530.535156 Z M 597.625 555.34375 L 538.890625 614.601562 C 535.601562 617.910156 530.207031 617.953125 526.871094 614.707031 L 497.796875 586.382812 C 496.160156 584.789062 495.238281 582.65625 495.207031 580.371094 C 495.179688 578.085938 496.039062 575.925781 497.632812 574.289062 C 499.222656 572.652344 501.359375 571.730469 503.644531 571.699219 C 503.6875 571.699219 503.726562 571.699219 503.769531 571.699219 C 506.007812 571.699219 508.121094 572.558594 509.722656 574.113281 L 526.308594 590.273438 C 529.855469 593.734375 535.535156 593.6875 539.03125 590.164062 L 585.515625 543.261719 C 587.128906 541.648438 589.269531 540.753906 591.550781 540.75 C 591.558594 540.75 591.566406 540.75 591.574219 540.75 C 593.851562 540.75 595.992188 541.632812 597.605469 543.238281 C 599.226562 544.847656 600.125 546.992188 600.128906 549.277344 C 600.132812 551.5625 599.25 553.710938 597.625 555.34375 Z M 421.683594 268.511719 C 423.574219 248.175781 413.910156 229.207031 399.210938 224.386719 C 388.453125 220.859375 377.894531 225.617188 370.980469 237.113281 L 304.621094 347.441406 C 301.988281 345.449219 298.722656 344.253906 295.175781 344.253906 L 267.636719 344.253906 C 258.984375 344.253906 251.945312 351.292969 251.945312 359.941406 L 251.945312 496.117188 C 251.945312 504.769531 258.984375 511.804688 267.636719 511.804688 L 295.175781 511.804688 C 301.128906 511.804688 306.316406 508.476562 308.976562 503.582031 L 322.675781 510.769531 C 323.96875 511.449219 325.414062 511.804688 326.875 511.804688 L 432.382812 511.804688 C 448.109375 511.804688 460.902344 499.019531 460.902344 483.296875 C 460.902344 477.980469 459.4375 472.996094 456.890625 468.730469 C 465.148438 463.71875 470.675781 454.632812 470.675781 444.28125 C 470.675781 438.941406 469.203125 433.941406 466.652344 429.660156 C 474.914062 424.652344 480.445312 415.5625 480.445312 405.203125 C 480.445312 399.867188 478.976562 394.867188 476.421875 390.585938 C 484.683594 385.578125 490.21875 376.488281 490.21875 366.128906 C 490.21875 350.378906 477.421875 337.5625 461.652344 337.5625 L 403.871094 337.855469 C 405.773438 330.867188 407.8125 323.613281 409.808594 316.515625 C 415.75 295.398438 420.882812 277.164062 421.683594 268.511719 Z M 270.011719 493.75 L 270.011719 362.3125 L 292.804688 362.3125 L 292.804688 489.746094 C 292.804688 489.753906 292.804688 489.761719 292.804688 489.769531 L 292.804688 493.75 Z M 461.695312 355.621094 C 467.460938 355.621094 472.152344 360.335938 472.152344 366.128906 C 472.152344 371.921875 467.460938 376.636719 461.695312 376.636719 L 415.304688 376.636719 C 410.316406 376.636719 406.269531 380.679688 406.269531 385.667969 C 406.269531 390.652344 410.316406 394.695312 415.304688 394.695312 L 451.925781 394.695312 C 457.6875 394.695312 462.378906 399.410156 462.378906 405.207031 C 462.378906 411 457.691406 415.714844 451.925781 415.714844 L 405.53125 415.714844 C 400.542969 415.714844 396.5 419.757812 396.5 424.742188 C 396.5 429.730469 400.542969 433.773438 405.53125 433.773438 L 442.15625 433.773438 C 447.917969 433.773438 452.609375 438.488281 452.609375 444.28125 C 452.609375 450.078125 447.921875 454.792969 442.15625 454.792969 L 395.761719 454.792969 C 390.773438 454.792969 386.730469 458.835938 386.730469 463.820312 C 386.730469 468.808594 390.773438 472.847656 395.761719 472.847656 L 432.382812 472.847656 C 438.148438 472.847656 442.839844 477.539062 442.839844 483.300781 C 442.839844 489.0625 438.148438 493.75 432.382812 493.75 L 329.101562 493.75 L 310.871094 484.183594 L 310.871094 372.101562 L 386.460938 246.421875 C 388.867188 242.425781 391.261719 240.785156 393.582031 241.546875 C 398.523438 243.167969 404.972656 253.109375 403.695312 266.847656 C 403.046875 273.859375 397.644531 293.058594 392.417969 311.625 C 389.285156 322.769531 386.042969 334.292969 383.367188 344.695312 C 382.671875 347.40625 383.273438 350.289062 384.996094 352.496094 C 386.707031 354.691406 389.335938 355.972656 392.117188 355.972656 C 392.132812 355.972656 392.148438 355.972656 392.164062 355.972656 Z M 290.441406 464.828125 L 290.441406 478.617188 C 290.441406 483.605469 286.394531 487.648438 281.40625 487.648438 C 276.417969 487.648438 272.375 483.605469 272.375 478.617188 L 272.375 464.828125 C 272.375 459.84375 276.417969 455.800781 281.40625 455.800781 C 286.394531 455.800781 290.441406 459.839844 290.441406 464.828125 Z M 290.441406 464.828125 "/></g><g style="fill:#000000;fill-opacity:1;"><g transform="translate(452.830877, 521.818698)"><path style="stroke:none" d="M 2.234375 -1.546875 C 2.234375 -2.203125 2.378906 -2.695312 2.671875 -3.03125 C 2.972656 -3.375 3.398438 -3.546875 3.953125 -3.546875 C 4.523438 -3.546875 4.96875 -3.375 5.28125 -3.03125 C 5.59375 -2.695312 5.75 -2.203125 5.75 -1.546875 C 5.75 -0.910156 5.585938 -0.421875 5.265625 -0.078125 C 4.953125 0.253906 4.515625 0.421875 3.953125 0.421875 C 3.453125 0.421875 3.039062 0.269531 2.71875 -0.03125 C 2.394531 -0.34375 2.234375 -0.847656 2.234375 -1.546875 Z M 2.234375 -1.546875 "/></g></g></g></svg>